<?xml version="1.0" encoding="UTF-8"?>
<svg width="1440px" height="333px" viewBox="0 0 1440 333" version="1.1" xmlns="http://www.w3.org/2000/svg" xmlns:xlink="http://www.w3.org/1999/xlink">
    <!-- Generator: Sketch 51.1 (57501) - http://www.bohemiancoding.com/sketch -->
    <title>Group 85</title>
    <desc>Created with Sketch.</desc>
    <defs>
        <linearGradient x1="72.7093995%" y1="17.519855%" x2="72.7093995%" y2="100%" id="linearGradient-1">
            <stop stop-color="#558EF9" offset="0%"></stop>
            <stop stop-color="#3059C4" offset="100%"></stop>
        </linearGradient>
        <linearGradient x1="24.3791175%" y1="0%" x2="24.3791178%" y2="100%" id="linearGradient-2">
            <stop stop-color="#8CC4FC" offset="0%"></stop>
            <stop stop-color="#66AFF8" offset="100%"></stop>
        </linearGradient>
    </defs>
    <g id="Page-1" stroke="none" stroke-width="1" fill="none" fill-rule="evenodd">
        <g id="Desktop-HD" transform="translate(0.000000, -437.000000)">
            <g id="Group-58" transform="translate(-1.000000, 437.000000)">
                <g id="Group-85">
                    <ellipse id="Oval-9" fill="#6EB3F9" cx="272.5" cy="42" rx="15.5" ry="10"></ellipse>
                    <path d="M1442,329.964169 L1442,192.067649 C1396.2302,159.452263 1321.87108,145.802105 1218.92265,151.117175 C1064.5,159.089779 851.795352,295.493659 502.674298,255.52785 C269.926928,228.883978 102.368829,200.075291 0,169.101789 L0,332 L1442,329.964169 Z" id="Path-3" fill="url(#linearGradient-1)"></path>
                    <g id="Group-13" transform="translate(61.000000, 43.000000)">
                        <path d="M87,81 L137,81" id="Line-2-Copy-2" stroke="#4D92D9" stroke-width="2" stroke-linecap="square"></path>
                        <polygon id="Path-19" stroke="#3273B7" stroke-width="4" points="73.5 80 37 152.5 124.535707 152.5 86 80"></polygon>
                        <circle id="Oval-10" stroke="#4D92D9" stroke-width="5" cx="80" cy="81" r="64"></circle>
                        <g id="Group-14" transform="translate(102.000000, 7.000000)" stroke="#4D92D9" stroke-width="2">
                            <path d="M6.35714286,14.6153846 L10.6428571,5.38461538" id="Line-7" stroke-linecap="square"></path>
                            <rect id="Rectangle-12" transform="translate(6.000000, 6.500000) rotate(-62.000000) translate(-6.000000, -6.500000) " x="3" y="3" width="6" height="7"></rect>
                        </g>
                        <g id="Group-14-Copy-7" transform="translate(88.023967, 9.987026) rotate(-18.000000) translate(-88.023967, -9.987026) translate(82.023967, 2.487026)" stroke="#4D92D9" stroke-width="2">
                            <path d="M6.35714286,14.6153846 L10.6428571,5.38461538" id="Line-7" stroke-linecap="square"></path>
                            <rect id="Rectangle-12" transform="translate(6.000000, 6.500000) rotate(-62.000000) translate(-6.000000, -6.500000) " x="3" y="3" width="6" height="7"></rect>
                        </g>
                        <g id="Group-14-Copy-8" transform="translate(69.262491, 9.594339) rotate(-36.000000) translate(-69.262491, -9.594339) translate(63.262491, 2.094339)" stroke="#4D92D9" stroke-width="2">
                            <path d="M6.35714286,14.6153846 L10.6428571,5.38461538" id="Line-7" stroke-linecap="square"></path>
                            <rect id="Rectangle-12" transform="translate(6.000000, 6.500000) rotate(-62.000000) translate(-6.000000, -6.500000) " x="3" y="3" width="6" height="7"></rect>
                        </g>
                        <g id="Group-14-Copy-9" transform="translate(50.604517, 15.382779) rotate(-51.000000) translate(-50.604517, -15.382779) translate(44.604517, 7.882779)" stroke="#4D92D9" stroke-width="2">
                            <path d="M6.35714286,14.6153846 L10.6428571,5.38461538" id="Line-7" stroke-linecap="square"></path>
                            <rect id="Rectangle-12" transform="translate(6.000000, 6.500000) rotate(-62.000000) translate(-6.000000, -6.500000) " x="3" y="3" width="6" height="7"></rect>
                        </g>
                        <g id="Group-14-Copy-10" transform="translate(34.201518, 25.372653) rotate(-68.000000) translate(-34.201518, -25.372653) translate(28.201518, 17.872653)" stroke="#4D92D9" stroke-width="2">
                            <path d="M6.35714286,14.6153846 L10.6428571,5.38461538" id="Line-7" stroke-linecap="square"></path>
                            <rect id="Rectangle-12" transform="translate(6.000000, 6.500000) rotate(-62.000000) translate(-6.000000, -6.500000) " x="3" y="3" width="6" height="7"></rect>
                        </g>
                        <g id="Group-14-Copy-11" transform="translate(22.086085, 38.751095) rotate(-84.000000) translate(-22.086085, -38.751095) translate(16.086085, 31.251095)" stroke="#4D92D9" stroke-width="2">
                            <path d="M6.35714286,14.6153846 L10.6428571,5.38461538" id="Line-7" stroke-linecap="square"></path>
                            <rect id="Rectangle-12" transform="translate(6.000000, 6.500000) rotate(-62.000000) translate(-6.000000, -6.500000) " x="3" y="3" width="6" height="7"></rect>
                        </g>
                        <g id="Group-14-Copy-12" transform="translate(13.175312, 54.869297) rotate(-97.000000) translate(-13.175312, -54.869297) translate(7.175312, 47.369297)" stroke="#4D92D9" stroke-width="2">
                            <path d="M6.35714286,14.6153846 L10.6428571,5.38461538" id="Line-7" stroke-linecap="square"></path>
                            <rect id="Rectangle-12" transform="translate(6.000000, 6.500000) rotate(-62.000000) translate(-6.000000, -6.500000) " x="3" y="3" width="6" height="7"></rect>
                        </g>
                        <g id="Group-14-Copy-13" transform="translate(9.371182, 72.680548) rotate(-116.000000) translate(-9.371182, -72.680548) translate(3.371182, 65.180548)" stroke="#4D92D9" stroke-width="2">
                            <path d="M6.35714286,14.6153846 L10.6428571,5.38461538" id="Line-7" stroke-linecap="square"></path>
                            <rect id="Rectangle-12" transform="translate(6.000000, 6.500000) rotate(-62.000000) translate(-6.000000, -6.500000) " x="3" y="3" width="6" height="7"></rect>
                        </g>
                        <g id="Group-14-Copy-14" transform="translate(9.585099, 91.216736) rotate(-125.000000) translate(-9.585099, -91.216736) translate(3.585099, 83.716736)" stroke="#4D92D9" stroke-width="2">
                            <path d="M6.35714286,14.6153846 L10.6428571,5.38461538" id="Line-7" stroke-linecap="square"></path>
                            <rect id="Rectangle-12" transform="translate(6.000000, 6.500000) rotate(-62.000000) translate(-6.000000, -6.500000) " x="3" y="3" width="6" height="7"></rect>
                        </g>
                        <g id="Group-14-Copy-15" transform="translate(14.382779, 109.604517) rotate(-141.000000) translate(-14.382779, -109.604517) translate(8.382779, 102.104517)" stroke="#4D92D9" stroke-width="2">
                            <path d="M6.35714286,14.6153846 L10.6428571,5.38461538" id="Line-7" stroke-linecap="square"></path>
                            <rect id="Rectangle-12" transform="translate(6.000000, 6.500000) rotate(-62.000000) translate(-6.000000, -6.500000) " x="3" y="3" width="6" height="7"></rect>
                        </g>
                        <g id="Group-14-Copy-16" transform="translate(24.382779, 125.604517) rotate(-162.000000) translate(-24.382779, -125.604517) translate(18.382779, 118.104517)" stroke="#4D92D9" stroke-width="2">
                            <path d="M6.35714286,14.6153846 L10.6428571,5.38461538" id="Line-7" stroke-linecap="square"></path>
                            <rect id="Rectangle-12" transform="translate(6.000000, 6.500000) rotate(-62.000000) translate(-6.000000, -6.500000) " x="3" y="3" width="6" height="7"></rect>
                        </g>
                        <g id="Group-14-Copy" transform="translate(124.211208, 24.427947) rotate(10.000000) translate(-124.211208, -24.427947) translate(118.211208, 16.927947)" stroke="#4D92D9" stroke-width="2">
                            <path d="M6.35714286,14.6153846 L10.6428571,5.38461538" id="Line-7" stroke-linecap="square"></path>
                            <rect id="Rectangle-12" transform="translate(6.000000, 6.500000) rotate(-62.000000) translate(-6.000000, -6.500000) " x="3" y="3" width="6" height="7"></rect>
                        </g>
                        <g id="Group-14-Copy" transform="translate(137.372653, 38.201518) rotate(22.000000) translate(-137.372653, -38.201518) translate(131.372653, 30.701518)" stroke="#4D92D9" stroke-width="2">
                            <path d="M6.35714286,14.6153846 L10.6428571,5.38461538" id="Line-7" stroke-linecap="square"></path>
                            <rect id="Rectangle-12" transform="translate(6.000000, 6.500000) rotate(-62.000000) translate(-6.000000, -6.500000) " x="3" y="3" width="6" height="7"></rect>
                        </g>
                        <g id="Group-14-Copy-2" transform="translate(146.168172, 53.572939) rotate(34.000000) translate(-146.168172, -53.572939) translate(140.168172, 46.072939)" stroke="#4D92D9" stroke-width="2">
                            <path d="M6.35714286,14.6153846 L10.6428571,5.38461538" id="Line-7" stroke-linecap="square"></path>
                            <rect id="Rectangle-12" transform="translate(6.000000, 6.500000) rotate(-62.000000) translate(-6.000000, -6.500000) " x="3" y="3" width="6" height="7"></rect>
                        </g>
                        <g id="Group-14-Copy-3" transform="translate(150.594339, 71.262491) rotate(54.000000) translate(-150.594339, -71.262491) translate(144.594339, 63.762491)" stroke="#4D92D9" stroke-width="2">
                            <path d="M6.35714286,14.6153846 L10.6428571,5.38461538" id="Line-7" stroke-linecap="square"></path>
                            <rect id="Rectangle-12" transform="translate(6.000000, 6.500000) rotate(-62.000000) translate(-6.000000, -6.500000) " x="3" y="3" width="6" height="7"></rect>
                        </g>
                        <g id="Group-14-Copy-4" transform="translate(150.926516, 89.930616) rotate(73.000000) translate(-150.926516, -89.930616) translate(144.926516, 82.430616)" stroke="#4D92D9" stroke-width="2">
                            <path d="M6.35714286,14.6153846 L10.6428571,5.38461538" id="Line-7" stroke-linecap="square"></path>
                            <rect id="Rectangle-12" transform="translate(6.000000, 6.500000) rotate(-62.000000) translate(-6.000000, -6.500000) " x="3" y="3" width="6" height="7"></rect>
                        </g>
                        <g id="Group-14-Copy-5" transform="translate(145.900269, 107.508558) rotate(86.000000) translate(-145.900269, -107.508558) translate(139.900269, 100.008558)" stroke="#4D92D9" stroke-width="2">
                            <path d="M6.35714286,14.6153846 L10.6428571,5.38461538" id="Line-7" stroke-linecap="square"></path>
                            <rect id="Rectangle-12" transform="translate(6.000000, 6.500000) rotate(-62.000000) translate(-6.000000, -6.500000) " x="3" y="3" width="6" height="7"></rect>
                        </g>
                        <g id="Group-14-Copy-6" transform="translate(136.900269, 123.508558) rotate(98.000000) translate(-136.900269, -123.508558) translate(130.900269, 116.008558)" stroke="#4D92D9" stroke-width="2">
                            <path d="M6.35714286,14.6153846 L10.6428571,5.38461538" id="Line-7" stroke-linecap="square"></path>
                            <rect id="Rectangle-12" transform="translate(6.000000, 6.500000) rotate(-62.000000) translate(-6.000000, -6.500000) " x="3" y="3" width="6" height="7"></rect>
                        </g>
                        <circle id="Oval-10" stroke="#4D92D9" stroke-width="3" cx="80" cy="81" r="57"></circle>
                        <g id="Group-11" transform="translate(25.000000, 26.000000)" stroke="#4D92D9" stroke-linecap="square" stroke-width="2">
                            <path d="M49.852739,50.8449837 L14.7560976,15.525" id="Line-2"></path>
                            <path d="M60.3658537,50.8449837 L95.4624951,15.525" id="Line-2-Copy-5"></path>
                            <path d="M59.0243902,48.6579689 L83.8414634,5.4" id="Line-2-Copy-5"></path>
                            <path d="M61.7073171,51.975 L104.691749,27" id="Line-2-Copy-5"></path>
                            <path d="M49.021017,51.975 L6.03658537,27" id="Line-2-Copy-5"></path>
                            <path d="M48.2926829,53.0905113 L0.34977911,40.1625" id="Line-2-Copy-5"></path>
                            <path d="M61.7073171,53.4280113 L109.650221,40.5" id="Line-2-Copy-5"></path>
                            <path d="M50.9756098,49.3329689 L26.1585366,6.075" id="Line-2-Copy-7"></path>
                            <path d="M56.3414634,48.8199837 L69.1877258,0.571988697" id="Line-2-Copy-5"></path>
                            <path d="M52.9878049,48.922995 L40.1415425,0.675" id="Line-2-Copy-5"></path>
                        </g>
                        <path d="M80,74.66 L80,24.34" id="Line-2" stroke="#4D92D9" stroke-width="2" stroke-linecap="square"></path>
                        <g id="Group-11" transform="translate(80.000000, 109.000000) scale(-1, -1) translate(-80.000000, -109.000000) translate(25.000000, 82.000000)" stroke="#4D92D9" stroke-linecap="square" stroke-width="2">
                            <path d="M49.852739,50.8449837 L14.7560976,15.525" id="Line-2"></path>
                            <path d="M60.3658537,50.8449837 L95.4624951,15.525" id="Line-2-Copy-5"></path>
                            <path d="M59.0243902,48.6579689 L83.8414634,5.4" id="Line-2-Copy-5"></path>
                            <path d="M61.7073171,51.975 L104.691749,27" id="Line-2-Copy-5"></path>
                            <path d="M49.021017,51.975 L6.03658537,27" id="Line-2-Copy-5"></path>
                            <path d="M48.2926829,53.0905113 L0.34977911,40.1625" id="Line-2-Copy-5"></path>
                            <path d="M61.7073171,53.4280113 L109.650221,40.5" id="Line-2-Copy-5"></path>
                            <path d="M50.9756098,49.3329689 L26.1585366,6.075" id="Line-2-Copy-7"></path>
                            <path d="M56.3414634,48.8199837 L69.1877258,0.571988697" id="Line-2-Copy-5"></path>
                            <path d="M52.9878049,48.922995 L40.1415425,0.675" id="Line-2-Copy-5"></path>
                        </g>
                        <path d="M80,137.66 L80,87.34" id="Line-2-Copy" stroke="#4D92D9" stroke-width="2" stroke-linecap="square"></path>
                        <path d="M23,81 L73,81" id="Line-2-Copy-3" stroke="#4D92D9" stroke-width="2" stroke-linecap="square"></path>
                        <circle id="Oval-10" stroke="#4D92D9" stroke-width="3" cx="80" cy="81" r="6"></circle>
                        <circle id="Oval-10" stroke="#4D92D9" stroke-width="3" cx="80" cy="81" r="2"></circle>
                    </g>
                    <rect id="Rectangle-11" fill="#5FA5ED" x="286" y="59" width="24" height="87"></rect>
                    <rect id="Rectangle-11" fill="#4D92D9" x="301" y="75" width="24" height="71"></rect>
                    <rect id="Rectangle-11-Copy-2" fill="#3273B7" x="177" y="110" width="15" height="58"></rect>
                    <rect id="Rectangle-11-Copy" fill="#5FA5ED" x="159" y="97" width="21" height="71"></rect>
                    <path d="M272.315337,16.8145294 C272.438446,4.9712158 272.5,-0.424138484 272.5,0.628466558 C272.5,46.7213444 278.5,96.0975348 290.5,148.757038 L274.5,148.757038 L255,148.757038 C266.333333,95.7642015 272,46.2213444 272,0.128466558 C272,-0.936997461 272.105112,4.62502349 272.315337,16.8145294 Z" id="Combined-Shape" fill="#6EB3F9"></path>
                    <path d="M337.777778,113 C334.444444,117.666667 334.111111,121.166667 336.777778,123.5 C339.444444,125.833333 343.111111,125.166667 347.777778,121.5 L337.777778,113 Z" id="Path-15" fill="#5FA5ED"></path>
                    <path d="M331.088084,88 C329.776609,112.480874 343.109942,125.814208 371.088084,128 C371.088084,128 357.754751,114.666667 331.088084,88 Z" id="Path-14" fill="#6EB3F9"></path>
                    <path d="M340,123.350822 C342.666667,129.684155 344,134.850822 344,138.850822 C344,138.850822 345.833333,138.850822 349.5,138.850822 C346.817787,130.543638 344.984453,125.710305 344,124.350822 C343.015547,122.991339 341.682213,122.658006 340,123.350822 Z" id="Path-16" fill="#5FA5ED"></path>
                    <path d="M334,147.5 C336.666667,140.5 341.166667,137 347.5,137 C353.833333,137 358.333333,141.666667 361,151 L334,147.5 Z" id="Path-17" fill="#5FA5ED"></path>
                    <path d="M347,106 C352.128205,104.333333 358.794872,99.6666667 367,92 C367,92 353.666667,106 353.666667,112 C353.666667,112 351.444444,110 347,106 Z" id="Path-18" fill="#5FA5ED"></path>
                    <g id="Group-83" transform="translate(204.000000, 40.000000)" fill="#5FA5ED">
                        <path d="M31.5,85 L31.5,98.5 C23.1666667,98.5 18.1666667,103.333333 16.5,113 C16.5,113 14.6666667,113 11,113 L9.5,115 L-7.10542736e-15,115 L15.5,91 L15.5,89 L14,89 L14,87 L15.5,87 L16.5,86 L15,86 L15,84.5 L18.5,84.5 C22.1666667,74.1666667 24.1666667,67.8333333 24.5,65.5 C24.5,65.5 23.8333333,65.3333333 22.5,65 L22.5,63 L25,63 C27.6666667,41.6666667 29,25.5 29,14.5 C29,14.5 27.5,14.5 27.5,13 C27.5,12 28.5,10.1666667 30.5,7.5 L30.5,0 L31.5,0 L31.5,50 C31.0637213,50 30.5,50 30.5,50 C30,58 29,63 29,63 C29,63 29.8333333,63 31.5,63 L31.5,71 C30.7919872,71 29.9586539,71 29,71 C27.3333333,78.6666667 26.3333333,83.3333333 26,85 C26,85 27.8333333,85 31.5,85 Z" id="Combined-Shape"></path>
                        <path d="M31,71 L31,63 C31.7748518,63 32.7748518,63 34,63 C32.6666667,57.0465495 32,52.7132161 32,50 C32,50 31.4362787,50 31,50 L31,0 L32,0 L32,7.5 C34,10.1666667 35,12 35,13 C35,14.5 33.5,14.5 33.5,14.5 C33.5,25.5 34.8333333,41.6666667 37.5,63 L40,63 L40,65 C38.6666667,65.3333333 38,65.5 38,65.5 C38.3333333,67.8333333 40.3333333,74.1666667 44,84.5 L47.5,84.5 L47.5,86 L46,86 L47,87 L48.5,87 L48.5,89 L47,89 L47,91 L62.5,115 L53,115 L51.5,113 C47.8333333,113 46,113 46,113 C44.3333333,103.333333 39.3333333,98.5 31,98.5 L31,85 C32.610799,85 34.610799,85 37,85 C35.3333333,77 34.5,72.3333333 34.5,71 C34.5,71 33.3333333,71 31,71 Z" id="Combined-Shape"></path>
                    </g>
                    <path d="M1.00034686,333 L0,248.371429 C133.046133,152.602333 278.93005,122.740065 437.651752,158.784625 C675.734305,212.851466 834.289282,326.992573 1085.37634,314.97772 C1252.76772,306.967818 1371.64227,281.308371 1442,237.999381 L1441.49983,333 L1.00034686,333 Z" id="Path-2" fill="url(#linearGradient-2)"></path>
                    <g id="Group-49" transform="translate(1130.000000, 54.000000)">
                        <rect id="Rectangle-10" fill="#558DF9" transform="translate(209.000000, 92.500000) scale(-1, 1) translate(-209.000000, -92.500000) " x="207" y="81" width="4" height="23"></rect>
                        <rect id="Rectangle-10-Copy" fill="#558DF9" x="230" y="86" width="3" height="21"></rect>
                        <rect id="Rectangle-10-Copy-2" fill="#558DF9" x="181" y="78" width="3" height="21"></rect>
                        <rect id="Rectangle-10-Copy-6" fill="#558DF9" x="62" y="88" width="2" height="15"></rect>
                        <rect id="Rectangle-10-Copy-7" fill="#558DF9" x="6" y="97" width="2" height="15"></rect>
                        <rect id="Rectangle-10-Copy-3" fill="#558DF9" x="81" y="78" width="3" height="21"></rect>
                        <rect id="Rectangle-10-Copy-5" fill="#558DF9" x="149" y="82" width="2" height="15"></rect>
                        <rect id="Rectangle-10-Copy-4" fill="#558DF9" x="37" y="92" width="2" height="13"></rect>
                        <path d="M94.0421394,86.8641845 C91.7471863,90.5481753 87.6599203,93 83,93 C79.0033823,93 75.4279961,91.1964938 73.0432916,88.3589317 C71.7706798,88.7750092 70.4116146,89 69,89 C61.8202983,89 56,83.1797017 56,76 C56,71.8351953 57.9584916,68.1278208 61.0047384,65.748613 C59.188583,64.4840241 58,62.3808163 58,60 C58,56.1340068 61.1340068,53 65,53 C66.7974312,53 68.4366337,53.6774579 69.6762001,54.7909665 C72.4653374,50.6920105 77.1682924,48 82.5,48 C89.5191378,48 95.4485561,52.6656443 97.356164,59.0648424 C104.451814,59.7468995 110,65.7255257 110,73 C110,80.7319865 103.731986,87 96,87 C95.3355524,87 94.681916,86.9537119 94.0421394,86.8641845 Z" id="Combined-Shape" fill="#3763CE"></path>
                        <path d="M158.883847,88.5004019 C157.141382,91.2019952 154.038088,93 150.5,93 C147.465531,93 144.750886,91.6774288 142.940277,89.5965499 C141.974035,89.9016734 140.942152,90.0666667 139.87037,90.0666667 C134.419115,90.0666667 130,85.7984479 130,80.5333333 C130,77.4791432 131.487003,74.760402 133.799894,73.0156495 C132.420961,72.0882844 131.518519,70.5459319 131.518519,68.8 C131.518519,65.9649383 133.898042,63.6666667 136.833333,63.6666667 C138.19805,63.6666667 139.442629,64.1634691 140.383782,64.9800421 C142.50146,61.974141 146.072222,60 150.12037,60 C155.449716,60 159.951681,63.4214725 161.40005,68.1142177 C166.787489,68.614393 171,72.9987188 171,78.3333333 C171,84.0034568 166.240953,88.6 160.37037,88.6 C159.865882,88.6 159.369603,88.5660554 158.883847,88.5004019 Z" id="Combined-Shape-Copy-2" fill="#3763CE"></path>
                        <path d="M44.54349,97.1821592 C43.1835178,99.4744202 40.7614343,101 38,101 C35.631634,101 33.5128866,99.8778184 32.0997284,98.1122241 C31.3455881,98.3711168 30.5402161,98.5111111 29.7037037,98.5111111 C25.4490656,98.5111111 22,94.8895922 22,90.4222222 C22,87.8307882 23.1605876,85.5239774 24.9657709,84.0435814 C23.8895307,83.2567261 23.1851852,81.9480635 23.1851852,80.4666667 C23.1851852,78.0611598 25.0423744,76.1111111 27.3333333,76.1111111 C28.3984778,76.1111111 29.369857,76.5326405 30.1044149,77.2254902 C31.757237,74.6750287 34.5441732,73 37.7037037,73 C41.8631928,73 45.3769221,75.9030676 46.5073565,79.8847908 C50.7121863,80.3091819 54,84.029216 54,88.5555556 C54,93.3665694 50.2856216,97.2666667 45.7037037,97.2666667 C45.309957,97.2666667 44.9226169,97.2378652 44.54349,97.1821592 Z" id="Combined-Shape-Copy" fill="#3763CE"></path>
                        <polygon id="Path-10" fill="#3763CE" points="210 30 194 96 223 96"></polygon>
                        <polygon id="Path-10-Copy" fill="#3763CE" points="232.586207 48 221 99 242 99"></polygon>
                        <polygon id="Path-10-Copy-2" fill="#3763CE" points="182.931034 47 173 91 191 91"></polygon>
                        <polygon id="Path-10-Copy-3" fill="#3763CE" points="63.1724138 66 56 97 69 97"></polygon>
                        <polygon id="Path-10-Copy-4" fill="#3763CE" points="7.17241379 75 0 106 13 106"></polygon>
                        <g id="Group-84" transform="translate(96.000000, 0.000000)" fill="#3763CE">
                            <polygon id="Path-33" points="12 91.5 17 30 21.5 30 17 91.5"></polygon>
                            <polygon id="Path-33-Copy" transform="translate(35.750000, 60.750000) scale(-1, 1) translate(-35.750000, -60.750000) " points="31 91.5 36 30 40.5 30 36 91.5"></polygon>
                            <path d="M11,5 L41,5 L41,31 L11,31 L11,5 Z M14,9 L14,19 L38,19 L38,9 L14,9 Z" id="Combined-Shape"></path>
                            <rect id="Rectangle-13" x="0" y="91" width="51" height="6"></rect>
                            <polygon id="Path-34" points="26 8.5 8 8.5 8 5 26 0 44.5 5 44.5 8.5"></polygon>
                            <polygon id="Path-35" points="18.5 56 35.2722168 73.5 35.2722168 67.5 18.5 51"></polygon>
                            <polygon id="Path-35" transform="translate(26.000000, 61.928571) scale(-1, 1) translate(-26.000000, -61.928571) " points="17 55.5 35 73.5 35 67.3285714 17 50.3571429"></polygon>
                        </g>
                    </g>
                </g>
            </g>
        </g>
    </g>
</svg>