<svg width="33" height="26" viewBox="0 0 33 26" fill="none" xmlns="http://www.w3.org/2000/svg">
<path d="M31.8296 10.8698V11.7261C31.8296 12.083 31.7047 12.3863 31.4549 12.636C31.2052 12.8858 30.9019 13.0107 30.545 13.0107H30.1169L28.7252 22.8055C28.6539 23.198 28.5022 23.5638 28.2703 23.9028C28.0384 24.2417 27.7351 24.5094 27.3604 24.7056C26.9857 24.9019 26.5843 25 26.1561 25H6.67351C6.03122 25 5.46923 24.7948 4.98751 24.3845C4.5058 23.9741 4.21142 23.4478 4.10437 22.8055L2.71276 13.0107H2.28457C1.92774 13.0107 1.62444 12.8858 1.37467 12.636C1.12489 12.3863 1 12.083 1 11.7261V10.8698C1 10.5129 1.12489 10.2096 1.37467 9.95986C1.62444 9.71008 1.92774 9.58519 2.28457 9.58519H5.87065L11.5977 1.71722C11.8831 1.32471 12.2578 1.09278 12.7217 1.02141C13.1855 0.950044 13.6137 1.05709 14.0062 1.34255C14.3988 1.62801 14.6307 2.00267 14.7021 2.46655C14.7734 2.93042 14.6664 3.35861 14.3809 3.75112L10.099 9.58519H22.7306L18.4487 3.75112C18.1632 3.35861 18.0562 2.93042 18.1276 2.46655C18.1989 2.00267 18.4309 1.62801 18.8234 1.34255C19.2159 1.05709 19.6441 0.950044 20.1079 1.02141C20.5718 1.09278 20.9465 1.32471 21.2319 1.71722L26.959 9.58519H30.545C30.9019 9.58519 31.2052 9.71008 31.4549 9.95986C31.7047 10.2096 31.8296 10.5129 31.8296 10.8698ZM17.6994 20.2899V14.2953C17.6994 13.9384 17.5745 13.6351 17.3247 13.3854C17.0749 13.1356 16.7716 13.0107 16.4148 13.0107C16.058 13.0107 15.7547 13.1356 15.5049 13.3854C15.2551 13.6351 15.1302 13.9384 15.1302 14.2953V20.2899C15.1302 20.6467 15.2551 20.95 15.5049 21.1998C15.7547 21.4496 16.058 21.5745 16.4148 21.5745C16.7716 21.5745 17.0749 21.4496 17.3247 21.1998C17.5745 20.95 17.6994 20.6467 17.6994 20.2899ZM23.694 20.2899V14.2953C23.694 13.9384 23.5691 13.6351 23.3194 13.3854C23.0696 13.1356 22.7663 13.0107 22.4095 13.0107C22.0526 13.0107 21.7493 13.1356 21.4996 13.3854C21.2498 13.6351 21.1249 13.9384 21.1249 14.2953V20.2899C21.1249 20.6467 21.2498 20.95 21.4996 21.1998C21.7493 21.4496 22.0526 21.5745 22.4095 21.5745C22.7663 21.5745 23.0696 21.4496 23.3194 21.1998C23.5691 20.95 23.694 20.6467 23.694 20.2899ZM11.7047 20.2899V14.2953C11.7047 13.9384 11.5798 13.6351 11.3301 13.3854C11.0803 13.1356 10.777 13.0107 10.4202 13.0107C10.0633 13.0107 9.76004 13.1356 9.51026 13.3854C9.26048 13.6351 9.13559 13.9384 9.13559 14.2953V20.2899C9.13559 20.6467 9.26048 20.95 9.51026 21.1998C9.76004 21.4496 10.0633 21.5745 10.4202 21.5745C10.777 21.5745 11.0803 21.4496 11.3301 21.1998C11.5798 20.95 11.7047 20.6467 11.7047 20.2899Z" stroke="#444444" stroke-width="2"/>
</svg>
