<svg width="32" height="32" viewBox="0 0 32 32" fill="none" xmlns="http://www.w3.org/2000/svg">
<circle cx="16" cy="16" r="16" fill="#4C94ED"/>
<path fill-rule="evenodd" clip-rule="evenodd" d="M7.67236 12.458H16.8699L15.4329 25.0002H9.10939L7.67236 12.458ZM8.88146 13.3798L10.1073 24.0784H14.4351L15.6608 13.3798H8.88146Z" fill="white"/>
<path fill-rule="evenodd" clip-rule="evenodd" d="M14.5421 14.4468C15.21 14.8328 15.7417 15.4947 16.0336 15.9782L15.1371 16.6383C14.9065 16.2564 14.4979 15.7643 14.0426 15.5012C13.8208 15.3731 13.6108 15.3123 13.4172 15.3207C13.2321 15.3287 13.0243 15.4011 12.7957 15.6114C12.0243 16.3214 11.1227 16.4552 10.3525 16.3586C9.59067 16.2629 8.91406 15.939 8.5083 15.6589L9.07937 14.6498C9.37017 14.8505 9.89514 15.1035 10.4742 15.1762C11.0449 15.2478 11.6235 15.1412 12.1059 14.6972C12.5042 14.3306 12.9364 14.1506 13.3749 14.1316C13.8049 14.1129 14.2023 14.2504 14.5421 14.4468Z" fill="white"/>
<path fill-rule="evenodd" clip-rule="evenodd" d="M8.05344 7C8.67437 7 9.11413 7.33149 9.38932 7.68612C9.6571 8.0312 9.80066 8.43244 9.85597 8.70898L9.86002 8.72923L10.6325 15.1667L9.58125 15.2929L8.81394 8.89863C8.78059 8.74679 8.6943 8.51755 8.55283 8.33524C8.41305 8.15511 8.2539 8.05881 8.05344 8.05881H6V7H8.05344Z" fill="white"/>
<path d="M11.7207 19.0806C11.7207 19.5059 11.376 19.8506 10.9507 19.8506C10.5254 19.8506 10.1807 19.5059 10.1807 19.0806C10.1807 18.6553 10.5254 18.3105 10.9507 18.3105C11.376 18.3105 11.7207 18.6553 11.7207 19.0806Z" fill="white"/>
<path d="M13.7009 21.39C13.7009 21.957 13.2412 22.4167 12.6742 22.4167C12.1071 22.4167 11.6475 21.957 11.6475 21.39C11.6475 20.823 12.1071 20.3633 12.6742 20.3633C13.2412 20.3633 13.7009 20.823 13.7009 21.39Z" fill="white"/>
<path fill-rule="evenodd" clip-rule="evenodd" d="M16.0337 13.2939H24.6181L23.2769 25H17.3749L16.0337 13.2939ZM17.1622 14.1543L18.3063 24.1396H22.3455L23.4896 14.1543H17.1622Z" fill="white"/>
<path fill-rule="evenodd" clip-rule="evenodd" d="M22.446 15.1503C23.0694 15.5106 23.5656 16.1283 23.8381 16.5796L23.0013 17.1957C22.7861 16.8393 22.4047 16.38 21.9798 16.1344C21.7728 16.0148 21.5768 15.958 21.3961 15.9659C21.2233 15.9734 21.0293 16.0409 20.816 16.2373C20.0961 16.8999 19.2545 17.0248 18.5357 16.9346C17.8247 16.8453 17.1932 16.543 16.8145 16.2816L17.3475 15.3397C17.6189 15.5271 18.1088 15.7632 18.6493 15.831C19.182 15.8979 19.7219 15.7984 20.1722 15.384C20.544 15.0419 20.9473 14.8738 21.3566 14.8561C21.758 14.8387 22.1288 14.967 22.446 15.1503Z" fill="white"/>
<path d="M19.8124 19.4746C19.8124 19.8715 19.4906 20.1933 19.0937 20.1933C18.6968 20.1933 18.375 19.8715 18.375 19.4746C18.375 19.0776 18.6968 18.7559 19.0937 18.7559C19.4906 18.7559 19.8124 19.0776 19.8124 19.4746Z" fill="white"/>
<path d="M21.6597 21.6301C21.6597 22.1594 21.2307 22.5884 20.7014 22.5884C20.1722 22.5884 19.7432 22.1594 19.7432 21.6301C19.7432 21.1009 20.1722 20.6719 20.7014 20.6719C21.2307 20.6719 21.6597 21.1009 21.6597 21.6301Z" fill="white"/>
</svg>
