<svg xmlns="http://www.w3.org/2000/svg" width="109" height="43" viewBox="0 0 109 43">
    <g fill="#FFF" fill-rule="evenodd">
        <path d="M56.238 30.263c-1.363 0-2.649.263-3.882.645a21.701 21.701 0 0 0-17.748-9.136 21.701 21.701 0 0 0-17.749 9.136c-1.233-.382-2.52-.645-3.882-.645C5.81 30.263 0 35.966 0 43h69.215c0-7.034-5.81-12.737-12.977-12.737z"/>
        <path d="M91.424 11.54c-1.845 0-3.587.356-5.258.875A29.359 29.359 0 0 0 62.13 0a29.361 29.361 0 0 0-24.036 12.415c-1.671-.519-3.414-.876-5.258-.876-9.707 0-17.576 7.75-17.576 17.31H109c0-9.561-7.87-17.31-17.576-17.31z" opacity=".6"/>
    </g>
</svg>
