<svg xmlns="http://www.w3.org/2000/svg" width="57" height="24" viewBox="0 0 57 24">
    <path fill="#FFF" fill-rule="evenodd" d="M30.576 12.478c6.221 0 11.265 5.159 11.265 11.522H0C0 14.91 7.205 7.54 16.093 7.54c1.949 0 3.778.432 5.499 1.087 1.078-2.357 3.38-4.014 6.093-4.014.71 0 1.38.143 2.024.35C31.746 1.968 35.124 0 38.96 0c3.837 0 7.216 1.968 9.251 4.963.643-.207 1.314-.35 2.024-.35C53.972 4.613 57 7.71 57 11.532H26.413c.494.43 1.014.832 1.455 1.32.871-.222 1.769-.374 2.708-.374z" opacity=".6"/>
</svg>
