<svg xmlns="http://www.w3.org/2000/svg" xmlns:xlink="http://www.w3.org/1999/xlink" width="180" height="135" viewBox="0 0 180 135">
    <defs>
        <path id="a" d="M.424.022h52.672v48.55H.424z"/>
    </defs>
    <g fill="none" fill-rule="evenodd">
        <ellipse cx="90" cy="113.5" fill="#8B572A" opacity=".497" rx="90" ry="21.5"/>
        <path fill="#7B8184" d="M56.226 18.516s-5.718-15.5 8.41-17.522c14.128-2.021 13.791 12.804 13.791 12.804s-11.622-3.075-22.2 4.718"/>
        <path stroke="#595959" stroke-width="1.558" d="M56.226 18.516s-5.718-15.5 8.41-17.522c14.128-2.021 13.791 12.804 13.791 12.804s-11.622-3.075-22.2 4.718z"/>
        <path fill="#595959" d="M55.082 13.784s2.482-4.233 10.913-5.903c8.752-1.734 11.459.627 11.459.627l.974 5.45s-10.324-5.392-22.29 4.558l-1.056-4.732z"/>
        <path fill="#752A22" d="M41.624 38.642s-9.36 1.336-.31 15.796c0 0 5.348 6.916 10.735 10.77 0 0 37.964-3.796 48.92-13.14 0 0-2.366-3.121-1.838-6.458l-57.507-6.968z"/>
        <path fill="#FEFEFE" d="M44.616 45.446l4.164 5.27s2.562 2.815 8.315 3.187c5.754.371 11.371-2.337 15.422-4.5 4.052-2.162 9.426-6.987 13.012-12.959 3.586-5.97 4.232-11.334 2.287-15.954 0 0-3.898-5.673-5.18-6.804l-38.02 31.76z"/>
        <path fill="#FFCB04" d="M82.622 14.5c5.256 6.526.972 18.66-9.57 27.101-10.542 8.442-23.349 9.996-28.605 3.471-5.256-6.526-.971-18.66 9.571-27.101C64.56 9.529 77.366 7.975 82.622 14.5"/>
        <path fill="#CA952B" d="M47.331 42.667s-5.59-10.355 9.106-22.153c14.697-11.798 23.6-4.103 23.6-4.103s-4.148-6.243-15.602-2.125C51.834 18.818 47.356 29.23 47.356 29.23s-4.337 7.83-.025 13.437"/>
        <path fill="#FEF2DE" d="M79.738 16.1s5.59 10.356-9.106 22.154c-14.696 11.797-23.6 4.102-23.6 4.102s4.149 6.244 15.601 2.125c12.602-4.532 17.08-14.944 17.08-14.944s4.337-7.83.025-13.436"/>
        <path fill="#EBAA20" d="M45.421 46.286l3.483 4.365c.435.546 5.275 5.651 16.46 1.95 10.875-3.597 16.231-10.003 19.174-14.6 2.639-4.122 6.122-10.846 3.317-17.554 0 0-.284-.955-3.776-5.151 0 0 4.45 5.358-.304 15.043-4.754 9.685-15.807 17.704-23.54 19.027-7.732 1.324-11.845.161-14.814-3.08"/>
        <path fill="#FEF2DE" d="M64.648 30.923c-.955.789-2.107.95-2.567.36-.46-.59-.059-1.71.896-2.499.955-.789 2.107-.95 2.567-.36.461.589.06 1.71-.896 2.5m-6.414-8.213c-5.597 4.623-7.954 11.197-5.254 14.654 2.7 3.458 9.45 2.509 15.048-2.114a21.563 21.563 0 0 0 2.616-2.558c.014-.017.024-.034.037-.05a1.546 1.546 0 0 0 .163-.251c.014-.03.028-.06.04-.09a.89.89 0 0 0 .068-.314.533.533 0 0 0-.038-.202.358.358 0 0 0-.034-.064c-.006-.01-.01-.023-.018-.032l-4.998-6.4c-.908-1.163-3.178-.844-5.06.71-.995.822-1.73 1.869-2.016 2.87-.133.469.163.763.661.66.499-.104 1.01-.566 1.143-1.034.146-.509.519-1.04 1.023-1.457.916-.756 2.011-.934 2.505-.428a6.645 6.645 0 0 0-1.954 1.134c-1.882 1.555-2.675 3.765-1.767 4.928.908 1.162 3.177.844 5.06-.71a6.81 6.81 0 0 0 1.502-1.727l1.902 2.436a18.267 18.267 0 0 1-1.646 1.54c-4.67 3.858-10.302 4.649-12.555 1.764-2.253-2.884-.286-8.369 4.384-12.226 4.67-3.857 10.302-4.649 12.555-1.764.981 1.257 1.198 3.077.61 5.125-.135.468.16.764.658.662.497-.103 1.01-.565 1.144-1.032.706-2.455.446-4.637-.73-6.144-2.7-3.457-9.45-2.51-15.049 2.114"/>
        <path fill="#8D3A2F" d="M31.887 53.937s-15.163 9.013-19.18 17.436c-4.016 8.423-3.179 19.037 0 25.102 3.18 6.065 13.891 21.226 29.288 21.058 0 0-.98-24.314 2.02-25.297 0 0 9.819-16.31 4.816-20.863-5.003-4.553-14.333-12.762-16.944-17.436"/>
        <path stroke="#712312" stroke-width="1.558" d="M31.887 53.937s-15.163 9.013-19.18 17.436c-4.016 8.423-3.179 19.037 0 25.102 3.18 6.065 13.891 21.226 29.288 21.058 0 0-.98-24.314 2.02-25.297 0 0 9.819-16.31 4.816-20.863-5.003-4.553-14.333-12.762-16.944-17.436z"/>
        <path fill="#FEFEFE" d="M47.836 65.6l5.244 6.353s3.219 3.386 10.298 3.7c7.08.313 13.917-3.142 18.843-5.89 4.925-2.749 11.412-8.792 15.674-16.194 4.261-7.403 4.923-13.989 2.42-19.601 0 0-4.928-6.853-6.53-8.207l-45.949 39.84z"/>
        <path fill="#FFCB04" d="M94.8 26.494c6.658 7.948 1.661 23.074-11.16 33.784-12.82 10.71-28.612 12.95-35.27 5.002-6.658-7.949-1.662-23.075 11.16-33.785 12.82-10.71 28.611-12.95 35.27-5.001"/>
        <path fill="#CA952B" d="M51.127 61.987s-7.093-12.53 10.6-27.32c17.694-14.788 28.776-5.593 28.776-5.593s-5.229-7.536-19.142-2.218C56.053 32.706 50.83 45.55 50.83 45.55s-5.115 9.683.298 16.436"/>
        <path fill="#FEF2DE" d="M90.433 28.981s7.093 12.53-10.6 27.32c-17.694 14.79-28.776 5.594-28.776 5.594s5.228 7.536 19.142 2.218c15.308-5.85 20.531-18.695 20.531-18.695s5.116-9.684-.297-16.437"/>
        <path fill="#EBAA20" d="M48.642 65.89l4.403 5.206c.55.651 6.647 6.725 20.356 1.964 13.328-4.627 19.78-12.524 23.298-18.171 3.153-5.06 7.287-13.3 3.663-21.364 0 0-.375-1.15-4.786-6.154 0 0 5.623 6.389-.006 18.247C89.94 57.478 76.5 67.47 66.993 69.264c-9.508 1.792-14.61.483-18.351-3.375"/>
        <path fill="#FEF2DE" d="M72.738 47.409c-1.184.984-2.632 1.21-3.227.504-.595-.707-.115-2.083 1.07-3.068 1.183-.984 2.63-1.21 3.226-.503.595.707.115 2.083-1.07 3.067m-8.284-9.842c-6.941 5.77-9.75 13.837-6.263 17.981 3.487 4.144 11.972 2.82 18.913-2.951a26.671 26.671 0 0 0 3.234-3.183c.017-.02.03-.041.047-.062.027-.035.054-.069.078-.104a2.55 2.55 0 0 0 .12-.205c.019-.037.035-.073.048-.11a1.072 1.072 0 0 0 .075-.29.754.754 0 0 0-.022-.266.465.465 0 0 0-.07-.15c-.01-.013-.014-.028-.024-.04l-6.456-7.67c-1.173-1.394-4.026-.949-6.36.992-1.235 1.026-2.134 2.319-2.47 3.547-.157.573.223.925.849.787.625-.14 1.258-.716 1.415-1.289.17-.623.626-1.28 1.253-1.8 1.136-.944 2.512-1.188 3.147-.583a8.42 8.42 0 0 0-2.435 1.429c-2.335 1.94-3.28 4.654-2.106 6.046 1.172 1.394 4.025.949 6.36-.992a8.384 8.384 0 0 0 1.85-2.139l2.457 2.92a22.765 22.765 0 0 1-2.037 1.916c-5.792 4.815-12.87 5.92-15.78 2.463s-.566-10.187 5.226-15.002c5.791-4.816 12.87-5.92 15.78-2.463 1.268 1.507 1.585 3.718.894 6.227-.158.574.22.928.845.79.625-.137 1.26-.713 1.418-1.286.829-3.008.449-5.66-1.071-7.465-3.488-4.144-11.973-2.82-18.915 2.952"/>
        <path fill="#C0604C" d="M76.213 127.15s9.517 4.188 39.404-6.031c29.887-10.219 48.587-19.6 52.26-33.506 3.673-13.904.5-25.129-7.514-31.997-8.014-6.869-16.967-16.17-16.967-16.17s-28.419 24.83-75.434 31.39c0 0 6.445 10.895 8.435 14.086 1.99 3.192 4.475 6.574 5.16 7.957.683 1.385 2.642 3.93 1.577 19.52-1.066 15.587-6.92 14.751-6.92 14.751"/>
        <path stroke="#8D3A2F" stroke-width="1.558" d="M76.213 127.15s9.517 4.188 39.404-6.031c29.887-10.219 48.587-19.6 52.26-33.506 3.673-13.904.5-25.129-7.514-31.997-8.014-6.869-16.967-16.17-16.967-16.17s-28.419 24.83-75.434 31.39c0 0 6.445 10.895 8.435 14.086 1.99 3.192 4.475 6.574 5.16 7.957.683 1.385 2.642 3.93 1.577 19.52-1.066 15.587-6.92 14.751-6.92 14.751z"/>
        <path fill="#AF5141" d="M160.355 55.547s-.837 15.543-22.257 26.575c-21.42 11.03-56.73 10.601-56.73 10.601s3.304 3.941 1.58 19.473c-1.723 15.531-6.935 14.718-6.935 14.718s8.508 3.53 26.575-2.136c18.066-5.666 45.217-14.348 57.767-25.66 12.552-11.314 11.548-35.716 0-43.57"/>
        <path fill="#7B8184" d="M42.526 38.78s-4.533-.332-4.914 5.41c-.381 5.74 6.845 14.746 15.055 20.603 0 0-4.504 1.613-3.74 6.855 0 0-11.951-10.11-17.163-17.224-5.212-7.114-4.832-14.104-2.034-17.848 2.797-3.744 8.86-8.705 16.36-9.205 0 0-3.346 3.395-3.564 11.41"/>
        <path stroke="#595959" stroke-linecap="round" stroke-linejoin="round" stroke-width="1.558" d="M42.526 38.78s-4.533-.332-4.914 5.41c-.381 5.74 6.845 14.746 15.055 20.603 0 0-4.504 1.613-3.74 6.855 0 0-11.951-10.11-17.163-17.224-5.212-7.114-4.832-14.104-2.034-17.848 2.797-3.744 8.86-8.705 16.36-9.205 0 0-3.346 3.395-3.564 11.41z"/>
        <path fill="#8D3A2F" d="M41.622 117.303s26.399 10.058 34.368 9.89c7.969-.168 8.799-29.526 5.312-34.292-3.486-4.766-13.517-22.058-13.517-22.058L49.814 72s-2.966 15.69-6.188 20.13c-3.221 4.439-2.004 25.172-2.004 25.172"/>
        <path stroke="#712312" stroke-width="1.558" d="M41.622 117.303s26.399 10.058 34.368 9.89c7.969-.168 8.799-29.526 5.312-34.292-3.486-4.766-13.517-22.058-13.517-22.058L49.814 72s-2.966 15.69-6.188 20.13c-3.221 4.439-2.004 25.172-2.004 25.172z"/>
        <path fill="#FEFEFE" d="M133.17 43.864l-5.244 6.354s-3.219 3.386-10.298 3.7c-7.078.313-13.917-3.142-18.842-5.89-4.925-2.75-11.413-8.793-15.674-16.195-4.262-7.402-4.923-13.99-2.42-19.6 0 0 4.927-6.853 6.53-8.208l45.948 39.839z"/>
        <g transform="translate(83.258)">
            <mask id="b" fill="#fff">
                <use xlink:href="#a"/>
            </mask>
            <path fill="#FFCB04" d="M3.393 4.805C-3.31 12.793 1.72 27.998 14.626 38.763 27.53 49.53 43.426 51.78 50.128 43.79 56.83 35.8 51.8 20.597 38.895 9.83 25.99-.934 10.095-3.183 3.393 4.806" mask="url(#b)"/>
        </g>
        <path fill="#CA952B" d="M129.88 40.252s7.093-12.53-10.6-27.32c-17.695-14.79-28.777-5.594-28.777-5.594s5.229-7.536 19.142-2.219c15.309 5.852 20.532 18.696 20.532 18.696s5.115 9.684-.297 16.437"/>
        <path fill="#FEF2DE" d="M90.573 7.245s-7.093 12.53 10.6 27.32c17.695 14.79 28.777 5.594 28.777 5.594s-5.23 7.536-19.142 2.218c-15.309-5.85-20.532-18.696-20.532-18.696s-5.115-9.683.297-16.436"/>
        <path fill="#EBAA20" d="M132.365 44.154l-4.403 5.207c-.55.65-6.648 6.724-20.357 1.964-13.328-4.628-19.78-12.524-23.298-18.172-3.153-5.06-7.286-13.3-3.663-21.363 0 0 .376-1.152 4.786-6.155 0 0-5.622 6.388.006 18.248 5.63 11.86 19.069 21.851 28.577 23.645 9.508 1.793 14.61.483 18.352-3.374"/>
        <path fill="#FEF2DE" d="M107.2 22.605c.595-.706 2.042-.48 3.227.504 1.184.985 1.664 2.361 1.069 3.069-.596.706-2.043.48-3.227-.505-1.185-.984-1.664-2.36-1.069-3.068m-9.562-9.725c-1.52 1.806-1.9 4.456-1.07 7.465.158.573.793 1.148 1.418 1.286.625.137 1.003-.217.844-.79-.69-2.51-.374-4.721.895-6.228 2.909-3.456 9.988-2.352 15.78 2.463 5.791 4.815 8.136 11.546 5.225 15.003-2.909 3.457-9.989 2.352-15.78-2.463a22.685 22.685 0 0 1-2.037-1.917l2.457-2.92a8.37 8.37 0 0 0 1.85 2.14c2.335 1.94 5.188 2.386 6.361.992 1.173-1.394.228-4.106-2.107-6.047a8.443 8.443 0 0 0-2.435-1.429c.636-.605 2.012-.361 3.147.583.626.521 1.083 1.177 1.253 1.8.157.574.79 1.15 1.416 1.288.625.14 1.005-.213.849-.786-.336-1.228-1.236-2.52-2.47-3.546-2.334-1.941-5.187-2.387-6.36-.993l-6.456 7.671c-.01.012-.015.027-.023.039a.514.514 0 0 0-.046.077.648.648 0 0 0-.048.339.987.987 0 0 0 .041.197 1.316 1.316 0 0 0 .136.302 1.343 1.343 0 0 0 .145.21c.016.021.029.042.046.063.964 1.129 2.052 2.199 3.234 3.182 6.941 5.771 15.426 7.095 18.913 2.952 3.488-4.144.678-12.21-6.264-17.982-6.941-5.771-15.426-7.096-18.914-2.951"/>
        <path fill="#7B8184" d="M48.802 71.768s-1.51-6.816 6.548-7.573c8.06-.757 37.524-4.796 46.338-12.37 0 0-5.965-9.919 5.876-15.062 10.074-4.376 13.012 6.984 13.012 6.984s12.34-6.169 15.11-10.027c2.77-3.858-2.267-11.18-2.267-11.18s11.837.254 13.348 9.594c1.51 9.34-16.37 21.206-47.094 32.061s-34.25 4.797-44.07 8.836c0 0 4.154 5.049 3.273 10.98-.881 5.934-3.148 8.71-10.83 9.342-7.42.61-9.065-8.078-9.065-8.078s1.762 2.902 7.932 2.777c6.17-.127 6.914-6.396 6.788-8.668-.125-2.272-4.899-7.616-4.899-7.616"/>
        <path stroke="#595959" stroke-linecap="round" stroke-linejoin="round" stroke-width="1.558" d="M48.802 71.768s-1.51-6.816 6.548-7.573c8.06-.757 37.524-4.796 46.338-12.37 0 0-5.965-9.919 5.876-15.062 10.074-4.376 13.012 6.984 13.012 6.984s12.34-6.169 15.11-10.027c2.77-3.858-2.267-11.18-2.267-11.18s11.837.254 13.348 9.594c1.51 9.34-16.37 21.206-47.094 32.061s-34.25 4.797-44.07 8.836c0 0 4.154 5.049 3.273 10.98-.881 5.934-3.148 8.71-10.83 9.342-7.42.61-9.065-8.078-9.065-8.078s1.762 2.902 7.932 2.777c6.17-.127 6.914-6.396 6.788-8.668-.125-2.272-4.899-7.616-4.899-7.616z"/>
        <path fill="#7B8184" d="M54.277 80.906a8.453 8.453 0 1 1-16.905 0 8.453 8.453 0 0 1 16.905 0"/>
        <path stroke="#595959" stroke-width="1.558" d="M54.277 80.906a8.453 8.453 0 1 1-16.905 0 8.453 8.453 0 0 1 16.905 0z"/>
        <path fill="#7B8184" d="M120.29 45.082c0 5.78-4.687 10.465-10.466 10.465-5.78 0-10.466-4.685-10.466-10.465s4.686-10.466 10.466-10.466c5.78 0 10.465 4.686 10.465 10.466"/>
        <path stroke="#595959" stroke-width="1.558" d="M120.29 45.082c0 5.78-4.687 10.465-10.466 10.465-5.78 0-10.466-4.685-10.466-10.465s4.686-10.466 10.466-10.466c5.78 0 10.465 4.686 10.465 10.466z"/>
        <path fill="#595959" d="M42.543 33.811s-6.993 1.545-8.903 6.63c-1.91 5.085 5.673 16.563 16.922 24.767l1.3-.65s-6.938-5.056-10.63-10.49c-3.692-5.435-3.75-7.556-3.904-8.781-.154-1.226-.08-6.52 4.641-6.607l.574-4.869zM118.332 39.447s-1.056 15.007-14.948 14.563c0 0 8.405 6.216 14.532-1.606 5.085-6.491.416-12.957.416-12.957M38.981 85.35s5.15 1.768 9.915-2.005c4.765-3.773 3.575-7.672 3.575-7.672s4.738 6.34-1.135 11.375c-5.873 5.034-11.263.612-12.355-1.699"/>
        <path fill="#595959" d="M48.458 63.597s-1.985 3.87-1.272 6.945l1.157 1.106s-1.113-4.943 3.519-6.969l-3.404-1.082zM55.082 72.453s1.987-2.891 9.34-3.46c7.353-.567 14.604-.46 31.8-6.572S124.365 52.407 136.6 43.26c12.235-9.149 7.408-15.888 7.408-15.888s7.125 6.509-5.24 16.65c-12.364 10.142-43.558 20.95-43.558 20.95s-18.517 5.802-26.236 5.7c-7.717-.1-12.127.876-13.892 1.782"/>
    </g>
</svg>
