<svg xmlns="http://www.w3.org/2000/svg" xmlns:xlink="http://www.w3.org/1999/xlink" width="501" height="270" viewBox="0 0 501 270">
    <defs>
        <path id="a" d="M0 .013h122.49v53.79H0z"/>
        <path id="c" d="M0 .041h122.46v49H0z"/>
        <path id="e" d="M.305.16H117.77v81.528H.305z"/>
        <path id="g" d="M.166.013h122.92v53.796H.166z"/>
        <path id="i" d="M.161.309h122.921v53.405H.162z"/>
        <path id="k" d="M0 .08h119.666v79.377H0z"/>
    </defs>
    <g fill="none" fill-rule="evenodd" transform="translate(0 2)">
        <ellipse cx="79" cy="250" fill="#6C6C6C" fill-opacity=".458" rx="77" ry="18"/>
        <ellipse cx="242" cy="250" fill="#6C6C6C" fill-opacity=".458" rx="71" ry="18"/>
        <ellipse cx="400" cy="250" fill="#6C6C6C" fill-opacity=".458" rx="71" ry="18"/>
        <g transform="translate(0 213.027)">
            <mask id="b" fill="#fff">
                <use xlink:href="#a"/>
            </mask>
            <path fill="#FEFEFE" d="M.093 2.064L0 18.59s.602 9.353 11.116 18.956c10.514 9.604 25.51 13.1 36.645 15.222 11.136 2.12 28.922 1.188 45.028-4.703 16.104-5.89 25.607-15.164 28.973-27.019 0 0 1.225-16.885.496-21.033L.093 2.064z" mask="url(#b)"/>
        </g>
        <path fill="#DA7927" d="M121.333 215.95c0 20.995-27.161 38.014-60.666 38.014C27.162 253.964 0 236.945 0 215.951s27.162-38.014 60.667-38.014 60.666 17.02 60.666 38.014"/>
        <path fill="#A95D26" d="M9.333 214.196s5.269-28.853 51.917-28.853 51.898 28.853 51.898 28.853 1.676-18.61-26.81-28.477c-31.342-10.855-56.123 2.398-56.123 2.398s-20.508 8.453-20.882 26.08"/>
        <path fill="#FAB98C" d="M113.167 213.027s-5.269 28.853-51.917 28.853-51.898-28.853-51.898-28.853-1.676 18.61 26.81 28.477c31.342 10.855 56.123-2.398 56.123-2.398s20.508-8.452 20.882-26.08"/>
        <g transform="translate(0 217.705)">
            <mask id="d" fill="#fff">
                <use xlink:href="#c"/>
            </mask>
            <path fill="#A95D26" d="M0 .041v13.79c0 1.723 2.706 19.453 28.78 29.302 26.075 9.85 47.967 5.171 59.528 1.724 11.562-3.447 28.534-11.327 33.454-28.564 0 0 .922-2.278.646-15.76 0 0 .338 17.203-23.769 28.424-24.106 11.221-57.806 9.463-74.778 0C6.888 19.494.738 10.876 0 .041" mask="url(#d)"/>
        </g>
        <path fill="#FAB98C" d="M62.417 220.355c-3.128 0-5.672-1.522-5.672-3.393 0-1.87 2.544-3.392 5.672-3.392 3.128 0 5.672 1.522 5.672 3.392 0 1.87-2.544 3.393-5.672 3.393m0-26.042c-18.334 0-33.25 8.92-33.25 19.883 0 10.965 14.916 19.884 33.25 19.884 3.121 0 6.211-.258 9.186-.769.054-.01.1-.025.153-.036.088-.019.175-.038.259-.062a3.838 3.838 0 0 0 .453-.161 2.855 2.855 0 0 0 .571-.34 1.639 1.639 0 0 0 .377-.41 1.229 1.229 0 0 0 .137-.306.969.969 0 0 0 .03-.178c.003-.03.015-.06.015-.09V211.43c0-3.687-5.016-6.686-11.181-6.686-3.259 0-6.348.847-8.476 2.325-.992.69-.862 1.73.29 2.323 1.154.593 2.892.516 3.885-.174 1.08-.75 2.648-1.18 4.301-1.18 3 0 5.457 1.4 5.653 3.165-1.66-.585-3.59-.927-5.653-.927-6.166 0-11.181 3-11.181 6.686 0 3.688 5.015 6.687 11.181 6.687 2.072 0 4.007-.345 5.672-.934v7.723c-1.857.23-3.757.348-5.672.348-15.297 0-27.742-7.442-27.742-16.59 0-9.147 12.445-16.59 27.742-16.59 15.296 0 27.74 7.443 27.74 16.59 0 3.987-2.398 7.84-6.754 10.85-.995.689-.87 1.729.28 2.324 1.15.595 2.89.52 3.885-.168 5.222-3.608 8.099-8.227 8.099-13.006 0-10.964-14.916-19.883-33.25-19.883"/>
        <path fill="#FEFEFE" d="M5.927 192.855l-.094 16.53s.603 9.356 11.118 18.961c10.515 9.606 25.511 13.104 36.647 15.225 11.137 2.122 28.926 1.188 45.032-4.703 16.106-5.892 25.61-15.169 28.975-27.026 0 0 1.226-16.89.497-21.038L5.927 192.855z"/>
        <path fill="#DA7927" d="M66.5 232.273c-33.505 0-60.667-18.72-60.667-39.715 0-20.994 27.162-38.013 60.667-38.013s60.667 17.019 60.667 38.013-27.161 39.715-60.667 39.715z"/>
        <path fill="#A95D26" d="M15.167 191.973s5.268-28.853 51.916-28.853c46.648 0 51.898 28.853 51.898 28.853s1.676-18.611-26.81-28.477c-31.342-10.855-56.123 2.398-56.123 2.398s-20.508 8.452-20.881 26.08"/>
        <path fill="#FAB98C" d="M119 191.973s-5.269 28.853-51.917 28.853-51.898-28.853-51.898-28.853-1.675 18.611 26.81 28.477c31.342 10.856 56.123-2.397 56.123-2.397s20.509-8.453 20.882-26.08"/>
        <path fill="#A95D26" d="M5.833 196.652v13.824c0 1.729 2.707 19.503 28.79 29.378s47.983 5.185 59.548 1.728c11.565-3.456 28.543-11.356 33.465-28.637 0 0 .922-2.283.646-15.8 0 0 .338 17.247-23.776 28.497-24.115 11.25-57.826 9.487-74.804 0-16.979-9.487-23.13-18.128-23.869-28.99"/>
        <path fill="#FAB98C" d="M68.25 198.132c-3.128 0-5.672-1.522-5.672-3.393 0-1.87 2.544-3.392 5.672-3.392 3.128 0 5.673 1.522 5.673 3.392 0 1.87-2.545 3.393-5.673 3.393m0-26.043c-18.334 0-33.25 8.92-33.25 19.884s14.916 19.884 33.25 19.884c3.122 0 6.212-.259 9.186-.769.054-.01.101-.025.153-.036.089-.02.175-.039.26-.062.083-.024.163-.05.241-.079a3.077 3.077 0 0 0 .432-.19 2.151 2.151 0 0 0 .496-.357 1.648 1.648 0 0 0 .232-.286 1.252 1.252 0 0 0 .136-.305.969.969 0 0 0 .03-.178c.003-.03.015-.06.015-.091v-20.297c0-3.687-5.015-6.687-11.18-6.687-3.26 0-6.348.848-8.476 2.326-.993.69-.863 1.73.29 2.323s2.891.516 3.884-.174c1.08-.75 2.648-1.18 4.301-1.18 3 0 5.457 1.4 5.654 3.165-1.662-.585-3.59-.927-5.654-.927-6.165 0-11.18 2.999-11.18 6.686s5.015 6.687 11.18 6.687c2.072 0 4.007-.345 5.673-.935v7.724c-1.858.23-3.757.348-5.673.348-15.296 0-27.741-7.442-27.741-16.59 0-9.147 12.445-16.59 27.741-16.59 15.297 0 27.741 7.443 27.741 16.59 0 3.987-2.399 7.84-6.755 10.85-.995.688-.87 1.729.28 2.324 1.15.595 2.89.52 3.886-.168 5.222-3.608 8.098-8.228 8.098-13.006 0-10.964-14.916-19.884-33.25-19.884"/>
        <path fill="#FEFEFE" d="M30.515 158.054l-5.548 15.468s-2.525 8.972 4.168 21.442 19.61 20.69 29.359 26.348c9.749 5.657 26.748 10.642 43.808 10.422 17.059-.22 29.04-5.787 36.116-15.797 0 0 6.73-15.433 7.415-19.564l-115.318-38.32z"/>
        <g transform="translate(29.167 137)">
            <mask id="f" fill="#fff">
                <use xlink:href="#e"/>
            </mask>
            <path fill="#DA7927" d="M45.955 76.868C11.366 63.876-5.25 40.42 1.668 20.836 8.585 1.25 39.878-5.632 71.562 5.462c31.684 11.095 51.761 35.965 44.845 55.55-6.917 19.586-35.864 28.848-70.452 15.856z" mask="url(#f)"/>
        </g>
        <path fill="#A95D26" d="M39.667 160.82s14.48-25.445 58.498-9.87c44.019 15.575 39.464 44.532 39.464 44.532s7.715-16.988-15.914-35.801c-25.997-20.7-53.75-16.478-53.75-16.478s-22.137 1.122-28.298 17.617"/>
        <path fill="#FAB98C" d="M137.667 195.055s-14.48 25.445-58.5 9.87c-44.018-15.575-39.463-44.532-39.463-44.532s-7.714 16.988 15.914 35.801c25.998 20.7 53.75 16.478 53.75 16.478s22.138-1.122 28.299-17.617"/>
        <path fill="#A95D26" d="M29.585 160.393l-4.56 12.945c-.57 1.618-3.887 19.156 17.404 37.019 21.29 17.863 43.45 20.706 55.474 21.29 12.025.585 30.61-1.203 40.943-15.759 0 0 1.622-1.833 5.82-14.58 0 0-5.37 16.26-31.777 18.828-26.407 2.567-57.553-10.22-70.403-24.713-12.85-14.492-15.79-24.615-12.9-35.03"/>
        <path fill="#FAB98C" d="M88.364 182.362c-2.953-1.044-4.848-3.343-4.224-5.125.623-1.782 3.533-2.383 6.486-1.34 2.952 1.044 4.847 3.343 4.224 5.125-.624 1.782-3.534 2.383-6.486 1.34m8.682-24.813c-17.307-6.117-34.361-2.594-38.017 7.852-3.655 10.447 7.452 23.922 24.758 30.039a54.07 54.07 0 0 0 8.928 2.332c.054.009.104.009.157.016.09.011.178.022.265.027a3.441 3.441 0 0 0 .725-.032 2.278 2.278 0 0 0 .587-.174 1.724 1.724 0 0 0 .315-.194 1.254 1.254 0 0 0 .23-.246c.035-.05.063-.104.088-.16.013-.028.034-.052.045-.08l6.767-19.34c1.23-3.513-2.505-8.044-8.325-10.101-3.077-1.087-6.275-1.31-8.777-.612-1.166.325-1.39 1.36-.5 2.31.89.95 2.557 1.456 3.724 1.13 1.27-.354 2.894-.241 4.454.31 2.832 1.001 4.684 3.155 4.281 4.903-1.372-1.113-3.079-2.082-5.027-2.77-5.82-2.057-11.555-.873-12.784 2.64-1.23 3.513 2.505 8.045 8.325 10.102 1.956.69 3.898 1.008 5.667 1.002l-2.575 7.359c-1.83-.4-3.663-.922-5.471-1.561-14.44-5.104-23.706-16.346-20.657-25.062 3.05-8.716 17.279-11.655 31.719-6.552 14.44 5.104 23.706 16.346 20.656 25.062-1.33 3.798-4.879 6.67-9.994 8.084-1.17.324-1.398 1.357-.51 2.308.887.95 2.553 1.46 3.723 1.136 6.133-1.696 10.388-5.138 11.98-9.69 3.656-10.447-7.45-23.922-24.757-30.038"/>
        <g>
            <g transform="translate(172.743 213.046)">
                <mask id="h" fill="#fff">
                    <use xlink:href="#g"/>
                </mask>
                <path fill="#FEFEFE" d="M.26 2.064L.165 18.592S.77 27.946 11.32 37.55c10.55 9.605 25.599 13.102 36.774 15.223 11.175 2.121 29.024 1.188 45.185-4.703 16.162-5.89 25.698-15.166 29.076-27.021 0 0 1.23-16.888.498-21.036L.259 2.064z" mask="url(#h)"/>
            </g>
            <path fill="#D0D2D3" d="M294.87 215.385c0 20.663-27.339 37.415-61.064 37.415-33.724 0-61.063-16.752-61.063-37.415 0-20.664 27.339-37.416 61.063-37.416 33.725 0 61.064 16.752 61.064 37.416"/>
            <path fill="#A6A8AB" d="M182.137 214.215s5.363-28.842 52.844-28.842c47.48 0 52.825 28.842 52.825 28.842s1.705-18.604-27.289-28.467c-31.902-10.851-57.126 2.397-57.126 2.397s-20.874 8.45-21.254 26.07"/>
            <path fill="#E5E6E7" d="M287.824 214.215s-5.362 28.843-52.843 28.843-52.825-28.843-52.825-28.843-1.705 18.605 27.289 28.467c31.901 10.852 57.125-2.396 57.125-2.396s20.875-8.45 21.254-26.07"/>
            <path fill="#A6A8AB" d="M172.743 218.892v13.491c0 1.687 2.698 19.032 28.702 28.668 26.003 9.637 47.837 5.06 59.366 1.687 11.53-3.373 28.457-11.082 33.364-27.946 0 0 .92-2.228.644-15.418 0 0 .337 16.83-23.704 27.808-24.041 10.978-57.65 9.258-74.577 0-16.926-9.258-23.059-17.69-23.795-28.29"/>
            <path fill="#F0F0F1" d="M232.633 218.437c-3.094 0-5.61-1.477-5.61-3.292 0-1.815 2.516-3.291 5.61-3.291 3.093 0 5.609 1.476 5.609 3.291s-2.516 3.292-5.61 3.292m0-25.268c-18.13 0-32.88 8.655-32.88 19.292 0 10.638 14.75 19.293 32.88 19.293 3.087 0 6.143-.251 9.085-.746.053-.01.1-.025.15-.036a4.13 4.13 0 0 0 .257-.06 3.916 3.916 0 0 0 .448-.156 2.924 2.924 0 0 0 .39-.205 2.243 2.243 0 0 0 .318-.247 1.664 1.664 0 0 0 .23-.276 1.232 1.232 0 0 0 .135-.296.924.924 0 0 0 .03-.173c.002-.03.014-.058.014-.088v-19.693c0-3.578-4.96-6.488-11.056-6.488-3.223 0-6.278.822-8.382 2.256-.981.669-.853 1.678.287 2.254 1.14.575 2.86.5 3.841-.169 1.068-.727 2.618-1.145 4.254-1.145 2.966 0 5.395 1.36 5.59 3.072-1.643-.568-3.55-.9-5.59-.9-6.098 0-11.057 2.91-11.057 6.487 0 3.578 4.96 6.488 11.057 6.488 2.048 0 3.962-.335 5.609-.907v7.494a46.43 46.43 0 0 1-5.61.338c-15.126 0-27.433-7.22-27.433-16.097 0-8.875 12.307-16.096 27.434-16.096 15.126 0 27.432 7.22 27.432 16.096 0 3.869-2.372 7.607-6.68 10.528-.984.667-.86 1.677.277 2.254 1.137.578 2.857.505 3.842-.162 5.164-3.502 8.009-7.984 8.009-12.62 0-10.637-14.75-19.292-32.88-19.292"/>
            <path fill="#FEFEFE" d="M166.965 194.05l-.093 16.525s.6 9.352 11.083 18.954c10.483 9.603 25.433 13.1 36.536 15.22 11.103 2.12 28.837 1.188 44.894-4.702s25.532-15.163 28.888-27.016c0 0 1.222-16.883.495-21.031l-121.803 2.05z"/>
            <path fill="#D0D2D3" d="M290.173 193.754c0 20.987-27.34 38-61.064 38-33.724 0-61.063-17.013-61.063-38s27.339-38 61.063-38c33.725 0 61.064 17.013 61.064 38"/>
            <path fill="#A6A8AB" d="M176.266 193.17s5.362-28.844 52.843-28.844c47.482 0 52.825 28.843 52.825 28.843s1.706-18.604-27.288-28.467c-31.902-10.851-57.126 2.397-57.126 2.397s-20.874 8.45-21.254 26.07"/>
            <path fill="#E5E6E7" d="M281.953 193.17s-5.362 28.842-52.843 28.842c-47.482 0-52.825-28.843-52.825-28.843s-1.705 18.605 27.289 28.467c31.901 10.852 57.125-2.396 57.125-2.396s20.874-8.45 21.254-26.07"/>
            <path fill="#A6A8AB" d="M166.872 196.677v13.49c0 1.687 2.698 19.033 28.702 28.669 26.003 9.636 47.836 5.059 59.366 1.686 11.53-3.372 28.457-11.082 33.363-27.945 0 0 .92-2.229.644-15.418 0 0 .338 16.83-23.704 27.808-24.04 10.978-57.649 9.258-74.576 0-16.927-9.258-23.06-17.69-23.795-28.29"/>
            <path fill="#F0F0F1" d="M229.11 197.39c-3.093 0-5.61-1.476-5.61-3.29 0-1.816 2.517-3.292 5.61-3.292 3.093 0 5.609 1.476 5.609 3.291s-2.516 3.291-5.61 3.291m0-25.267c-18.13 0-32.88 8.654-32.88 19.292 0 10.638 14.75 19.293 32.88 19.293 3.087 0 6.143-.251 9.085-.747.053-.009.1-.024.15-.035.088-.018.174-.037.257-.06a3.928 3.928 0 0 0 .448-.156 2.925 2.925 0 0 0 .39-.205 2.307 2.307 0 0 0 .318-.247 1.552 1.552 0 0 0 .23-.276c.031-.05.057-.1.08-.152.021-.048.04-.095.055-.144a.924.924 0 0 0 .03-.173c.002-.03.015-.058.015-.088v-19.693c0-3.578-4.96-6.488-11.057-6.488-3.223 0-6.278.822-8.382 2.256-.981.669-.853 1.678.287 2.254 1.14.575 2.86.5 3.842-.169 1.067-.728 2.618-1.145 4.253-1.145 2.966 0 5.396 1.36 5.59 3.071-1.642-.568-3.55-.9-5.59-.9-6.097 0-11.057 2.91-11.057 6.488 0 3.578 4.96 6.488 11.057 6.488 2.048 0 3.962-.335 5.609-.907v7.494a46.42 46.42 0 0 1-5.61.337c-15.126 0-27.433-7.22-27.433-16.096 0-8.875 12.307-16.096 27.434-16.096 15.126 0 27.432 7.22 27.432 16.096 0 3.868-2.372 7.607-6.68 10.528-.984.667-.86 1.677.277 2.254 1.138.577 2.858.505 3.842-.163 5.164-3.501 8.009-7.983 8.009-12.619 0-10.638-14.75-19.292-32.88-19.292"/>
            <g transform="translate(178.615 169.785)">
                <mask id="j" fill="#fff">
                    <use xlink:href="#i"/>
                </mask>
                <path fill="#FEFEFE" d="M.255 2.345L.16 18.752s.605 9.287 11.156 18.822c10.55 9.534 25.598 13.006 36.773 15.112 11.175 2.106 29.025 1.18 45.186-4.669 16.162-5.848 25.698-15.056 29.076-26.825 0 0 1.23-16.765.498-20.883L.255 2.345z" mask="url(#j)"/>
            </g>
            <path fill="#D0D2D3" d="M300.742 173.292c0 20.664-27.34 37.416-61.064 37.416-33.724 0-61.063-16.752-61.063-37.416 0-20.664 27.339-37.415 61.063-37.415 33.725 0 61.064 16.751 61.064 37.415"/>
            <path fill="#A6A8AB" d="M189.183 173.292s5.363-28.842 52.844-28.842 52.824 28.842 52.824 28.842 1.706-18.604-27.289-28.467c-31.9-10.851-57.124 2.397-57.124 2.397s-20.875 8.45-21.255 26.07"/>
            <path fill="#E5E6E7" d="M294.87 170.954s-5.362 28.843-52.843 28.843-52.825-28.843-52.825-28.843-1.705 18.604 27.289 28.467c31.9 10.852 57.125-2.397 57.125-2.397s20.874-8.45 21.254-26.07"/>
            <path fill="#A6A8AB" d="M178.615 174.462v13.49c0 1.687 2.698 19.032 28.702 28.669 26.003 9.636 47.836 5.059 59.366 1.686 11.53-3.373 28.457-11.082 33.363-27.945 0 0 .92-2.229.644-15.419 0 0 .337 16.83-23.704 27.808-24.04 10.979-57.65 9.258-74.576 0-16.927-9.257-23.06-17.69-23.795-28.29"/>
            <path fill="#F0F0F1" d="M240.853 177.513c-3.094 0-5.61-1.476-5.61-3.29 0-1.816 2.516-3.292 5.61-3.292 3.093 0 5.61 1.476 5.61 3.291s-2.517 3.291-5.61 3.291m0-25.267c-18.13 0-32.881 8.655-32.881 19.292 0 10.638 14.75 19.293 32.88 19.293 3.087 0 6.143-.251 9.085-.746.053-.01.1-.025.15-.036a4.13 4.13 0 0 0 .257-.06 3.916 3.916 0 0 0 .448-.156 2.855 2.855 0 0 0 .39-.205 2.243 2.243 0 0 0 .318-.247 1.607 1.607 0 0 0 .23-.276 1.183 1.183 0 0 0 .135-.296.956.956 0 0 0 .03-.173c.002-.03.014-.058.014-.088v-19.693c0-3.578-4.96-6.488-11.056-6.488-3.223 0-6.277.822-8.382 2.256-.98.669-.853 1.678.287 2.254 1.14.575 2.86.5 3.841-.169 1.068-.727 2.619-1.145 4.254-1.145 2.966 0 5.395 1.36 5.59 3.071-1.643-.568-3.55-.9-5.59-.9-6.097 0-11.057 2.91-11.057 6.488 0 3.578 4.96 6.488 11.057 6.488 2.048 0 3.962-.335 5.61-.907v7.494a46.426 46.426 0 0 1-5.61.337c-15.127 0-27.434-7.22-27.434-16.096 0-8.875 12.307-16.096 27.434-16.096 15.126 0 27.432 7.22 27.432 16.096 0 3.868-2.372 7.607-6.68 10.528-.984.667-.86 1.677.278 2.254 1.137.578 2.856.505 3.841-.163 5.164-3.5 8.009-7.983 8.009-12.619 0-10.637-14.75-19.292-32.88-19.292"/>
            <path fill="#FEFEFE" d="M162.174 173.325l4.428 15.83s3.136 8.783 15.866 15.115c12.73 6.332 28.098 5.608 39.38 4.615 11.283-.993 28.124-6.711 41.992-16.714 13.868-10.004 20.467-21.453 20.462-33.704 0 0-3.438-16.482-5.273-20.252l-116.855 35.11z"/>
            <g transform="translate(161 116)">
                <mask id="l" fill="#fff">
                    <use xlink:href="#k"/>
                </mask>
                <path fill="#D0D2D3" d="M118.747 23.259c5.738 19.927-15.988 43.472-48.525 52.59-32.538 9.118-63.565.356-69.303-19.571C-4.82 36.35 16.907 12.805 49.445 3.687c32.537-9.118 63.565-.355 69.302 19.572" mask="url(#l)"/>
            </g>
            <path fill="#A6A8AB" d="M171.125 169.785s-2.805-28.748 42.773-41.382c45.579-12.635 58.66 13.264 58.66 13.264s-3.492-18.076-34.043-19.703c-33.615-1.79-54.176 17.47-54.176 17.47s-17.708 13.558-13.214 30.35"/>
            <path fill="#E5E6E7" d="M273.002 141.723s2.805 28.748-42.773 41.382c-45.579 12.634-58.66-13.265-58.66-13.265s3.492 18.077 34.043 19.704c33.615 1.79 54.176-17.47 54.176-17.47s17.708-13.559 13.214-30.35"/>
            <path fill="#A6A8AB" d="M163.349 175.187l3.744 12.978c.469 1.622 7.873 17.584 35.503 19.877 27.63 2.291 47.312-7.97 57.441-14.309 10.129-6.338 24.234-18.297 24.26-35.836 0 0 .265-2.39-3.661-15.005 0 0 4.996 16.1-15.029 33.112-20.024 17.012-52.755 24.376-71.569 20.012-18.814-4.364-27.04-10.83-30.69-20.83"/>
            <path fill="#F0F0F1" d="M222.542 159.73c-2.94.822-5.74.076-6.242-1.664-.501-1.74 1.483-3.826 4.423-4.649s5.74-.076 6.242 1.664c.501 1.74-1.483 3.825-4.423 4.648m-6.983-24.227c-17.233 4.824-28.861 17.047-25.921 27.247 2.94 10.2 19.352 14.573 36.585 9.75a53.555 53.555 0 0 0 8.428-3.133c.049-.023.088-.05.134-.074a3.274 3.274 0 0 0 .433-.262 2.59 2.59 0 0 0 .354-.291c.048-.048.094-.094.137-.142a2.338 2.338 0 0 0 .233-.321 1.636 1.636 0 0 0 .143-.326c.016-.057.026-.112.034-.168.007-.051.013-.102.012-.152a.951.951 0 0 0-.02-.174c-.005-.03-.001-.06-.01-.089l-5.442-18.882c-.989-3.43-6.508-4.901-12.303-3.28-3.063.859-5.74 2.46-7.343 4.394-.748.903-.347 1.836.896 2.085 1.242.248 2.856-.28 3.604-1.183.815-.983 2.173-1.795 3.727-2.23 2.82-.79 5.504-.133 6.162 1.457-1.718-.108-3.622.082-5.563.625-5.795 1.622-9.705 5.732-8.716 9.162.988 3.43 6.507 4.901 12.303 3.279 1.947-.545 3.674-1.375 5.081-2.362l2.071 7.185a45.33 45.33 0 0 1-5.238 1.817c-14.379 4.025-28.072.375-30.524-8.135-2.453-8.51 7.248-18.708 21.626-22.733 14.378-4.024 28.071-.375 30.524 8.135 1.069 3.709-.153 7.925-3.44 11.872-.751.901-.354 1.836.886 2.087 1.241.251 2.855-.276 3.607-1.178 3.94-4.731 5.406-9.785 4.124-14.23-2.94-10.2-19.351-14.574-36.584-9.75"/>
        </g>
        <g>
            <path fill="#FEFEFE" d="M325.953 217.315l-.092 16.189s.594 9.163 10.956 18.57c10.363 9.408 25.143 12.834 36.118 14.911 10.976 2.078 28.507 1.164 44.38-4.606 15.874-5.77 25.24-14.856 28.558-26.468 0 0 1.207-16.542.489-20.605l-120.41 2.01z"/>
            <path fill="#FFCB04" d="M445.418 217.062c0 20.372-26.764 36.886-59.779 36.886s-59.778-16.514-59.778-36.886c0-20.371 26.763-36.886 59.778-36.886s59.779 16.515 59.779 36.886"/>
            <path fill="#CA952B" d="M335.238 216.477s5.174-27.855 50.987-27.855c45.814 0 50.97 27.855 50.97 27.855s1.645-17.967-26.33-27.492c-30.782-10.48-55.12 2.315-55.12 2.315s-20.14 8.16-20.507 25.177"/>
            <path fill="#FEF2DE" d="M437.213 216.477s-5.174 27.854-50.988 27.854c-45.813 0-50.97-27.854-50.97-27.854s-1.645 17.967 26.331 27.491c30.781 10.48 55.12-2.314 55.12-2.314s20.14-8.16 20.507-25.177"/>
            <path fill="#EBAA20" d="M325.86 219.99v13.51c0 1.69 2.668 19.061 28.374 28.712 25.706 9.65 47.29 5.067 58.687 1.689 11.398-3.378 28.131-11.098 32.982-27.988 0 0 .909-2.231.636-15.44 0 0 .333 16.854-23.432 27.85-23.766 10.994-56.99 9.27-73.723 0-16.733-9.273-22.796-17.718-23.523-28.333"/>
            <path fill="#FEF2DE" d="M386.226 220.704c-3.033 0-5.5-1.478-5.5-3.296 0-1.818 2.467-3.296 5.5-3.296 3.032 0 5.499 1.478 5.499 3.296 0 1.818-2.467 3.296-5.5 3.296m0-25.305c-17.773 0-32.233 8.668-32.233 19.321 0 10.654 14.46 19.321 32.234 19.321 3.025 0 6.021-.251 8.905-.747.053-.009.098-.025.148-.035a3.35 3.35 0 0 0 .486-.137c.07-.025.139-.051.205-.08a3.15 3.15 0 0 0 .382-.205 2.026 2.026 0 0 0 .435-.384 1.218 1.218 0 0 0 .234-.437.943.943 0 0 0 .029-.173c.003-.03.015-.058.015-.088v-19.722c0-3.583-4.862-6.498-10.84-6.498-3.159 0-6.153.824-8.216 2.26-.962.67-.836 1.68.281 2.257 1.118.576 2.803.501 3.766-.169 1.047-.729 2.567-1.147 4.17-1.147 2.908 0 5.29 1.361 5.48 3.076-1.61-.57-3.48-.901-5.48-.901-5.978 0-10.84 2.914-10.84 6.497 0 3.583 4.862 6.497 10.84 6.497 2.008 0 3.884-.335 5.499-.908v7.505c-1.8.224-3.643.338-5.5.338-14.829 0-26.893-7.231-26.893-16.12 0-8.888 12.064-16.12 26.894-16.12 14.828 0 26.893 7.232 26.893 16.12 0 3.874-2.326 7.618-6.55 10.543-.964.669-.842 1.68.273 2.258 1.115.578 2.8.506 3.766-.163 5.063-3.506 7.851-7.995 7.851-12.638 0-10.653-14.46-19.321-32.233-19.321"/>
            <path fill="#FEFEFE" d="M328.297 202.092l-.092 16.19s.594 9.162 10.957 18.57c10.363 9.407 25.142 12.833 36.117 14.91 10.976 2.078 28.507 1.164 44.381-4.606 15.873-5.77 25.24-14.856 28.557-26.468 0 0 1.208-16.542.49-20.605l-120.41 2.01z"/>
            <path fill="#FFCB04" d="M447.762 201.84c0 20.37-26.764 36.885-59.778 36.885-33.015 0-59.78-16.514-59.78-36.886 0-20.371 26.765-36.886 59.78-36.886 33.014 0 59.778 16.515 59.778 36.886"/>
            <path fill="#CA952B" d="M336.41 201.254s5.174-27.854 50.988-27.854c45.813 0 50.969 27.854 50.969 27.854s1.646-17.967-26.33-27.492c-30.781-10.48-55.12 2.315-55.12 2.315s-20.14 8.16-20.507 25.177"/>
            <path fill="#FEF2DE" d="M438.385 201.254s-5.174 27.854-50.988 27.854c-45.813 0-50.969-27.854-50.969-27.854s-1.646 17.967 26.33 27.492c30.781 10.48 55.12-2.315 55.12-2.315s20.14-8.16 20.507-25.177"/>
            <path fill="#EBAA20" d="M328.205 204.767v13.51c0 1.69 2.667 19.061 28.373 28.712 25.707 9.65 47.29 5.067 58.687 1.689 11.399-3.378 28.132-11.098 32.982-27.987 0 0 .91-2.232.636-15.442 0 0 .334 16.855-23.432 27.85-23.766 10.995-56.99 9.272-73.723 0-16.733-9.272-22.796-17.716-23.523-28.332"/>
            <path fill="#FEF2DE" d="M388.57 206.652c-3.032 0-5.5-1.478-5.5-3.296 0-1.817 2.468-3.296 5.5-3.296s5.499 1.479 5.499 3.296c0 1.818-2.467 3.296-5.499 3.296m0-25.305c-17.774 0-32.234 8.668-32.234 19.321 0 10.654 14.46 19.322 32.234 19.322 3.026 0 6.022-.252 8.905-.748.053-.009.098-.024.148-.035a3.495 3.495 0 0 0 .903-.322 2.02 2.02 0 0 0 .604-.483 1.169 1.169 0 0 0 .18-.293c.023-.048.042-.095.055-.144a.943.943 0 0 0 .03-.174c.002-.03.014-.057.014-.088v-19.722c0-3.583-4.862-6.498-10.839-6.498-3.16 0-6.154.824-8.217 2.26-.962.67-.836 1.68.282 2.257 1.118.576 2.803.501 3.765-.169 1.047-.729 2.567-1.147 4.17-1.147 2.908 0 5.29 1.361 5.48 3.076-1.61-.569-3.48-.901-5.48-.901-5.977 0-10.84 2.915-10.84 6.497 0 3.583 4.863 6.497 10.84 6.497 2.008 0 3.885-.335 5.499-.907v7.504c-1.8.225-3.642.338-5.499.338-14.83 0-26.893-7.231-26.893-16.12 0-8.888 12.064-16.12 26.893-16.12s26.893 7.232 26.893 16.12c0 3.874-2.326 7.619-6.549 10.543-.965.67-.843 1.68.272 2.258 1.115.579 2.8.506 3.766-.163 5.063-3.506 7.851-7.995 7.851-12.638 0-10.653-14.46-19.32-32.233-19.32"/>
            <path fill="#FEFEFE" d="M323.608 182.186l-.092 16.189s.594 9.162 10.957 18.57c10.363 9.408 25.143 12.833 36.118 14.91 10.976 2.079 28.507 1.165 44.38-4.606 15.874-5.77 25.24-14.856 28.557-26.468 0 0 1.208-16.542.49-20.605l-120.41 2.01z"/>
            <path fill="#FFCB04" d="M443.074 181.933c0 20.371-26.764 36.886-59.779 36.886s-59.779-16.515-59.779-36.886c0-20.372 26.764-36.886 59.78-36.886 33.014 0 59.778 16.514 59.778 36.886"/>
            <path fill="#CA952B" d="M332.893 181.347s5.175-27.854 50.988-27.854c45.814 0 50.97 27.854 50.97 27.854s1.645-17.967-26.33-27.491c-30.782-10.48-55.12 2.314-55.12 2.314s-20.141 8.16-20.508 25.177"/>
            <path fill="#FEF2DE" d="M434.869 181.347s-5.174 27.855-50.988 27.855-50.97-27.855-50.97-27.855-1.645 17.967 26.33 27.492c30.782 10.48 55.12-2.315 55.12-2.315s20.141-8.16 20.508-25.177"/>
            <path fill="#EBAA20" d="M323.516 184.86v13.511c0 1.69 2.668 19.06 28.374 28.712 25.706 9.65 47.29 5.066 58.687 1.688 11.398-3.377 28.131-11.098 32.981-27.987 0 0 .91-2.232.637-15.441 0 0 .333 16.855-23.433 27.85-23.765 10.994-56.989 9.271-73.722 0-16.733-9.272-22.796-17.717-23.524-28.333"/>
            <path fill="#FEF2DE" d="M385.054 186.746c-3.033 0-5.5-1.48-5.5-3.297 0-1.817 2.467-3.296 5.5-3.296 3.032 0 5.498 1.479 5.498 3.296 0 1.818-2.466 3.297-5.498 3.297m0-25.306c-17.774 0-32.234 8.668-32.234 19.322 0 10.653 14.46 19.32 32.234 19.32 3.025 0 6.021-.25 8.905-.746.052-.01.098-.025.148-.036a3.3 3.3 0 0 0 .486-.137 2.902 2.902 0 0 0 .587-.285 2.019 2.019 0 0 0 .435-.383 1.128 1.128 0 0 0 .18-.293c.021-.047.04-.095.054-.144a.943.943 0 0 0 .029-.173c.003-.03.015-.058.015-.089v-19.722c0-3.583-4.863-6.497-10.84-6.497-3.159 0-6.153.823-8.216 2.26-.962.669-.836 1.68.281 2.256 1.118.577 2.803.502 3.766-.169 1.047-.728 2.567-1.146 4.17-1.146 2.908 0 5.29 1.36 5.48 3.075-1.61-.569-3.48-.9-5.48-.9-5.978 0-10.84 2.914-10.84 6.496 0 3.583 4.862 6.498 10.84 6.498 2.008 0 3.884-.335 5.498-.908v7.505c-1.8.224-3.642.338-5.498.338-14.83 0-26.894-7.232-26.894-16.12 0-8.889 12.065-16.12 26.894-16.12 14.828 0 26.892 7.231 26.892 16.12 0 3.874-2.325 7.618-6.548 10.543-.965.668-.843 1.68.271 2.257 1.115.579 2.801.506 3.767-.162 5.062-3.507 7.85-7.995 7.85-12.638 0-10.654-14.459-19.322-32.232-19.322"/>
            <path fill="#FEFEFE" d="M327.125 163.45l-.092 16.188s.594 9.163 10.957 18.571c10.362 9.408 25.142 12.833 36.117 14.911 10.976 2.078 28.508 1.164 44.38-4.607 15.874-5.77 25.24-14.855 28.558-26.468 0 0 1.208-16.541.489-20.605l-120.409 2.01z"/>
            <path fill="#FFCB04" d="M446.59 163.197c0 20.371-26.764 36.886-59.779 36.886s-59.778-16.515-59.778-36.886c0-20.372 26.763-36.886 59.778-36.886s59.78 16.514 59.78 36.886"/>
            <path fill="#CA952B" d="M335.238 161.44s5.174-27.854 50.987-27.854c45.814 0 50.97 27.854 50.97 27.854s1.645-17.966-26.33-27.491c-30.782-10.48-55.12 2.314-55.12 2.314s-20.14 8.16-20.507 25.177"/>
            <path fill="#FEF2DE" d="M437.213 161.44s-5.174 27.855-50.988 27.855c-45.813 0-50.97-27.855-50.97-27.855s-1.645 17.967 26.331 27.492c30.781 10.48 55.12-2.315 55.12-2.315s20.14-8.16 20.507-25.177"/>
            <path fill="#EBAA20" d="M327.033 166.124v13.511c0 1.69 2.668 19.061 28.373 28.712 25.706 9.65 47.29 5.066 58.688 1.689 11.397-3.378 28.13-11.099 32.98-27.988 0 0 .91-2.232.637-15.441 0 0 .334 16.855-23.432 27.85-23.766 10.994-56.99 9.272-73.723 0-16.733-9.272-22.796-17.717-23.523-28.333"/>
            <path fill="#FEF2DE" d="M387.398 166.839c-3.032 0-5.5-1.479-5.5-3.296 0-1.818 2.468-3.297 5.5-3.297s5.499 1.479 5.499 3.297c0 1.817-2.467 3.296-5.5 3.296m0-25.305c-17.773 0-32.233 8.667-32.233 19.32 0 10.655 14.46 19.322 32.234 19.322 3.026 0 6.022-.251 8.905-.747.052-.01.098-.025.148-.036.086-.018.17-.037.252-.06a3.78 3.78 0 0 0 .44-.156 2.765 2.765 0 0 0 .553-.33 1.787 1.787 0 0 0 .366-.4 1.193 1.193 0 0 0 .131-.296.943.943 0 0 0 .03-.173c.002-.03.014-.058.014-.088v-19.723c0-3.583-4.862-6.497-10.84-6.497-3.158 0-6.153.823-8.216 2.26-.962.669-.836 1.68.281 2.256 1.118.577 2.804.502 3.766-.168 1.047-.73 2.567-1.147 4.17-1.147 2.908 0 5.29 1.361 5.48 3.076-1.61-.57-3.48-.902-5.48-.902-5.977 0-10.84 2.915-10.84 6.498 0 3.582 4.863 6.497 10.84 6.497 2.008 0 3.885-.335 5.499-.908v7.505c-1.8.224-3.642.338-5.5.338-14.828 0-26.893-7.232-26.893-16.12 0-8.889 12.065-16.12 26.894-16.12 14.829 0 26.893 7.231 26.893 16.12 0 3.874-2.326 7.618-6.549 10.543-.965.669-.843 1.68.272 2.258 1.115.578 2.8.505 3.766-.163 5.063-3.507 7.851-7.995 7.851-12.638 0-10.654-14.46-19.321-32.233-19.321"/>
            <path fill="#FEFEFE" d="M320.092 144.714L320 160.903s.594 9.163 10.956 18.57c10.363 9.408 25.143 12.834 36.119 14.911 10.975 2.078 28.507 1.164 44.38-4.606 15.873-5.77 25.24-14.856 28.557-26.468 0 0 1.208-16.542.49-20.605l-120.41 2.009z"/>
            <path fill="#FFCB04" d="M439.557 144.461c0 20.372-26.763 36.886-59.778 36.886S320 164.833 320 144.461c0-20.371 26.764-36.886 59.779-36.886s59.778 16.515 59.778 36.886"/>
            <path fill="#CA952B" d="M329.377 143.876s5.174-27.855 50.988-27.855c45.813 0 50.97 27.855 50.97 27.855s1.645-17.967-26.33-27.492c-30.782-10.48-55.12 2.315-55.12 2.315s-20.141 8.16-20.508 25.177"/>
            <path fill="#FEF2DE" d="M431.352 143.876s-5.174 27.854-50.988 27.854c-45.813 0-50.969-27.854-50.969-27.854s-1.645 17.967 26.33 27.491c30.781 10.48 55.12-2.314 55.12-2.314s20.141-8.16 20.507-25.177"/>
            <path fill="#EBAA20" d="M320 147.389v13.51c0 1.69 2.667 19.061 28.374 28.712 25.705 9.65 47.289 5.067 58.687 1.689 11.397-3.378 28.13-11.099 32.98-27.988 0 0 .91-2.231.637-15.441 0 0 .334 16.855-23.432 27.85-23.766 10.995-56.99 9.272-73.723 0-16.733-9.272-22.795-17.717-23.523-28.332"/>
            <path fill="#FEF2DE" d="M380.365 149.274c-3.032 0-5.5-1.479-5.5-3.296 0-1.818 2.468-3.297 5.5-3.297s5.5 1.48 5.5 3.297c0 1.817-2.468 3.296-5.5 3.296m0-25.305c-17.774 0-32.234 8.667-32.234 19.321 0 10.654 14.46 19.321 32.234 19.321 3.026 0 6.022-.251 8.905-.747.053-.009.098-.025.148-.035.086-.019.17-.037.252-.06a3.78 3.78 0 0 0 .44-.157 2.84 2.84 0 0 0 .381-.205 2.2 2.2 0 0 0 .312-.247 1.596 1.596 0 0 0 .225-.277 1.193 1.193 0 0 0 .132-.297.943.943 0 0 0 .03-.173c.002-.03.014-.058.014-.088v-19.723c0-3.582-4.862-6.497-10.84-6.497-3.158 0-6.153.823-8.215 2.26-.963.67-.837 1.68.28 2.257 1.119.576 2.804.5 3.766-.17 1.047-.728 2.567-1.146 4.17-1.146 2.908 0 5.29 1.361 5.48 3.076-1.61-.57-3.48-.902-5.48-.902-5.977 0-10.84 2.915-10.84 6.498s4.863 6.497 10.84 6.497c2.008 0 3.885-.335 5.5-.908v7.505c-1.801.224-3.643.338-5.5.338-14.83 0-26.894-7.231-26.894-16.12 0-8.889 12.065-16.12 26.894-16.12 14.829 0 26.893 7.231 26.893 16.12 0 3.874-2.326 7.618-6.549 10.543-.965.669-.843 1.68.272 2.258 1.115.578 2.8.505 3.766-.163 5.063-3.507 7.851-7.995 7.851-12.638 0-10.654-14.46-19.321-32.233-19.321"/>
            <path fill="#FEFEFE" d="M325.953 123.636l-.092 16.19s.594 9.162 10.956 18.57c10.363 9.407 25.143 12.833 36.118 14.91 10.976 2.078 28.507 1.164 44.38-4.606 15.874-5.77 25.24-14.856 28.558-26.468 0 0 1.208-16.542.489-20.605l-120.409 2.01z"/>
            <path fill="#FFCB04" d="M446.59 123.383c0 20.372-26.764 36.886-59.779 36.886s-59.778-16.514-59.778-36.886c0-20.371 26.763-36.886 59.778-36.886s59.78 16.515 59.78 36.886"/>
            <path fill="#CA952B" d="M335.238 122.798s5.174-27.854 50.987-27.854c45.814 0 50.97 27.854 50.97 27.854s1.645-17.967-26.33-27.492c-30.782-10.48-55.12 2.315-55.12 2.315s-20.14 8.16-20.507 25.177"/>
            <path fill="#FEF2DE" d="M437.213 122.798s-5.174 27.854-50.988 27.854c-45.813 0-50.97-27.854-50.97-27.854s-1.645 17.967 26.331 27.492c30.781 10.48 55.12-2.315 55.12-2.315s20.14-8.16 20.507-25.177"/>
            <path fill="#EBAA20" d="M325.86 126.31v13.512c0 1.689 2.668 19.06 28.374 28.711 25.706 9.65 47.29 5.067 58.688 1.689 11.397-3.378 28.13-11.098 32.98-27.987 0 0 .91-2.232.637-15.442 0 0 .334 16.855-23.432 27.85-23.766 10.995-56.99 9.272-73.723 0-16.733-9.272-22.796-17.716-23.523-28.332"/>
            <path fill="#FEF2DE" d="M387.398 127.025c-3.032 0-5.5-1.478-5.5-3.296 0-1.818 2.468-3.296 5.5-3.296s5.499 1.478 5.499 3.296c0 1.818-2.467 3.296-5.5 3.296m0-25.305c-17.773 0-32.233 8.668-32.233 19.321 0 10.654 14.46 19.322 32.234 19.322 3.026 0 6.022-.252 8.905-.748.052-.009.098-.024.148-.035.086-.018.17-.037.251-.06a3.715 3.715 0 0 0 .44-.157 2.903 2.903 0 0 0 .382-.205 2.192 2.192 0 0 0 .312-.247 1.606 1.606 0 0 0 .225-.277c.031-.05.056-.1.079-.152.02-.048.04-.095.053-.144a.943.943 0 0 0 .03-.173c.002-.03.014-.058.014-.089v-19.722c0-3.583-4.862-6.498-10.84-6.498-3.158 0-6.153.824-8.216 2.26-.962.67-.836 1.68.281 2.257 1.118.576 2.803.501 3.766-.169 1.047-.729 2.567-1.147 4.17-1.147 2.908 0 5.29 1.361 5.48 3.076-1.61-.57-3.48-.901-5.48-.901-5.977 0-10.84 2.914-10.84 6.497 0 3.583 4.863 6.497 10.84 6.497 2.008 0 3.885-.334 5.499-.907v7.504c-1.8.225-3.642.338-5.5.338-14.828 0-26.893-7.231-26.893-16.12 0-8.888 12.065-16.12 26.894-16.12 14.829 0 26.893 7.232 26.893 16.12 0 3.874-2.326 7.619-6.549 10.543-.965.67-.843 1.68.272 2.258 1.115.579 2.8.506 3.766-.163 5.063-3.506 7.851-7.995 7.851-12.638 0-10.653-14.46-19.32-32.233-19.32"/>
            <path fill="#FEFEFE" d="M322.436 101.388l-.092 16.189s.594 9.162 10.957 18.57c10.363 9.408 25.142 12.833 36.118 14.91 10.975 2.079 28.507 1.165 44.38-4.606 15.873-5.77 25.24-14.855 28.557-26.468 0 0 1.208-16.542.49-20.605l-120.41 2.01z"/>
            <path fill="#FFCB04" d="M441.902 101.135c0 20.371-26.764 36.886-59.779 36.886s-59.779-16.515-59.779-36.886c0-20.372 26.764-36.886 59.78-36.886 33.014 0 59.778 16.514 59.778 36.886"/>
            <path fill="#CA952B" d="M330.55 99.378s5.174-27.854 50.987-27.854c45.814 0 50.97 27.854 50.97 27.854s1.645-17.967-26.33-27.491c-30.782-10.48-55.12 2.314-55.12 2.314s-20.141 8.16-20.508 25.177"/>
            <path fill="#FEF2DE" d="M432.525 100.55s-5.174 27.854-50.988 27.854-50.97-27.855-50.97-27.855-1.645 17.967 26.33 27.492c30.782 10.48 55.12-2.315 55.12-2.315s20.141-8.16 20.508-25.177"/>
            <path fill="#EBAA20" d="M322.344 104.062v13.511c0 1.69 2.668 19.06 28.374 28.712 25.705 9.65 47.289 5.066 58.687 1.688 11.398-3.377 28.13-11.098 32.981-27.987 0 0 .91-2.232.637-15.441 0 0 .333 16.855-23.433 27.85-23.766 10.994-56.99 9.271-73.723 0-16.733-9.272-22.795-17.717-23.523-28.333"/>
            <path fill="#FEF2DE" d="M382.709 104.777c-3.032 0-5.499-1.48-5.499-3.297 0-1.817 2.467-3.296 5.499-3.296 3.032 0 5.5 1.479 5.5 3.296 0 1.818-2.468 3.297-5.5 3.297m0-25.305c-17.774 0-32.234 8.667-32.234 19.32 0 10.654 14.46 19.322 32.234 19.322 3.026 0 6.022-.251 8.905-.747.053-.01.098-.025.148-.036a3.361 3.361 0 0 0 .904-.322 2.079 2.079 0 0 0 .604-.483 1.171 1.171 0 0 0 .234-.437.976.976 0 0 0 .03-.173c.003-.03.015-.058.015-.089V96.105c0-3.583-4.863-6.498-10.84-6.498-3.159 0-6.154.824-8.216 2.26-.962.67-.837 1.68.28 2.257 1.119.577 2.804.502 3.767-.168 1.046-.73 2.566-1.147 4.169-1.147 2.908 0 5.29 1.36 5.481 3.076-1.61-.57-3.48-.902-5.481-.902-5.977 0-10.84 2.915-10.84 6.497 0 3.583 4.863 6.498 10.84 6.498 2.009 0 3.885-.335 5.5-.908v7.505a44.63 44.63 0 0 1-5.5.338c-14.83 0-26.893-7.232-26.893-16.12 0-8.889 12.064-16.12 26.893-16.12 14.83 0 26.893 7.231 26.893 16.12 0 3.874-2.326 7.618-6.548 10.543-.966.668-.844 1.68.271 2.257 1.115.579 2.8.506 3.766-.162 5.063-3.507 7.852-7.995 7.852-12.638 0-10.654-14.46-19.321-32.234-19.321"/>
            <path fill="#FEFEFE" d="M343.423 74.788l-1.153 16.274s-.011 9.254 9.647 19.394c9.657 10.14 24.087 14.554 34.833 17.363 10.747 2.809 28.19 3.038 44.306-1.725 16.117-4.763 26-13.286 30.05-24.747 0 0 2.282-16.556 1.836-20.69l-119.519-5.87z"/>
            <path fill="#FFCB04" d="M462.95 83.411c-1.345 20.579-29.176 35.497-62.163 33.321-32.987-2.176-58.638-20.621-57.294-41.2 1.344-20.579 29.175-35.497 62.162-33.321 32.987 2.176 58.639 20.622 57.295 41.2"/>
            <path fill="#CA952B" d="M352.82 75.183s7.016-27.543 52.8-24.564c45.785 2.98 49.091 31.194 49.091 31.194s2.836-17.876-24.491-29.229c-30.067-12.49-55.237-1.267-55.237-1.267s-20.67 6.858-22.163 23.866"/>
            <path fill="#FEF2DE" d="M454.795 81.418s-7.017 27.543-52.8 24.564c-45.785-2.979-49.092-31.194-49.092-31.194s-2.835 17.876 24.492 29.229c30.066 12.49 55.237 1.268 55.237 1.268s20.67-6.858 22.163-23.867"/>
            <path fill="#EBAA20" d="M343.16 78.3l-.884 13.36c-.111 1.67 1.4 19.017 26.301 30.22 24.902 11.201 46.641 8.062 58.184 5.459 11.543-2.604 28.67-9.158 34.595-25.543 0 0 1.05-2.148 1.644-15.226 0 0-.773 16.687-25.1 26.023-24.328 9.336-57.216 5.488-73.23-4.76-16.013-10.248-21.482-18.99-21.51-29.532"/>
            <path fill="#FEF2DE" d="M404.587 83.663c-3.03-.197-5.398-1.828-5.278-3.634.119-1.807 2.68-3.116 5.71-2.92 3.03.199 5.398 1.83 5.28 3.636-.12 1.806-2.682 3.116-5.712 2.918m1.662-25.154c-17.759-1.157-32.777 6.517-33.478 17.107-.7 10.59 13.18 20.147 30.94 21.305 3.022.197 6.033.142 8.947-.163.053-.006.099-.019.15-.026a3.274 3.274 0 0 0 .494-.104 2.698 2.698 0 0 0 .785-.358 1.526 1.526 0 0 0 .391-.373c.035-.047.063-.096.09-.146a.928.928 0 0 0 .103-.31c.005-.03.018-.057.02-.087l1.296-19.605c.236-3.561-4.431-6.775-10.404-7.164-3.156-.206-6.202.418-8.358 1.71-1.006.604-.946 1.617.132 2.263 1.08.646 2.769.68 3.774.077 1.094-.656 2.64-.973 4.242-.868 2.906.19 5.196 1.697 5.274 3.414-1.571-.67-3.418-1.123-5.417-1.253-5.972-.39-11.022 2.192-11.258 5.753-.236 3.561 4.432 6.775 10.404 7.164 2.007.13 3.904-.08 5.555-.545l-.493 7.46a44.918 44.918 0 0 1-5.518-.022c-14.817-.965-26.397-8.939-25.813-17.774.585-8.836 13.114-15.238 27.932-14.273 14.817.966 26.397 8.94 25.813 17.775-.255 3.85-2.825 7.421-7.236 10.054-1.01.601-.954 1.614.122 2.262 1.076.647 2.766.684 3.774.083 5.29-3.156 8.37-7.436 8.676-12.051.7-10.59-13.179-20.147-30.939-21.305"/>
        </g>
        <path stroke="#FFCB04" stroke-linecap="round" stroke-linejoin="round" stroke-width="4" d="M316.421 60.421l-20.874-20.874M477.579 60.421l20.874-20.874M365 28L354 3M427 25l11-25"/>
    </g>
</svg>
