<svg xmlns="http://www.w3.org/2000/svg" xmlns:xlink="http://www.w3.org/1999/xlink" width="174" height="162" viewBox="0 0 174 162">
    <defs>
        <path id="a" d="M.078 53.863L31.838.17l7.48 9.153L.509 56.186z"/>
        <linearGradient id="b" x1="89.034%" x2="0%" y1="20.882%" y2="100%">
            <stop offset="0%" stop-color="#FFFEDC" stop-opacity="0"/>
            <stop offset="100%" stop-color="#F0EF9E"/>
        </linearGradient>
        <path id="d" d="M.595 37.525L50.835.544l3.303 11.351L.08 39.832z"/>
        <path id="f" d="M52.851 39.753l.408 2.327L.525 11.722 4.338.532z"/>
        <linearGradient id="g" x1="0%" x2="111.956%" y1="24.026%" y2="100%">
            <stop offset="0%" stop-color="#FFFEDC" stop-opacity="0"/>
            <stop offset="100%" stop-color="#F0EF9E"/>
        </linearGradient>
        <path id="i" d="M42.497 55.915l-.341 1.846L.314.588 17.26 13.252z"/>
        <linearGradient id="j" x1="31.523%" y1="13.992%" y2="100%">
            <stop offset="0%" stop-color="#FFFEDC" stop-opacity="0"/>
            <stop offset="100%" stop-color="#F0EF9E"/>
        </linearGradient>
        <path id="l" d="M.024.339H20.75V13.78H.024z"/>
    </defs>
    <g fill="none" fill-rule="evenodd">
        <path fill="#BC5827" d="M33.665 61.129L4.382 7.729h94.396l24.35 52.073z"/>
        <path stroke="#5E221F" stroke-linecap="round" stroke-linejoin="round" d="M33.665 61.129L4.382 7.729h94.396l24.35 52.073z"/>
        <path fill="#A44924" d="M4.382 7.73S.248 39.425 1.626 42.18C3.004 44.938 16.44 67.33 16.44 67.33s13.436 4.276 15.503 2.31l1.722-8.511-29.283-53.4z"/>
        <path stroke="#5E221F" stroke-linecap="round" stroke-linejoin="round" d="M4.382 7.73S.248 39.425 1.626 42.18C3.004 44.938 16.44 67.33 16.44 67.33s13.436 4.276 15.503 2.31l1.722-8.511-29.283-53.4z"/>
        <path fill="#86391C" d="M33.665 61.129l-1.722 8.511 91.184-1.966v-7.872z"/>
        <path stroke="#5E221F" stroke-linecap="round" stroke-linejoin="round" d="M33.665 61.129l-1.722 8.511 91.184-1.966v-7.872z"/>
        <path fill="#BC5827" d="M63.327 86.623v53.743h84.06l9.991-55.466z"/>
        <path stroke="#5E221F" stroke-linecap="round" stroke-linejoin="round" d="M63.327 86.623v53.743h84.06l9.991-55.466z"/>
        <path fill="#BC5827" d="M63.327 86.623L34.388 63.54l2.067 56.844 26.872 19.982z"/>
        <path stroke="#5E221F" stroke-linecap="round" stroke-linejoin="round" d="M63.327 86.623L34.388 63.54l2.067 56.844 26.872 19.982z"/>
        <path fill="#BC5827" d="M157.378 84.9l-33.762-21.36H34.388l28.939 23.083z"/>
        <path stroke="#5E221F" stroke-linecap="round" stroke-linejoin="round" d="M157.378 84.9l-33.762-21.36H34.388l28.939 23.083z"/>
        <path fill="#8C3D1E" d="M147.387 140.366l-2.756 5.512s-1.722 2.412-6.2 2.412c-4.48 0-7.236-3.962-7.236-3.962v-3.962h16.192zM74.351 140.366v3.962s0 3.1-3.1 3.1h-4.823s-3.101-.689-3.101-3.1v-3.962h11.024z"/>
        <path fill="#8C3D1E" d="M57.605 136.11v5.118l5.722 5.34s1.033.86 3.1.86l-3.1-7.062-5.722-4.255zM39.368 122.55v7.251s2.14 3.675 4.896 3.675h9.797L39.368 122.55z"/>
        <path fill="#7F6857" d="M72.112 92.824h73.725l-5.972 40.652-66.375-.919z"/>
        <path stroke="#594A41" d="M72.112 92.824h73.725l-5.972 40.652-66.375-.919z"/>
        <path fill="#7F6857" d="M96.63 132.814l-1.149-39.99"/>
        <path stroke="#594A41" d="M96.63 132.814l-1.149-39.99"/>
        <path fill="#7F6857" d="M123.272 132.814l1.148-39.99"/>
        <path stroke="#594A41" d="M123.272 132.814l1.148-39.99"/>
        <path fill="#A84A24" d="M95.562 94.89v14.24s-.056 2.527 2.7 4.594c2.757 2.067 4.135 2.986 4.135 2.986V96.728s9.186-5.512 10.105-5.742l12.632 6.89s.23-2.526-1.608-3.904c-1.837-1.378-11.839-6.844-11.839-6.844l-16.125 7.763z"/>
        <path stroke="#5E221F" d="M95.562 94.89v14.24s-.056 2.527 2.7 4.594c2.757 2.067 4.135 2.986 4.135 2.986V96.728s9.186-5.512 10.105-5.742l12.632 6.89s.23-2.526-1.608-3.904c-1.837-1.378-11.839-6.844-11.839-6.844l-16.125 7.763z"/>
        <path fill="#BC5827" d="M102.397 116.71s4.134 1.607 11.253 1.607c7.12 0 10.795-1.607 10.795-1.607l.69-18.834-12.633-6.89-10.105 5.742v19.982z"/>
        <path stroke="#5E221F" d="M102.397 116.71s4.134 1.607 11.253 1.607c7.12 0 10.795-1.607 10.795-1.607l.69-18.834-12.633-6.89-10.105 5.742v19.982z"/>
        <path fill="#262525" d="M115.881 106.496a4.244 4.244 0 0 0 2.133-3.682 4.25 4.25 0 0 0-8.498 0c0 1.575.86 2.948 2.133 3.682l-2.133 6.998h8.498l-2.133-6.998z"/>
        <path stroke="#594A41" d="M115.881 106.496a4.244 4.244 0 0 0 2.133-3.682 4.25 4.25 0 0 0-8.498 0c0 1.575.86 2.948 2.133 3.682l-2.133 6.998h8.498l-2.133-6.998z"/>
        <path fill="#E3945B" d="M103.75 97.532l9.072-5.053 11.024 6.086-10.91-3.79z"/>
        <path fill="#BC5827" d="M153.772 90.051a2.415 2.415 0 1 1-4.83 0 2.415 2.415 0 0 1 4.83 0"/>
        <path stroke="#5E221F" d="M153.772 90.051a2.415 2.415 0 1 1-4.83 0 2.415 2.415 0 0 1 4.83 0z"/>
        <path fill="#E3945B" d="M153.318 89.794a1.626 1.626 0 1 1-3.252 0 1.626 1.626 0 0 1 3.252 0"/>
        <path fill="#BC5827" d="M41.278 73.206a1.853 1.853 0 1 1-3.705 0 1.853 1.853 0 0 1 3.705 0"/>
        <path stroke="#5E221F" stroke-width=".768" d="M41.278 73.206a1.853 1.853 0 1 1-3.705 0 1.853 1.853 0 0 1 3.705 0z"/>
        <path fill="#E3945B" d="M40.93 73.009a1.248 1.248 0 1 1-2.496 0 1.248 1.248 0 0 1 2.496 0"/>
        <path fill="#BC5827" d="M61.742 133.476a1.853 1.853 0 1 1-3.706 0 1.853 1.853 0 0 1 3.706 0"/>
        <path stroke="#5E221F" stroke-width=".768" d="M61.742 133.476a1.853 1.853 0 1 1-3.706 0 1.853 1.853 0 0 1 3.706 0z"/>
        <path fill="#E3945B" d="M61.394 133.279a1.25 1.25 0 1 1-2.499-.002 1.25 1.25 0 0 1 2.499.002"/>
        <path fill="#BC5827" d="M40.79 118.317a1.422 1.422 0 1 1-2.844 0 1.422 1.422 0 0 1 2.844 0"/>
        <path stroke="#5E221F" stroke-width=".589" d="M40.79 118.317a1.422 1.422 0 1 1-2.844 0 1.422 1.422 0 0 1 2.844 0z"/>
        <path fill="#E3945B" d="M40.523 118.166a.958.958 0 1 1-1.917 0 .958.958 0 0 1 1.917 0"/>
        <path fill="#BC5827" d="M70.823 135.606a2.414 2.414 0 1 1-4.827 0 2.414 2.414 0 0 1 4.827 0"/>
        <path stroke="#5E221F" d="M70.823 135.606a2.414 2.414 0 1 1-4.827 0 2.414 2.414 0 0 1 4.827 0z"/>
        <path fill="#E3945B" d="M70.37 135.348a1.626 1.626 0 1 1-3.253 0 1.626 1.626 0 0 1 3.252 0"/>
        <path fill="#BC5827" d="M146.526 136.11a2.414 2.414 0 1 1-4.827.002 2.414 2.414 0 0 1 4.827-.001"/>
        <path stroke="#5E221F" d="M146.526 136.11a2.414 2.414 0 1 1-4.827.002 2.414 2.414 0 0 1 4.827-.001z"/>
        <path fill="#E3945B" d="M146.073 135.854a1.626 1.626 0 1 1-3.252 0 1.626 1.626 0 0 1 3.252 0M63.614 103.446l.058-16.479 93.276-1.694-91.812 2.728zM34.733 64.287l28.25 22.508v16.651l-1.981-16.048-23.858-18.92-.947 34.968z"/>
        <path fill="#8C3D1E" d="M49.807 68.262L65.394 80.65h76.941l-19.063-11.943z"/>
        <path fill="#907B6D" d="M18.502 14.275l73.647.065 18.237 37.832-5.669-.217-15.358-33.727-69.245-.876z"/>
        <path stroke="#594A41" d="M18.502 14.275l73.647.065 18.237 37.832-5.669-.217-15.358-33.727-69.245-.876z"/>
        <path fill="#7F6857" d="M20.115 17.352l20.77 37.231 63.832-2.629L89.36 18.228z"/>
        <path stroke="#594A41" d="M20.115 17.352l20.77 37.231 63.832-2.629L89.36 18.228z"/>
        <path fill="#7F6857" d="M58.734 129.801V90.986l-17.455-13.78v39.504z"/>
        <path stroke="#594A41" d="M58.734 129.801V90.986l-17.455-13.78v39.504z"/>
        <path fill="#7F6857" d="M50.006 84.096l-1.148 38.298"/>
        <path stroke="#594A41" d="M50.006 84.096l-1.148 38.298"/>
        <path fill="#9D8778" d="M75.27 110.509V95.523h13.551s-13.55 3.042-13.55 14.986"/>
        <path fill="#BC5827" d="M61.31 88.599a1.422 1.422 0 1 1-2.842 0 1.422 1.422 0 0 1 2.843 0"/>
        <path stroke="#5E221F" stroke-width=".589" d="M61.31 88.599a1.422 1.422 0 1 1-2.842 0 1.422 1.422 0 0 1 2.843 0z"/>
        <path fill="#E3945B" d="M61.044 88.447a.959.959 0 1 1-1.918 0 .959.959 0 0 1 1.918 0"/>
        <path fill="#9D8778" d="M98.697 122.394v8.326h3.7zM127.636 95.523h9.875s-9.875 3.042-9.875 13.148V95.523zM43.345 82.029v33.073s-.229-33.934 4.364-29.829l-4.364-3.244zM51.844 88.168l-.69 34.226s.267-26.844 2.907-29.928c0 0 .74-1.106 3.324-.676l-5.541-3.622z"/>
        <path fill="#E3945B" d="M26.895 47.779S9.67 14.017 9.842 11.175c.172-2.842 46.767-3.015 46.767-3.015H5.105l21.79 39.619z"/>
        <path fill="#C0743F" d="M4.646 8.993l24.977 45.59S9.469 18.64 6.483 20.133c-2.986 1.492-4.364 13.09-4.364 13.09l2.527-24.23z"/>
        <path fill="#FEFEFE" d="M125.883 67.24l-1.618 2.26s-.826 1.343-.317 3.682c.51 2.34 2.226 4.274 3.547 5.646 1.322 1.372 3.852 2.97 6.633 3.723 2.781.754 4.986.403 6.599-.899 0 0 1.809-2.2 2.112-2.84l-16.956-11.573z"/>
        <path fill="#FFCB04" d="M142.652 79.102c-2.034 2.874-7.436 2.55-12.066-.726-4.63-3.277-6.736-8.262-4.702-11.137 2.033-2.875 7.436-2.549 12.066.727 4.63 3.276 6.735 8.261 4.702 11.136"/>
        <path fill="#CA952B" d="M127.193 68.002s3.518-3.434 9.946 1.113c6.427 4.547 4.358 9.007 4.358 9.007s2.031-2.383-.938-6.51c-3.268-4.54-7.965-5.143-7.965-5.143s-3.644-.842-5.401 1.533"/>
        <path fill="#FEF2DE" d="M141.52 78.093s-3.519 3.434-9.946-1.113c-6.427-4.546-4.357-9.006-4.357-9.006s-2.033 2.383.937 6.51c3.267 4.54 7.965 5.142 7.965 5.142s3.644.842 5.401-1.533"/>
        <path fill="#EBAA20" d="M125.602 67.61l-1.337 1.89c-.167.236-1.643 2.753 1.107 6.807 2.675 3.942 5.833 5.358 7.998 6.013 1.94.587 5.012 1.217 7.357-.668 0 0 .347-.222 1.616-2.097 0 0-1.62 2.39-6.015 1.59-4.394-.803-8.846-4.314-10.256-7.257-1.411-2.944-1.419-4.722-.47-6.277"/>
        <path fill="#FEF2DE" d="M133.927 73.762c-.422-.3-.62-.749-.44-1.003.18-.254.669-.217 1.092.082.422.3.62.749.44 1.003-.179.254-.669.217-1.092-.082m2.501-3.535c-2.478-1.754-5.35-1.969-6.403-.48-1.053 1.488.106 4.125 2.584 5.878a8.95 8.95 0 0 0 1.316.774l.024.01.041.016a.444.444 0 0 0 .076.021.434.434 0 0 0 .04.007l.034.002h.036a.226.226 0 0 0 .063-.01.228.228 0 0 0 .076-.038.312.312 0 0 0 .02-.021l.011-.011 1.95-2.756c.354-.5-.036-1.387-.87-1.976-.44-.312-.94-.492-1.368-.495-.201-.002-.283.152-.184.343.099.19.34.347.541.348.219.001.472.093.695.25.405.287.603.712.46.97a2.848 2.848 0 0 0-.675-.665c-.833-.59-1.8-.662-2.154-.162-.353.5.037 1.387.87 1.976.28.2.575.337.856.417l-.74 1.048a7.528 7.528 0 0 1-.802-.495c-2.067-1.463-3.034-3.663-2.155-4.905.877-1.241 3.274-1.061 5.342.4 2.067 1.464 3.035 3.664 2.156 4.906-.382.54-1.077.834-1.955.827-.2-.002-.284.151-.185.341.098.191.34.348.54.35 1.054.01 1.886-.343 2.345-.992 1.053-1.488-.106-4.126-2.585-5.878"/>
        <path fill="#FEFEFE" d="M85.813 63.83l-1.619 2.259s-.826 1.343-.316 3.683c.509 2.34 2.226 4.274 3.547 5.646 1.321 1.372 3.851 2.97 6.633 3.723 2.78.753 4.986.403 6.599-.899 0 0 1.808-2.2 2.111-2.84L85.813 63.829z"/>
        <path fill="#FFCB04" d="M102.581 75.692c-2.034 2.874-7.436 2.55-12.066-.727-4.63-3.276-6.736-8.261-4.702-11.136s7.436-2.549 12.066.727c4.63 3.275 6.736 8.261 4.702 11.136"/>
        <path fill="#CA952B" d="M87.122 64.592s3.519-3.434 9.946 1.113c6.427 4.547 4.358 9.007 4.358 9.007s2.032-2.384-.938-6.51c-3.267-4.54-7.965-5.143-7.965-5.143s-3.643-.842-5.4 1.533"/>
        <path fill="#FEF2DE" d="M101.45 74.683s-3.519 3.434-9.946-1.113c-6.427-4.547-4.357-9.007-4.357-9.007s-2.033 2.383.937 6.51c3.267 4.541 7.965 5.143 7.965 5.143s3.643.842 5.4-1.533"/>
        <path fill="#EBAA20" d="M85.531 64.2l-1.337 1.89c-.166.235-1.643 2.752 1.108 6.807 2.674 3.942 5.833 5.357 7.997 6.013 1.94.587 5.012 1.216 7.357-.668 0 0 .348-.223 1.617-2.097 0 0-1.621 2.39-6.015 1.589-4.395-.802-8.847-4.313-10.257-7.257-1.41-2.943-1.419-4.72-.47-6.277"/>
        <path fill="#FEF2DE" d="M93.857 70.352c-.423-.3-.621-.75-.441-1.003.18-.254.67-.217 1.093.082.422.299.62.749.44 1.002-.18.254-.67.218-1.092-.081m2.501-3.535c-2.478-1.754-5.351-1.969-6.404-.48-1.053 1.488.106 4.124 2.585 5.878a8.95 8.95 0 0 0 1.315.774c.008.004.017.006.024.01.014.006.028.01.04.016a.54.54 0 0 0 .041.012l.037.01a.434.434 0 0 0 .04.005l.034.003a.308.308 0 0 0 .067-.004c.011-.001.02-.004.031-.006a.228.228 0 0 0 .076-.038l.021-.021c.004-.004.008-.007.01-.011l1.95-2.756c.354-.5-.036-1.387-.869-1.977-.44-.311-.94-.492-1.369-.494-.2-.002-.282.152-.184.343.1.19.341.346.542.348.218.001.472.093.695.25.405.287.603.712.46.97a2.823 2.823 0 0 0-.675-.666c-.834-.59-1.8-.662-2.154-.161-.353.5.037 1.387.87 1.976.28.2.574.337.856.417l-.741 1.048a7.528 7.528 0 0 1-.801-.495c-2.068-1.463-3.034-3.664-2.156-4.905.878-1.242 3.275-1.062 5.343.4 2.067 1.463 3.034 3.664 2.156 4.905-.383.542-1.077.835-1.955.827-.201-.001-.284.152-.185.342.097.19.34.347.54.349 1.053.01 1.886-.342 2.344-.991 1.053-1.489-.106-4.126-2.584-5.878"/>
        <path fill="#FEFEFE" d="M114.65 56.448l-1.618 2.26s-.826 1.343-.317 3.682c.509 2.34 2.226 4.274 3.548 5.646 1.32 1.372 3.851 2.97 6.632 3.724 2.78.753 4.986.402 6.599-.9 0 0 1.808-2.2 2.112-2.84L114.65 56.448z"/>
        <path fill="#FFCB04" d="M131.418 68.31c-2.033 2.875-7.435 2.55-12.066-.727-4.63-3.275-6.735-8.26-4.701-11.135 2.033-2.875 7.435-2.55 12.066.726 4.63 3.276 6.735 8.262 4.701 11.136"/>
        <path fill="#CA952B" d="M115.96 57.21s3.518-3.433 9.946 1.113c6.427 4.547 4.357 9.007 4.357 9.007s2.033-2.383-.937-6.51c-3.267-4.54-7.965-5.142-7.965-5.142s-3.644-.842-5.401 1.533"/>
        <path fill="#FEF2DE" d="M130.287 67.302s-3.518 3.434-9.946-1.113c-6.427-4.548-4.358-9.007-4.358-9.007s-2.032 2.383.938 6.51c3.267 4.54 7.965 5.143 7.965 5.143s3.644.842 5.401-1.533"/>
        <path fill="#EBAA20" d="M114.369 56.82l-1.337 1.888c-.167.236-1.643 2.753 1.107 6.808 2.674 3.942 5.833 5.357 7.998 6.012 1.94.587 5.012 1.217 7.357-.667 0 0 .347-.223 1.616-2.097 0 0-1.62 2.39-6.015 1.588-4.394-.801-8.846-4.312-10.256-7.256-1.412-2.943-1.42-4.721-.47-6.277"/>
        <path fill="#FEF2DE" d="M122.694 62.97c-.423-.3-.62-.75-.44-1.003.18-.253.67-.217 1.092.082.423.3.62.75.44 1.003-.179.254-.67.218-1.092-.082m2.5-3.535c-2.477-1.753-5.35-1.968-6.403-.48s.107 4.125 2.585 5.879a8.95 8.95 0 0 0 1.316.773l.024.01a.631.631 0 0 0 .081.029c.012.003.024.007.037.009a.434.434 0 0 0 .14.005l.032-.006a.186.186 0 0 0 .027-.01c.01-.004.018-.01.027-.014a.152.152 0 0 0 .022-.014.297.297 0 0 0 .02-.022l.011-.01 1.95-2.756c.354-.501-.036-1.388-.87-1.977-.44-.311-.94-.492-1.368-.495-.2-.001-.283.153-.184.343.098.19.34.347.541.348.219.002.472.093.695.251.406.287.603.712.46.97a2.82 2.82 0 0 0-.675-.666c-.833-.59-1.8-.662-2.153-.162-.355.501.035 1.388.87 1.977.279.2.574.337.856.416l-.742 1.048a7.52 7.52 0 0 1-.8-.495c-2.068-1.462-3.036-3.663-2.157-4.904.878-1.242 3.276-1.062 5.343.4 2.067 1.463 3.035 3.663 2.156 4.905-.383.541-1.077.835-1.955.827-.2-.002-.283.151-.185.342.098.19.34.347.541.349 1.053.01 1.885-.343 2.344-.992 1.053-1.488-.107-4.125-2.585-5.878"/>
        <g transform="translate(114 -6.48)">
            <mask id="c" fill="#fff">
                <use xlink:href="#a"/>
            </mask>
            <path fill="url(#b)" d="M.078 53.863L31.838.17l7.48 9.153L.509 56.186z" mask="url(#c)"/>
        </g>
        <g transform="translate(122.956 28.66)">
            <mask id="e" fill="#fff">
                <use xlink:href="#d"/>
            </mask>
            <path fill="url(#b)" d="M.595 37.525L50.835.544l3.303 11.351L.08 39.832z" mask="url(#e)"/>
        </g>
        <g transform="translate(15.47 24.526)">
            <mask id="h" fill="#fff">
                <use xlink:href="#f"/>
            </mask>
            <path fill="url(#g)" d="M52.851 39.753L4.338.531.525 11.721 53.259 42.08z" mask="url(#h)"/>
        </g>
        <g transform="translate(43.03 9.368)">
            <mask id="k" fill="#fff">
                <use xlink:href="#i"/>
            </mask>
            <path fill="url(#j)" d="M42.497 55.915L17.26 13.252.314.588l41.842 57.173z" mask="url(#k)"/>
        </g>
        <path fill="#FEFEFE" d="M68.034 75.693l1.35 2.43s.861 1.32 3.194 1.861c2.332.54 4.815-.184 6.62-.791 1.806-.608 4.332-2.212 6.203-4.404 1.872-2.191 2.496-4.334 2.01-6.349 0 0-1.215-2.576-1.664-3.124L68.034 75.693z"/>
        <path fill="#FFCB04" d="M85.93 65.61c1.728 3.068-.877 7.812-5.819 10.596-4.941 2.784-10.348 2.555-12.077-.513-1.728-3.067.877-7.812 5.818-10.596 4.942-2.785 10.349-2.554 12.077.513"/>
        <path fill="#CA952B" d="M69.284 74.836s-1.6-4.65 5.26-8.514c6.86-3.866 10.005-.086 10.005-.086s-1.285-2.858-6.285-1.938c-5.502 1.011-8.055 5-8.055 5s-2.32 2.933-.925 5.538"/>
        <path fill="#FEF2DE" d="M84.534 66.2s1.599 4.65-5.26 8.515c-6.86 3.866-10.006.087-10.006.087s1.285 2.857 6.286 1.937c5.501-1.012 8.055-5 8.055-5s2.32-2.934.925-5.538"/>
        <path fill="#EBAA20" d="M68.25 76.106l1.135 2.017c.142.251 1.786 2.663 6.627 1.91 4.708-.73 7.338-2.98 8.856-4.657 1.36-1.502 3.243-4.01 2.543-6.936 0 0-.053-.41-1.204-2.358 0 0 1.467 2.488-1.137 6.117-2.604 3.63-7.682 6.151-10.946 6.167-3.264.017-4.874-.736-5.875-2.26"/>
        <path fill="#FEF2DE" d="M77.37 71.212c-.45.254-.942.24-1.094-.03-.153-.271.09-.7.54-.953.452-.255.943-.24 1.096.03.152.271-.09.699-.541.953m-2.126-3.773c-2.645 1.49-4.068 3.995-3.173 5.583.894 1.589 3.774 1.669 6.419.178.45-.253.875-.542 1.262-.858l.02-.017a.674.674 0 0 0 .083-.09c.01-.012.016-.023.024-.034l.016-.029.016-.033a.316.316 0 0 0 .02-.09v-.03c-.002-.009-.002-.018-.005-.026a.137.137 0 0 0-.01-.028l-.005-.015-1.657-2.94c-.3-.534-1.27-.561-2.158-.06-.471.266-.847.64-1.033 1.026-.087.18.016.32.231.312.214-.007.46-.16.546-.34.094-.196.286-.386.524-.52.433-.244.901-.24 1.074-.001-.288.05-.594.157-.891.325-.89.5-1.368 1.343-1.067 1.877.3.534 1.27.561 2.159.06.298-.169.55-.376.741-.596l.63 1.119a7.41 7.41 0 0 1-.789.51c-2.206 1.244-4.61 1.177-5.356-.147-.747-1.326.441-3.416 2.648-4.659 2.206-1.243 4.608-1.176 5.355.149.326.577.295 1.33-.089 2.12-.087.181.016.322.23.315.216-.008.46-.16.548-.34.459-.947.496-1.85.106-2.543-.895-1.588-3.775-1.669-6.42-.178"/>
        <path fill="#FEFEFE" d="M111.57 73.275l.089 2.898s.165 1.635 2.067 3.251c1.902 1.617 4.55 2.133 6.513 2.433 1.963.301 5.07.023 7.852-1.112 2.782-1.136 4.386-2.822 4.9-4.922 0 0 .105-2.966-.05-3.69l-21.372 1.142z"/>
        <path fill="#FFCB04" d="M132.97 72.492c.135 3.67-4.547 6.819-10.457 7.035-5.91.216-10.81-2.583-10.944-6.251-.134-3.669 4.548-6.819 10.458-7.035 5.91-.217 10.81 2.583 10.944 6.251"/>
        <path fill="#CA952B" d="M113.137 73.079s.742-5.073 8.945-5.373c8.204-.299 9.31 4.705 9.31 4.705s.177-3.26-4.895-4.8c-5.581-1.695-9.855.78-9.855.78s-3.552 1.607-3.505 4.688"/>
        <path fill="#FEF2DE" d="M131.395 72.372s-.742 5.073-8.945 5.373c-8.204.3-9.312-4.705-9.312-4.705s-.175 3.261 4.897 4.801c5.58 1.695 9.855-.78 9.855-.78s3.551-1.608 3.505-4.689"/>
        <path fill="#EBAA20" d="M111.57 73.761l.089 2.412c.01.302.38 3.32 5.225 4.94 4.711 1.573 8.224.747 10.433-.08 1.978-.741 4.922-2.164 5.673-5.21 0 0 .147-.404.012-2.76 0 0 .17 3.006-3.979 5.123-4.148 2.117-10.059 2.025-13.09.479-3.033-1.546-4.164-3.014-4.363-4.904"/>
        <path fill="#FEF2DE" d="M122.362 73.589c-.54.02-.988-.228-1-.552-.012-.324.417-.604.957-.623.54-.02.988.228 1 .551.012.324-.417.605-.957.624m-.165-4.512c-3.163.115-5.68 1.755-5.61 3.655.07 1.9 2.7 3.35 5.862 3.235a9.36 9.36 0 0 0 1.58-.191c.01-.002.017-.005.026-.008a.823.823 0 0 0 .085-.027.43.43 0 0 0 .103-.055l.03-.022.024-.023a.187.187 0 0 0 .021-.026.235.235 0 0 0 .017-.026c.006-.008.01-.018.013-.027a.165.165 0 0 0 .013-.058l.002-.015-.129-3.517c-.023-.638-.907-1.126-1.971-1.088-.562.02-1.09.187-1.447.457-.167.125-.138.305.065.4.202.096.502.072.669-.054.18-.137.449-.222.734-.232.518-.02.95.208.996.513a2.928 2.928 0 0 0-.982-.125c-1.063.039-1.91.59-1.887 1.229.024.639.909 1.127 1.972 1.088.357-.013.689-.085.973-.198l.049 1.338a7.848 7.848 0 0 1-.977.096c-2.639.097-4.833-1.114-4.89-2.699-.058-1.585 2.041-2.953 4.68-3.05 2.639-.096 4.833 1.115 4.89 2.7.026.69-.364 1.373-1.096 1.922-.167.126-.139.306.063.401.203.096.502.072.67-.054.877-.658 1.344-1.476 1.314-2.304-.07-1.9-2.699-3.351-5.862-3.235"/>
        <path fill="#FEFEFE" d="M64.582 75.446l.09 2.897s.165 1.636 2.068 3.252c1.902 1.616 4.55 2.133 6.512 2.434 1.963.3 5.07.022 7.852-1.113 2.782-1.136 4.386-2.822 4.9-4.922 0 0 .105-2.967-.048-3.69l-21.374 1.142z"/>
        <path fill="#FFCB04" d="M85.984 74.664c.134 3.668-4.548 6.818-10.458 7.034-5.91.215-10.81-2.583-10.944-6.252-.134-3.668 4.549-6.818 10.458-7.034 5.91-.216 10.81 2.583 10.944 6.252"/>
        <path fill="#CA952B" d="M66.15 75.25s.742-5.072 8.945-5.373c8.203-.3 9.311 4.705 9.311 4.705s.176-3.26-4.897-4.8c-5.58-1.695-9.854.779-9.854.779s-3.552 1.608-3.505 4.69"/>
        <path fill="#FEF2DE" d="M84.408 74.543s-.742 5.073-8.945 5.373c-8.204.3-9.311-4.704-9.311-4.704s-.176 3.26 4.896 4.8c5.581 1.694 9.854-.78 9.854-.78s3.553-1.608 3.506-4.689"/>
        <path fill="#EBAA20" d="M64.584 75.932l.088 2.412c.01.301.38 3.32 5.225 4.94 4.711 1.574 8.224.747 10.433-.08 1.979-.74 4.922-2.164 5.673-5.21 0 0 .147-.404.013-2.76 0 0 .17 3.007-3.98 5.123-4.147 2.117-10.059 2.025-13.09.479-3.032-1.546-4.164-3.014-4.362-4.904"/>
        <path fill="#FEF2DE" d="M75.375 75.76c-.54.02-.988-.228-1-.552-.011-.324.418-.604.957-.624.54-.019.988.228 1 .553.012.323-.417.603-.957.623m-.165-4.512c-3.163.116-5.68 1.755-5.61 3.655.07 1.9 2.7 3.351 5.862 3.235a9.36 9.36 0 0 0 1.58-.191l.027-.007.043-.013a.755.755 0 0 0 .042-.015l.036-.016a.393.393 0 0 0 .066-.039.37.37 0 0 0 .075-.07c.006-.01.013-.017.017-.027.006-.008.01-.018.014-.028a.139.139 0 0 0 .009-.025.235.235 0 0 0 .003-.032c0-.005.003-.01.002-.015l-.128-3.517c-.024-.638-.908-1.126-1.972-1.088-.562.02-1.09.187-1.447.456-.167.127-.138.306.065.4.202.097.502.072.669-.054.181-.136.449-.22.734-.231.518-.019.95.208.996.512a2.962 2.962 0 0 0-.981-.124c-1.064.038-1.91.59-1.888 1.229.025.639.909 1.126 1.972 1.088.357-.013.69-.086.973-.198l.049 1.338a7.982 7.982 0 0 1-.977.096c-2.639.097-4.833-1.114-4.89-2.699-.058-1.585 2.041-2.953 4.68-3.05 2.639-.096 4.833 1.115 4.89 2.7.026.69-.364 1.373-1.095 1.922-.168.126-.14.306.062.4.203.097.502.073.67-.052.878-.659 1.345-1.477 1.315-2.305-.07-1.899-2.7-3.35-5.863-3.235"/>
        <path fill="#FEFEFE" d="M55.671 74.944l1.13 2.67s.744 1.465 3.1 2.286c2.358.82 5.013.347 6.952-.081 1.94-.428 4.738-1.808 6.922-3.87 2.185-2.064 3.072-4.215 2.793-6.358 0 0-.971-2.806-1.376-3.424l-19.52 8.776z"/>
        <path fill="#FFCB04" d="M75.349 66.491c1.449 3.373-1.782 8-7.216 10.334-5.433 2.334-11.013 1.492-12.462-1.881-1.45-3.374 1.782-8 7.215-10.334C68.32 62.276 73.9 63.118 75.35 66.49"/>
        <path fill="#CA952B" d="M57.062 74.195s-1.138-4.999 6.404-8.238c7.543-3.24 10.381 1.028 10.381 1.028s-1.012-3.105-6.299-2.71c-5.816.432-8.908 4.282-8.908 4.282s-2.733 2.782-1.578 5.638"/>
        <path fill="#FEF2DE" d="M73.835 66.948s1.138 4.999-6.404 8.238c-7.542 3.24-10.381-1.028-10.381-1.028s1.013 3.105 6.299 2.71c5.816-.433 8.909-4.282 8.909-4.282s2.733-2.781 1.577-5.638"/>
        <path fill="#EBAA20" d="M55.848 75.396l.952 2.218c.12.277 1.554 2.96 6.656 2.721 4.962-.232 7.94-2.27 9.7-3.838 1.58-1.406 3.81-3.795 3.413-6.906 0 0-.01-.43-.985-2.579 0 0 1.242 2.743-1.862 6.214-3.106 3.47-8.651 5.518-12.037 5.17-3.385-.348-4.97-1.309-5.837-3"/>
        <path fill="#FEF2DE" d="M65.85 71.342c-.496.213-1.004.144-1.132-.155-.128-.297.172-.713.668-.926.496-.213 1.004-.144 1.132.154.127.298-.172.713-.668.927m-1.781-4.149c-2.909 1.25-4.664 3.686-3.914 5.433.75 1.747 3.727 2.151 6.634.903a9.378 9.378 0 0 0 1.405-.75c.008-.004.014-.01.022-.016a.338.338 0 0 0 .036-.027.331.331 0 0 0 .033-.03.354.354 0 0 0 .055-.059.546.546 0 0 0 .054-.09c.005-.01.01-.021.011-.03a.188.188 0 0 0 .007-.031.162.162 0 0 0 .003-.031c0-.01 0-.018-.002-.027a.228.228 0 0 0-.008-.031c0-.005 0-.01-.003-.016l-1.39-3.233c-.252-.587-1.252-.723-2.23-.303-.517.222-.95.568-1.185.948-.11.177-.018.334.205.35.223.016.494-.115.604-.292.12-.194.34-.369.6-.482.477-.204.963-.148 1.115.12-.304.02-.633.097-.96.237-.978.42-1.569 1.24-1.316 1.827.252.588 1.253.723 2.23.304a2.93 2.93 0 0 0 .836-.536l.529 1.23c-.28.164-.572.312-.876.443-2.426 1.042-4.91.704-5.535-.754-.626-1.456.838-3.49 3.265-4.532 2.426-1.042 4.91-.705 5.535.753.273.635.155 1.412-.329 2.189-.11.177-.02.334.203.35.224.017.494-.113.605-.29.581-.932.722-1.863.394-2.625-.75-1.746-3.726-2.151-6.633-.902"/>
        <path fill="#FEFEFE" d="M80.484 74.219l.09 2.896s.164 1.636 2.066 3.253c1.903 1.615 4.55 2.132 6.513 2.433 1.964.3 5.071.022 7.853-1.113 2.781-1.136 4.385-2.822 4.898-4.922 0 0 .107-2.967-.048-3.689L80.484 74.22z"/>
        <path fill="#FFCB04" d="M101.885 73.436c.135 3.669-4.548 6.818-10.458 7.034-5.91.216-10.81-2.583-10.943-6.25-.135-3.67 4.547-6.82 10.457-7.036 5.91-.216 10.81 2.583 10.944 6.252"/>
        <path fill="#CA952B" d="M82.051 74.022s.742-5.072 8.946-5.373c8.203-.3 9.31 4.705 9.31 4.705s.176-3.26-4.896-4.8c-5.581-1.695-9.854.78-9.854.78s-3.553 1.607-3.506 4.688"/>
        <path fill="#FEF2DE" d="M100.309 73.316s-.742 5.072-8.945 5.372c-8.203.3-9.311-4.705-9.311-4.705s-.176 3.26 4.897 4.802c5.58 1.694 9.854-.78 9.854-.78s3.552-1.609 3.505-4.69"/>
        <path fill="#EBAA20" d="M80.485 74.704l.088 2.412c.011.301.38 3.32 5.226 4.94 4.71 1.574 8.223.747 10.432-.08 1.979-.74 4.922-2.164 5.673-5.21 0 0 .147-.404.012-2.76 0 0 .17 3.007-3.978 5.124-4.149 2.116-10.06 2.024-13.09.478-3.033-1.546-4.165-3.014-4.363-4.904"/>
        <path fill="#FEF2DE" d="M91.276 74.532c-.54.02-.988-.228-1-.552-.012-.323.417-.604.958-.623.54-.02.988.227 1 .552.011.324-.418.603-.958.623m-.165-4.512c-3.163.116-5.679 1.756-5.61 3.655.07 1.9 2.7 3.351 5.862 3.235a9.36 9.36 0 0 0 1.58-.19l.026-.008.044-.012a.575.575 0 0 0 .042-.016l.036-.015a1.882 1.882 0 0 0 .066-.04c.011-.007.021-.015.03-.023l.024-.022a.246.246 0 0 0 .039-.051l.013-.028a.165.165 0 0 0 .008-.026c.003-.01.004-.02.004-.031l.002-.016-.129-3.517c-.022-.638-.907-1.126-1.97-1.088-.562.021-1.09.188-1.448.456-.167.127-.138.306.065.401.203.096.502.071.669-.055.181-.136.45-.22.735-.231.517-.019.95.209.994.512a2.957 2.957 0 0 0-.98-.124c-1.064.038-1.91.59-1.887 1.229.023.639.908 1.127 1.971 1.088.358-.013.69-.085.973-.198l.049 1.338a7.848 7.848 0 0 1-.976.097c-2.64.096-4.833-1.114-4.891-2.7-.058-1.585 2.041-2.952 4.68-3.05 2.64-.095 4.833 1.115 4.891 2.7.026.69-.364 1.373-1.097 1.922-.167.126-.138.306.063.402.203.095.502.071.67-.054.877-.658 1.344-1.477 1.314-2.305-.07-1.899-2.699-3.35-5.862-3.235"/>
        <path fill="#FEFEFE" d="M96.429 69.768l-1.14 2.665s-.54 1.553.504 3.82c1.043 2.267 3.226 3.852 4.88 4.953 1.654 1.099 4.589 2.157 7.59 2.3 3 .143 5.166-.71 6.516-2.398 0 0 1.348-2.646 1.513-3.366l-19.863-7.974z"/>
        <path fill="#FFCB04" d="M116.166 78.08c-1.425 3.383-6.998 4.265-12.448 1.97-5.451-2.295-8.714-6.898-7.29-10.282 1.425-3.384 6.999-4.266 12.45-1.97 5.45 2.295 8.713 6.898 7.288 10.282"/>
        <path fill="#CA952B" d="M97.933 70.25s2.811-4.286 10.377-1.1c7.565 3.185 6.46 8.19 6.46 8.19s1.534-2.883-2.417-6.416c-4.346-3.89-9.265-3.447-9.265-3.447s-3.899-.04-5.155 2.774"/>
        <path fill="#FEF2DE" d="M114.787 77.307s-2.81 4.287-10.376 1.101c-7.566-3.186-6.46-8.191-6.46-8.191s-1.534 2.882 2.417 6.416c4.346 3.89 9.264 3.448 9.264 3.448s3.9.039 5.155-2.774"/>
        <path fill="#EBAA20" d="M96.225 70.21l-.936 2.223c-.117.278-1.055 3.173 2.656 6.683 3.609 3.413 7.142 4.144 9.493 4.324 2.107.162 5.377.113 7.341-2.332 0 0 .304-.304 1.175-2.498 0 0-1.113 2.798-5.768 2.969-4.653.17-9.975-2.404-12.073-5.084-2.097-2.68-2.504-4.489-1.888-6.286"/>
        <path fill="#FEF2DE" d="M106.084 74.602c-.498-.21-.8-.623-.675-.922.126-.299.634-.372 1.131-.161.498.208.8.622.675.921-.126.299-.634.372-1.131.162m1.752-4.161c-2.916-1.228-5.89-.802-6.628.95-.737 1.751 1.035 4.176 3.952 5.405a9.356 9.356 0 0 0 1.513.491c.01.003.018.003.028.005l.044.008.044.003.04.002a.807.807 0 0 0 .042-.003l.034-.005a.492.492 0 0 0 .098-.033c.01-.005.019-.01.027-.016l.023-.02a.174.174 0 0 0 .019-.02c.007-.007.012-.017.017-.026l.008-.013 1.366-3.243c.248-.59-.348-1.405-1.329-1.818-.518-.219-1.067-.29-1.505-.196-.204.043-.253.218-.11.39.144.172.425.276.63.233.222-.048.5-.012.764.1.477.2.774.589.686.884a2.954 2.954 0 0 0-.837-.528c-.98-.413-1.981-.269-2.228.32-.25.589.347 1.404 1.328 1.818.33.138.66.213.965.23l-.52 1.235a8.078 8.078 0 0 1-.925-.325c-2.434-1.024-3.913-3.048-3.297-4.51.615-1.46 3.096-1.816 5.53-.791 2.433 1.024 3.912 3.047 3.297 4.509-.269.636-.91 1.092-1.805 1.28-.205.044-.255.218-.112.39.143.173.424.278.63.234 1.073-.227 1.842-.772 2.163-1.535.738-1.752-1.035-4.177-3.952-5.405"/>
        <path fill="#FEFEFE" d="M99.697 61.93l-.756 2.799s-.316 1.612 1.035 3.711c1.352 2.099 3.735 3.362 5.526 4.219 1.791.857 4.846 1.494 7.837 1.215 2.992-.28 5.016-1.427 6.117-3.288 0 0 .963-2.809 1.025-3.545l-20.784-5.11z"/>
        <path fill="#FFCB04" d="M120.404 67.393c-.936 3.55-6.331 5.205-12.05 3.696-5.717-1.508-9.594-5.61-8.658-9.159.938-3.55 6.332-5.204 12.05-3.696 5.718 1.508 9.595 5.61 8.658 9.16"/>
        <path fill="#CA952B" d="M101.254 62.197s2.183-4.638 10.12-2.544c7.937 2.094 7.544 7.205 7.544 7.205s1.114-3.07-3.293-6.016c-4.848-3.241-9.656-2.114-9.656-2.114s-3.866.507-4.715 3.47"/>
        <path fill="#FEF2DE" d="M118.931 66.82s-2.183 4.64-10.12 2.545c-7.937-2.094-7.544-7.205-7.544-7.205s-1.114 3.07 3.292 6.016c4.85 3.241 9.656 2.114 9.656 2.114s3.866-.507 4.716-3.47"/>
        <path fill="#EBAA20" d="M99.557 62.395l-.616 2.334c-.076.291-.6 3.289 3.567 6.244 4.052 2.873 7.653 3.102 10.006 2.952 2.11-.136 5.339-.642 6.941-3.338 0 0 .259-.345.814-2.638 0 0-.711 2.926-5.295 3.747-4.584.82-10.214-.982-12.666-3.342-2.453-2.36-3.11-4.092-2.75-5.959"/>
        <path fill="#FEF2DE" d="M109.934 65.363c-.522-.138-.88-.504-.797-.818.083-.314.575-.457 1.097-.319.522.137.88.505.797.818-.083.314-.575.457-1.097.32m1.151-4.366c-3.06-.808-5.944.03-6.429 1.869-.485 1.837 1.61 3.99 4.671 4.797.52.138 1.048.23 1.568.275l.026.001.047.001c.014 0 .029 0 .043-.002a.612.612 0 0 0 .114-.023l.035-.013a.398.398 0 0 0 .058-.033l.023-.02c.008-.006.015-.015.02-.022a.168.168 0 0 0 .03-.051l.007-.015.897-3.403c.163-.618-.541-1.341-1.57-1.613-.545-.144-1.097-.138-1.518.017-.196.071-.221.252-.054.402.166.15.46.214.656.142.213-.078.494-.082.77-.009.5.132.848.475.803.78a2.938 2.938 0 0 0-.902-.404c-1.03-.272-1.999.01-2.162.628-.164.618.541 1.342 1.57 1.614.347.09.684.118.989.093l-.342 1.294a7.897 7.897 0 0 1-.963-.191c-2.552-.673-4.301-2.47-3.896-4.003.404-1.533 2.81-2.233 5.364-1.56 2.554.674 4.302 2.47 3.896 4.003-.176.668-.746 1.208-1.606 1.521-.197.073-.222.252-.057.403.166.15.46.214.656.142 1.032-.374 1.716-1.022 1.927-1.823.485-1.838-1.61-3.99-4.67-4.797"/>
        <path fill="#FEFEFE" d="M99.848 49.876l-.755 2.799s-.316 1.613 1.035 3.71c1.351 2.1 3.735 3.362 5.526 4.22 1.79.857 4.845 1.494 7.837 1.215 2.992-.28 5.016-1.428 6.116-3.288 0 0 .964-2.81 1.026-3.544l-20.785-5.112z"/>
        <path fill="#FFCB04" d="M120.556 55.34c-.936 3.549-6.331 5.204-12.05 3.695-5.718-1.509-9.594-5.609-8.658-9.16.937-3.549 6.332-5.204 12.05-3.695 5.718 1.509 9.594 5.61 8.658 9.16"/>
        <path fill="#CA952B" d="M101.406 50.143s2.182-4.639 10.12-2.545c7.937 2.095 7.543 7.205 7.543 7.205s1.115-3.069-3.292-6.015c-4.848-3.24-9.656-2.114-9.656-2.114s-3.866.507-4.715 3.469"/>
        <path fill="#FEF2DE" d="M119.083 54.767s-2.183 4.638-10.12 2.544c-7.937-2.094-7.545-7.205-7.545-7.205s-1.114 3.07 3.293 6.016c4.849 3.241 9.656 2.114 9.656 2.114s3.866-.508 4.716-3.47"/>
        <path fill="#EBAA20" d="M99.709 50.341l-.616 2.333c-.077.293-.6 3.29 3.567 6.244 4.051 2.874 7.653 3.103 10.006 2.952 2.109-.134 5.339-.64 6.942-3.338 0 0 .257-.343.813-2.637 0 0-.711 2.925-5.295 3.747-4.584.821-10.214-.983-12.667-3.342-2.452-2.36-3.11-4.093-2.75-5.959"/>
        <path fill="#FEF2DE" d="M110.086 53.309c-.522-.137-.88-.505-.797-.818.082-.314.575-.458 1.097-.32.522.139.88.505.797.819-.083.313-.575.457-1.097.319m1.151-4.366c-3.06-.807-5.944.031-6.43 1.87-.483 1.838 1.611 3.99 4.672 4.797.52.137 1.048.23 1.567.276h.027l.046.001a.459.459 0 0 0 .083-.008.258.258 0 0 0 .041-.007l.034-.01a.415.415 0 0 0 .092-.046.223.223 0 0 0 .045-.043.147.147 0 0 0 .029-.05l.006-.015.898-3.403c.163-.618-.541-1.341-1.57-1.613-.545-.144-1.098-.137-1.519.017-.195.071-.22.252-.053.402.166.15.46.213.656.142.212-.079.494-.082.77-.009.5.132.848.475.803.78a2.955 2.955 0 0 0-.902-.405c-1.03-.271-2 .01-2.163.629-.163.618.542 1.342 1.571 1.613.346.092.684.119.989.093l-.342 1.295a7.771 7.771 0 0 1-.963-.192c-2.553-.673-4.301-2.469-3.896-4.002.404-1.534 2.81-2.233 5.364-1.56 2.553.674 4.301 2.47 3.897 4.003-.177.669-.748 1.209-1.608 1.522-.197.071-.221.251-.056.401.166.15.46.215.656.143 1.031-.375 1.716-1.022 1.927-1.823.485-1.838-1.61-3.99-4.67-4.798"/>
        <path fill="#FEFEFE" d="M84.234 50.689l.26 2.887s.26 1.623 2.254 3.125c1.993 1.501 4.666 1.862 6.644 2.047 1.977.185 5.063-.274 7.773-1.57s4.213-3.074 4.602-5.2c0 0-.067-2.969-.263-3.68l-21.27 2.39z"/>
        <path fill="#FFCB04" d="M105.553 48.654c.349 3.656-4.14 7.073-10.028 7.635-5.887.562-10.942-1.946-11.29-5.6-.35-3.655 4.14-7.073 10.027-7.635 5.887-.561 10.943 1.946 11.291 5.6"/>
        <path fill="#CA952B" d="M85.788 50.401s.444-5.107 8.615-5.887c8.172-.78 9.57 4.152 9.57 4.152s-.014-3.266-5.168-4.507c-5.67-1.364-9.792 1.356-9.792 1.356s-3.453 1.813-3.225 4.886"/>
        <path fill="#FEF2DE" d="M103.973 48.627s-.444 5.107-8.615 5.887c-8.172.78-9.57-4.151-9.57-4.151s.014 3.265 5.168 4.505c5.67 1.364 9.792-1.355 9.792-1.355s3.453-1.814 3.225-4.886"/>
        <path fill="#EBAA20" d="M84.264 51.174s.2 2.101.23 2.402c.028.3.574 3.293 5.505 4.625 4.795 1.296 8.254.265 10.41-.69 1.931-.855 4.787-2.448 5.359-5.533 0 0 .122-.412-.15-2.756 0 0 .345 2.991-3.672 5.348-4.017 2.356-9.924 2.61-13.04 1.244-3.118-1.366-4.333-2.765-4.642-4.64"/>
        <path fill="#FEF2DE" d="M95.027 50.37c-.537.051-1-.17-1.03-.492-.032-.323.38-.627.918-.679.538-.051 1 .17 1.031.493.03.322-.382.627-.919.678m-.429-4.494c-3.15.3-5.567 2.084-5.386 3.976.18 1.892 2.89 3.188 6.041 2.887a9.32 9.32 0 0 0 1.566-.284c.01-.002.017-.005.026-.008a.638.638 0 0 0 .084-.032l.035-.019a.278.278 0 0 0 .036-.022l.028-.02.028-.025a.69.69 0 0 0 .023-.024l.02-.026a.22.22 0 0 0 .015-.028c.005-.009.008-.018.012-.028a.153.153 0 0 0 .007-.027c.002-.01.002-.02.002-.03 0-.006.002-.011.001-.017l-.334-3.503c-.061-.636-.972-1.072-2.032-.97-.56.053-1.077.25-1.418.54-.16.135-.12.313.088.396.208.083.505.042.664-.094.174-.147.436-.246.72-.274.516-.049.96.153 1.024.453a2.964 2.964 0 0 0-.987-.066c-1.06.1-1.872.7-1.812 1.337.062.637.973 1.072 2.032.97.357-.034.683-.125.96-.253l.127 1.333c-.316.07-.64.121-.969.152-2.628.252-4.89-.83-5.04-2.408-.152-1.579 1.865-3.068 4.494-3.318 2.628-.25 4.89.83 5.04 2.408.065.689-.283 1.392-.983 1.984-.159.134-.12.312.087.396.208.084.505.042.665-.093.838-.708 1.256-1.553 1.178-2.377-.18-1.893-2.89-3.187-6.042-2.886"/>
        <path fill="#FEFEFE" d="M96.446 35.194l-1.598 2.419s-.808 1.432-.186 3.849c.621 2.417 2.486 4.366 3.916 5.744 1.43 1.377 4.129 2.943 7.056 3.62 2.927.676 5.21.224 6.841-1.195 0 0 1.798-2.364 2.088-3.042L96.446 35.194z"/>
        <path fill="#FFCB04" d="M114.38 46.899c-2.006 3.074-7.648 2.946-12.6-.285-4.952-3.232-7.34-8.345-5.334-11.42 2.006-3.074 7.647-2.946 12.6.286 4.953 3.231 7.34 8.344 5.334 11.419"/>
        <path fill="#CA952B" d="M97.84 35.939s3.531-3.717 10.406.77c6.874 4.486 4.893 9.213 4.893 9.213s2.024-2.562-1.232-6.746c-3.582-4.602-8.5-5.046-8.5-5.046s-3.83-.735-5.567 1.809"/>
        <path fill="#FEF2DE" d="M113.162 45.892s-3.532 3.716-10.406-.77c-6.874-4.487-4.893-9.214-4.893-9.214s-2.024 2.562 1.231 6.745c3.583 4.603 8.5 5.047 8.5 5.047s3.83.735 5.568-1.808"/>
        <path fill="#EBAA20" d="M96.166 35.592l-1.318 2.02c-.165.254-1.605 2.933 1.42 7.05 2.94 4.003 6.286 5.355 8.568 5.952 2.043.536 5.269 1.071 7.639-.983 0 0 .353-.246 1.602-2.248 0 0-1.596 2.553-6.205 1.89-4.61-.663-9.386-4.148-10.97-7.159-1.585-3.011-1.664-4.864-.736-6.522"/>
        <path fill="#FEF2DE" d="M105.082 41.675c-.452-.294-.676-.755-.5-1.027.178-.272.69-.252 1.143.042.452.296.675.757.498 1.028-.177.272-.69.253-1.141-.043m2.467-3.78c-2.65-1.73-5.652-1.842-6.69-.251-1.04 1.592.272 4.295 2.922 6.025.451.294.922.548 1.401.754l.026.01.043.015.042.012.039.007.042.006.035.001a.337.337 0 0 0 .102-.015c.01-.003.02-.007.029-.012.01-.003.018-.009.027-.014.007-.006.015-.01.021-.016a.141.141 0 0 0 .021-.024c.004-.004.009-.006.012-.011l1.923-2.948c.349-.534-.092-1.443-.984-2.025-.47-.307-.997-.475-1.445-.462-.208.007-.288.17-.178.364.11.196.37.348.578.341.227-.006.495.08.734.235.433.283.656.718.517.993a2.944 2.944 0 0 0-.73-.668c-.89-.582-1.9-.619-2.249-.083-.35.534.091 1.444.983 2.025a2.9 2.9 0 0 0 .908.4l-.732 1.12a7.79 7.79 0 0 1-.853-.484c-2.211-1.443-3.305-3.697-2.438-5.026.866-1.328 3.37-1.235 5.582.209 2.211 1.443 3.305 3.697 2.438 5.026-.377.578-1.09.911-2.004.937-.21.007-.29.17-.18.365.11.194.369.348.578.342 1.097-.031 1.95-.431 2.403-1.125 1.039-1.591-.272-4.294-2.923-6.023"/>
        <path fill="#FEFEFE" d="M80.322 55.927l2.546 1.386s1.495.683 3.85-.142c2.356-.826 4.14-2.849 5.39-4.39 1.251-1.544 2.582-4.366 3.007-7.34.425-2.974-.22-5.21-1.773-6.714 0 0-2.507-1.59-3.209-1.823l-9.81 19.023z"/>
        <path fill="#FFCB04" d="M90.458 37.06c3.234 1.738 3.587 7.37.788 12.58-2.799 5.21-7.69 8.024-10.924 6.287-3.234-1.738-3.587-7.37-.788-12.58 2.799-5.21 7.69-8.023 10.924-6.286"/>
        <path fill="#CA952B" d="M80.945 54.475s-4.003-3.203-.118-10.435c3.885-7.231 8.764-5.658 8.764-5.658s-2.725-1.8-6.617 1.8c-4.282 3.961-4.305 8.898-4.305 8.898s-.407 3.879 2.276 5.395"/>
        <path fill="#FEF2DE" d="M89.558 38.36s4.003 3.203.118 10.435c-3.885 7.231-8.764 5.658-8.764 5.658s2.725 1.8 6.617-1.8c4.282-3.96 4.305-8.9 4.305-8.9s.407-3.877-2.276-5.393"/>
        <path fill="#EBAA20" d="M80.742 56.171l2.126 1.142c.266.142 3.058 1.349 6.903-2.015 3.738-3.27 4.8-6.72 5.2-9.043.361-2.082.62-5.342-1.629-7.528 0 0-.275-.331-2.375-1.405 0 0 2.68 1.373 2.41 6.022-.268 4.65-3.333 9.704-6.2 11.54-2.865 1.835-4.703 2.07-6.435 1.287"/>
        <path fill="#FEF2DE" d="M86.045 46.77c-.256.476-.696.738-.981.585-.286-.154-.31-.666-.055-1.141.255-.476.696-.738.982-.585.285.153.31.666.054 1.141m-3.977-2.137c-1.498 2.789-1.355 5.79.32 6.688 1.675.9 4.256-.636 5.753-3.424.256-.475.469-.967.633-1.46.004-.009.005-.018.007-.026a.536.536 0 0 0 .02-.088c.002-.013.004-.026.004-.039.002-.015.002-.029.002-.043 0-.011 0-.023-.002-.034a.631.631 0 0 0-.004-.038l-.008-.032a.41.41 0 0 0-.024-.059.169.169 0 0 0-.018-.025c-.006-.007-.011-.014-.018-.02-.008-.008-.017-.014-.025-.02l-.012-.01-3.1-1.665c-.564-.303-1.431.214-1.935 1.152-.267.495-.39 1.034-.338 1.479.025.208.194.273.38.147.184-.127.314-.398.29-.605-.027-.226.036-.5.171-.751.245-.456.66-.715.945-.6-.225.204-.434.47-.603.784-.504.937-.456 1.946.107 2.248.564.303 1.431-.214 1.935-1.15.17-.316.275-.639.321-.94l1.18.633c-.117.301-.254.6-.41.891-1.25 2.326-3.404 3.609-4.8 2.858-1.398-.75-1.518-3.254-.268-5.58s3.402-3.608 4.8-2.857c.609.327 1 1.008 1.105 1.917.024.208.193.274.378.148.185-.126.316-.397.292-.604-.125-1.09-.595-1.907-1.325-2.3-1.675-.9-4.256.638-5.753 3.425"/>
        <path fill="#FEFEFE" d="M83.943 56.802l-.755 2.799s-.316 1.613 1.035 3.711c1.351 2.099 3.735 3.362 5.526 4.22 1.79.857 4.845 1.493 7.837 1.214 2.992-.279 5.016-1.427 6.116-3.288 0 0 .964-2.808 1.026-3.544l-20.785-5.112z"/>
        <path fill="#FFCB04" d="M104.651 62.266c-.936 3.55-6.331 5.204-12.05 3.695-5.718-1.508-9.594-5.608-8.658-9.159.937-3.55 6.332-5.203 12.05-3.695 5.718 1.508 9.594 5.61 8.658 9.159"/>
        <path fill="#CA952B" d="M85.5 57.07s2.183-4.64 10.12-2.544c7.938 2.093 7.544 7.205 7.544 7.205s1.115-3.07-3.292-6.016c-4.848-3.241-9.656-2.115-9.656-2.115s-3.866.508-4.715 3.47"/>
        <path fill="#FEF2DE" d="M103.178 61.693s-2.183 4.639-10.12 2.545c-7.937-2.094-7.544-7.205-7.544-7.205s-1.115 3.07 3.292 6.016c4.849 3.24 9.656 2.114 9.656 2.114s3.867-.508 4.716-3.47"/>
        <path fill="#EBAA20" d="M83.804 57.268l-.615 2.333c-.078.292-.6 3.289 3.566 6.244 4.051 2.874 7.653 3.102 10.006 2.952 2.109-.135 5.339-.641 6.942-3.338 0 0 .257-.344.813-2.638 0 0-.711 2.926-5.295 3.747-4.584.822-10.214-.982-12.667-3.341-2.452-2.36-3.11-4.093-2.75-5.96"/>
        <path fill="#FEF2DE" d="M94.18 60.235c-.521-.137-.878-.504-.796-.818.083-.314.575-.457 1.097-.319s.88.505.797.819c-.083.313-.575.456-1.097.318m1.152-4.365c-3.06-.808-5.945.03-6.43 1.869-.484 1.838 1.61 3.99 4.67 4.798.522.137 1.049.23 1.568.275h.027c.016.002.031.002.046.002s.03-.002.044-.003a.343.343 0 0 0 .08-.013c.012-.002.023-.006.034-.01a.415.415 0 0 0 .065-.027l.027-.018a.337.337 0 0 0 .025-.02l.02-.023.015-.022a.156.156 0 0 0 .014-.03c.002-.004.005-.009.006-.014l.898-3.402c.163-.619-.541-1.341-1.57-1.614-.545-.143-1.098-.137-1.518.018-.196.071-.221.251-.054.401.166.15.46.214.656.142.213-.078.494-.081.77-.008.5.132.848.475.803.78a2.955 2.955 0 0 0-.902-.405c-1.03-.272-2 .01-2.162.629-.164.617.541 1.341 1.57 1.613.346.092.684.12.989.093l-.342 1.295a7.735 7.735 0 0 1-.962-.192c-2.554-.673-4.302-2.469-3.897-4.003.404-1.533 2.81-2.233 5.364-1.559 2.553.673 4.301 2.47 3.897 4.003-.176.668-.748 1.208-1.608 1.521-.196.072-.221.252-.055.402.165.15.459.215.655.143 1.031-.375 1.716-1.022 1.927-1.824.485-1.837-1.61-3.99-4.67-4.797"/>
        <path fill="#FEFEFE" d="M74.392 147.517l-.755 2.798s-.317 1.613 1.034 3.712c1.352 2.098 3.735 3.361 5.526 4.218 1.791.858 4.846 1.494 7.837 1.215 2.992-.279 5.016-1.427 6.117-3.287 0 0 .963-2.81 1.025-3.545l-20.784-5.111z"/>
        <path fill="#FFCB04" d="M95.1 152.98c-.937 3.55-6.332 5.205-12.05 3.696-5.718-1.509-9.595-5.609-8.658-9.16.937-3.55 6.33-5.204 12.05-3.695 5.717 1.508 9.594 5.61 8.657 9.159"/>
        <path fill="#CA952B" d="M75.949 147.784s2.183-4.639 10.12-2.545c7.937 2.094 7.544 7.205 7.544 7.205s1.114-3.07-3.293-6.015c-4.848-3.242-9.656-2.114-9.656-2.114s-3.866.507-4.715 3.469"/>
        <path fill="#FEF2DE" d="M93.626 152.408s-2.183 4.638-10.12 2.544c-7.937-2.094-7.544-7.205-7.544-7.205s-1.114 3.07 3.292 6.015c4.85 3.242 9.656 2.115 9.656 2.115s3.866-.508 4.716-3.47"/>
        <path fill="#EBAA20" d="M74.252 147.982l-.616 2.333c-.076.292-.6 3.289 3.567 6.244 4.052 2.873 7.653 3.102 10.006 2.952 2.11-.135 5.339-.641 6.941-3.338 0 0 .259-.344.814-2.637 0 0-.711 2.925-5.295 3.747-4.584.82-10.214-.983-12.666-3.343-2.453-2.358-3.11-4.092-2.75-5.958"/>
        <path fill="#FEF2DE" d="M84.63 150.95c-.523-.138-.88-.505-.798-.818.083-.314.575-.458 1.098-.32.521.138.879.505.796.819-.083.313-.575.456-1.097.319m1.151-4.366c-3.06-.808-5.944.031-6.429 1.87-.485 1.837 1.61 3.99 4.671 4.797.521.137 1.048.23 1.568.275h.026l.047.002a.612.612 0 0 0 .124-.015l.033-.01a.416.416 0 0 0 .065-.029l.028-.017.023-.02c.008-.007.015-.015.02-.023a.168.168 0 0 0 .03-.05l.007-.016.897-3.402c.163-.618-.541-1.342-1.57-1.613-.545-.144-1.097-.138-1.518.016-.196.072-.22.252-.054.403.166.15.46.213.656.142.213-.079.494-.082.77-.01.5.133.848.476.804.78a2.938 2.938 0 0 0-.903-.404c-1.03-.272-1.999.01-2.162.629-.164.618.541 1.341 1.57 1.613.346.091.684.119.989.093l-.342 1.295a8.033 8.033 0 0 1-.963-.192c-2.552-.673-4.301-2.47-3.896-4.002.405-1.534 2.81-2.234 5.364-1.56 2.554.674 4.302 2.47 3.896 4.002-.176.67-.746 1.21-1.606 1.522-.197.072-.222.252-.057.402.166.15.46.214.656.143 1.032-.375 1.716-1.023 1.927-1.823.485-1.839-1.61-3.99-4.67-4.798"/>
        <path fill="#FEFEFE" d="M64.098 61.368l1.498 2.482s.946 1.344 3.396 1.82 5.011-.371 6.87-1.072c1.858-.7 4.43-2.466 6.298-4.819 1.868-2.353 2.44-4.609 1.858-6.69 0 0-1.362-2.64-1.85-3.193l-18.07 11.472z"/>
        <path fill="#FFCB04" d="M82.369 50.195c1.915 3.132-.623 8.171-5.668 11.258-5.045 3.084-10.688 3.047-12.603-.085-1.915-3.132.622-8.173 5.667-11.258 5.046-3.085 10.688-3.048 12.604.085"/>
        <path fill="#CA952B" d="M65.369 60.428s-1.84-4.785 5.163-9.068c7.003-4.282 10.421-.463 10.421-.463s-1.445-2.928-6.62-1.784c-5.695 1.26-8.207 5.51-8.207 5.51s-2.308 3.143-.757 5.805"/>
        <path fill="#FEF2DE" d="M80.936 50.863s1.84 4.784-5.163 9.067c-7.004 4.283-10.422.463-10.422.463s1.445 2.929 6.62 1.785c5.696-1.259 8.208-5.51 8.208-5.51s2.308-3.143.757-5.805"/>
        <path fill="#EBAA20" d="M64.337 61.79l1.26 2.059c.157.257 1.959 2.709 6.976 1.745 4.877-.938 7.534-3.38 9.053-5.184 1.362-1.616 3.23-4.298 2.392-7.321 0 0-.07-.425-1.342-2.412 0 0 1.62 2.537-.957 6.416-2.579 3.878-7.775 6.695-11.176 6.834-3.4.138-5.106-.586-6.206-2.137"/>
        <path fill="#FEF2DE" d="M73.66 56.35c-.461.282-.974.286-1.143.01-.169-.277.068-.731.528-1.013.461-.281.973-.285 1.143-.01.17.278-.068.732-.529 1.014m-2.355-3.853c-2.7 1.652-4.09 4.314-3.099 5.936.992 1.622 3.996 1.598 6.696-.053.46-.281.892-.598 1.284-.942l.018-.018.033-.033c.01-.011.02-.022.028-.033.009-.011.017-.021.024-.032a.316.316 0 0 0 .023-.036l.016-.03a.303.303 0 0 0 .033-.13l-.002-.03a.372.372 0 0 0-.005-.028l-.012-.028c-.003-.005-.003-.01-.006-.016l-1.836-3.002c-.334-.545-1.343-.536-2.251.018-.48.294-.859.697-1.039 1.108-.083.191.03.333.254.317.223-.016.472-.184.556-.375.09-.209.283-.413.526-.563.442-.27.93-.284 1.12-.04a2.946 2.946 0 0 0-.917.372c-.908.555-1.376 1.45-1.042 1.996.333.545 1.344.537 2.252-.018.304-.186.558-.412.75-.65l.699 1.143c-.253.201-.522.39-.804.563-2.253 1.377-4.759 1.398-5.586.044-.828-1.353.332-3.574 2.585-4.952 2.252-1.378 4.758-1.398 5.586-.044.36.589.355 1.375-.013 2.213-.085.191.028.334.25.318.224-.016.473-.183.558-.374.442-1.005.448-1.947.016-2.654-.992-1.62-3.995-1.597-6.695.053"/>
        <path fill="#FEFEFE" d="M72.524 63.767l-.755 2.799s-.316 1.613 1.035 3.711c1.351 2.099 3.734 3.362 5.525 4.219 1.792.858 4.846 1.494 7.838 1.215 2.991-.279 5.016-1.427 6.116-3.288 0 0 .963-2.808 1.025-3.544l-20.784-5.112z"/>
        <path fill="#FFCB04" d="M93.232 69.23c-.937 3.55-6.332 5.205-12.05 3.696-5.718-1.508-9.594-5.609-8.658-9.16.937-3.548 6.331-5.203 12.05-3.694 5.718 1.508 9.594 5.609 8.658 9.159"/>
        <path fill="#CA952B" d="M74.081 64.034s2.183-4.638 10.12-2.544c7.937 2.094 7.545 7.205 7.545 7.205s1.114-3.07-3.293-6.015c-4.849-3.242-9.656-2.115-9.656-2.115s-3.866.508-4.716 3.47"/>
        <path fill="#FEF2DE" d="M91.758 68.658s-2.182 4.639-10.12 2.545c-7.937-2.094-7.544-7.205-7.544-7.205s-1.114 3.07 3.293 6.016c4.849 3.24 9.656 2.113 9.656 2.113s3.866-.507 4.715-3.469"/>
        <path fill="#EBAA20" d="M72.385 64.233s-.54 2.041-.616 2.333c-.077.292-.6 3.288 3.567 6.244 4.051 2.874 7.653 3.102 10.006 2.951 2.109-.134 5.338-.64 6.94-3.337 0 0 .26-.344.814-2.638 0 0-.71 2.926-5.295 3.747-4.584.821-10.214-.982-12.666-3.342-2.452-2.359-3.11-4.092-2.75-5.958"/>
        <path fill="#FEF2DE" d="M82.762 67.2c-.523-.137-.88-.504-.798-.818.083-.314.576-.457 1.097-.319.523.138.88.505.797.818-.082.314-.575.457-1.096.32m1.15-4.366c-3.06-.808-5.943.03-6.428 1.869-.485 1.838 1.61 3.99 4.67 4.797.521.138 1.049.23 1.568.276h.027a1.047 1.047 0 0 0 .09-.001.36.36 0 0 0 .08-.013.483.483 0 0 0 .069-.023l.03-.015.027-.017a.223.223 0 0 0 .073-.094c.002-.005.006-.01.007-.015l.897-3.402c.164-.619-.54-1.342-1.57-1.614-.544-.143-1.097-.137-1.518.017-.196.071-.22.252-.054.402.166.15.46.214.656.142.213-.078.494-.081.77-.008.5.131.849.475.804.78a2.962 2.962 0 0 0-.903-.405c-1.03-.272-1.999.01-2.162.628-.163.618.542 1.342 1.571 1.614.345.091.684.118.988.093l-.342 1.294a7.771 7.771 0 0 1-.962-.191c-2.553-.673-4.302-2.469-3.897-4.003.405-1.533 2.811-2.233 5.364-1.559 2.554.673 4.302 2.47 3.897 4.003-.176.668-.747 1.208-1.608 1.521-.196.072-.22.251-.055.402.165.15.46.215.656.142 1.031-.375 1.715-1.021 1.927-1.823.485-1.837-1.61-3.99-4.671-4.797"/>
        <path fill="#FEFEFE" d="M114.96 49.598l-2.685.725s-1.49.516-2.576 2.648c-1.087 2.133-.984 4.718-.83 6.617.155 1.898 1.102 4.737 2.777 7.081 1.675 2.345 3.604 3.47 5.676 3.483 0 0 2.793-.558 3.434-.861l-5.796-19.693z"/>
        <path fill="#FFCB04" d="M120.427 69.397c-3.394.937-7.37-2.735-8.88-8.203-1.51-5.467.018-10.66 3.412-11.596 3.395-.938 7.37 2.735 8.88 8.202 1.51 5.468-.018 10.66-3.412 11.597"/>
        <path fill="#CA952B" d="M115.49 51.017s4.898-.43 6.993 7.16c2.096 7.588-2.33 9.73-2.33 9.73s3.083-.558 3.397-5.633c.346-5.583-2.909-9.023-2.909-9.023s-2.286-2.96-5.151-2.234"/>
        <path fill="#FEF2DE" d="M120.19 67.9s-4.898.43-6.994-7.16c-2.095-7.589 2.33-9.73 2.33-9.73s-3.081.558-3.396 5.632c-.346 5.584 2.908 9.024 2.908 9.024s2.288 2.96 5.152 2.233"/>
        <path fill="#EBAA20" d="M114.507 49.706l-2.231.617c-.279.076-3.016 1.09-3.454 5.97-.426 4.743 1.123 7.84 2.383 9.717 1.13 1.682 3.109 4.115 6.118 4.142 0 0 .41.048 2.578-.6 0 0-2.768.824-5.661-2.579s-4.116-8.94-3.345-12.11c.773-3.172 1.892-4.553 3.612-5.157"/>
        <path fill="#FEF2DE" d="M117.056 59.74c-.138-.5-.006-.974.293-1.056.3-.083.656.256.794.755s.006.973-.293 1.055c-.3.083-.656-.255-.794-.755m4.174-1.152c-.808-2.927-2.895-4.912-4.652-4.427-1.758.485-2.53 3.26-1.722 6.187.137.498.315.98.528 1.432l.013.023a.692.692 0 0 0 .066.104l.028.03.023.023c.01.008.02.016.03.022.008.007.017.012.026.018a.218.218 0 0 0 .055.024l.03.007.025.002a.14.14 0 0 0 .03-.004l.015-.001 3.254-.898c.591-.164.85-1.097.579-2.08-.144-.521-.416-.976-.747-1.25-.153-.128-.315-.061-.359.148-.044.211.045.485.199.613.168.139.306.37.379.634.132.478.016.933-.259 1.043a2.8 2.8 0 0 0-.1-.943c-.272-.984-.973-1.653-1.564-1.49-.591.164-.851 1.097-.58 2.081.092.33.232.624.4.864l-1.238.342a7.785 7.785 0 0 1-.305-.89c-.674-2.441-.03-4.756 1.436-5.161 1.466-.406 3.207 1.25 3.882 3.693.674 2.44.03 4.756-1.437 5.161-.639.176-1.362-.036-2.037-.598-.154-.128-.315-.063-.36.147-.044.21.044.485.199.614.808.673 1.675.927 2.441.716 1.758-.485 2.53-3.26 1.722-6.186"/>
        <path fill="#FEFEFE" d="M145.762 138.085l-2.685.725s-1.49.517-2.576 2.648c-1.087 2.134-.984 4.719-.83 6.617.155 1.9 1.102 4.738 2.777 7.082 1.675 2.345 3.604 3.468 5.676 3.483 0 0 2.793-.558 3.434-.862l-5.796-19.693z"/>
        <path fill="#FFCB04" d="M151.229 157.884c-3.394.937-7.37-2.735-8.88-8.202-1.51-5.468.018-10.66 3.412-11.597 3.395-.938 7.37 2.735 8.88 8.203 1.51 5.467-.018 10.66-3.412 11.596"/>
        <path fill="#CA952B" d="M146.292 139.505s4.898-.43 6.993 7.159c2.096 7.589-2.33 9.73-2.33 9.73s3.083-.557 3.397-5.632c.346-5.583-2.909-9.023-2.909-9.023s-2.286-2.96-5.151-2.234"/>
        <path fill="#FEF2DE" d="M150.992 156.387s-4.898.43-6.994-7.159c-2.095-7.589 2.33-9.73 2.33-9.73s-3.081.558-3.396 5.632c-.346 5.583 2.908 9.023 2.908 9.023s2.288 2.96 5.152 2.234"/>
        <path fill="#EBAA20" d="M145.309 138.194l-2.231.616c-.279.077-3.016 1.09-3.454 5.97-.426 4.744 1.123 7.84 2.383 9.718 1.13 1.682 3.109 4.115 6.118 4.142 0 0 .41.047 2.578-.6 0 0-2.768.823-5.661-2.58-2.894-3.402-4.116-8.938-3.345-12.11.772-3.172 1.892-4.552 3.612-5.156"/>
        <path fill="#FEF2DE" d="M147.858 148.227c-.138-.5-.006-.973.293-1.055.3-.083.656.255.794.754.138.5.006.974-.294 1.056-.3.083-.655-.256-.793-.755m4.174-1.153c-.808-2.926-2.895-4.912-4.652-4.426-1.758.485-2.53 3.26-1.722 6.186.137.498.315.98.527 1.433l.013.022.022.039.023.035.022.03c.01.01.018.021.028.03l.023.024a.417.417 0 0 0 .084.054.146.146 0 0 0 .027.01l.03.006.025.003a.14.14 0 0 0 .03-.004l.015-.001 3.254-.898c.591-.164.85-1.097.579-2.08-.144-.521-.416-.977-.747-1.25-.153-.129-.315-.062-.359.148-.044.21.044.485.199.613.168.139.306.37.379.633.132.48.016.933-.259 1.043a2.797 2.797 0 0 0-.1-.943c-.272-.984-.973-1.652-1.564-1.49-.591.165-.851 1.098-.58 2.082.092.33.232.624.4.864l-1.238.341a7.728 7.728 0 0 1-.306-.89c-.673-2.441-.03-4.756 1.437-5.16 1.466-.406 3.207 1.25 3.882 3.692.674 2.441.03 4.756-1.437 5.161-.639.177-1.362-.035-2.037-.597-.154-.128-.315-.063-.36.147-.044.21.044.484.199.613.808.674 1.675.928 2.441.717 1.758-.485 2.53-3.261 1.722-6.187"/>
        <path fill="#FEFEFE" d="M48.87 70.43l1.15 2.66s.756 1.46 3.12 2.262 5.016.306 6.951-.138c1.936-.443 4.723-1.846 6.89-3.927 2.167-2.08 3.037-4.24 2.741-6.38 0 0-.995-2.798-1.404-3.413l-19.449 8.937z"/>
        <path fill="#FFCB04" d="M68.477 61.817c1.476 3.362-1.717 8.015-7.13 10.393-5.415 2.378-11.001 1.582-12.478-1.78-1.477-3.361 1.716-8.014 7.13-10.392 5.415-2.378 11.001-1.582 12.478 1.78"/>
        <path fill="#CA952B" d="M50.254 69.67s-1.179-4.989 6.336-8.29c7.516-3.302 10.39.943 10.39.943s-1.038-3.096-6.321-2.658c-5.813.48-8.874 4.355-8.874 4.355s-2.71 2.804-1.53 5.65"/>
        <path fill="#FEF2DE" d="M66.967 62.286s1.18 4.99-6.336 8.291-10.39-.944-10.39-.944 1.039 3.097 6.321 2.66c5.813-.482 8.874-4.356 8.874-4.356s2.71-2.804 1.531-5.65"/>
        <path fill="#EBAA20" d="M49.05 70.881l.97 2.21c.12.276 1.577 2.947 6.678 2.667 4.96-.273 7.92-2.336 9.669-3.917 1.566-1.42 3.779-3.826 3.355-6.934 0 0-.012-.43-1.006-2.57 0 0 1.265 2.731-1.811 6.228-3.077 3.496-8.606 5.589-11.994 5.268-3.388-.32-4.981-1.268-5.862-2.952"/>
        <path fill="#FEF2DE" d="M59.018 66.745c-.494.217-1.002.153-1.133-.144-.13-.297.166-.716.66-.932.495-.218 1.003-.153 1.133.144.13.297-.166.715-.66.932m-1.815-4.133c-2.898 1.272-4.634 3.724-3.87 5.464.765 1.74 3.745 2.121 6.642.848a9.324 9.324 0 0 0 1.398-.76c.009-.005.015-.01.022-.016l.037-.028a.44.44 0 0 0 .032-.03c.01-.009.02-.017.028-.027a.383.383 0 0 0 .027-.033c.008-.009.014-.018.021-.028a.256.256 0 0 0 .019-.033.273.273 0 0 0 .033-.121.17.17 0 0 0-.01-.058l-.003-.016-1.416-3.222c-.257-.585-1.26-.713-2.233-.285-.515.227-.944.575-1.178.958-.109.179-.016.334.208.349.223.014.494-.12.602-.298.118-.194.337-.371.597-.485.475-.21.96-.157 1.115.11a2.935 2.935 0 0 0-.959.245c-.974.428-1.557 1.252-1.3 1.838.257.584 1.258.713 2.233.284.328-.143.61-.333.831-.541l.54 1.225c-.279.166-.57.316-.873.449-2.418 1.062-4.904.745-5.542-.707-.638-1.452.81-3.497 3.228-4.56 2.418-1.062 4.903-.744 5.541.708.279.633.168 1.41-.31 2.192-.11.178-.018.334.206.349.223.014.492-.118.602-.296.574-.936.706-1.87.373-2.628-.765-1.74-3.744-2.12-6.641-.847"/>
        <path fill="#FEFEFE" d="M62.167 156.293l1.15 2.66s.757 1.46 3.12 2.262c2.364.8 5.016.306 6.952-.138 1.935-.444 4.722-1.847 6.89-3.928 2.167-2.08 3.036-4.24 2.74-6.38 0 0-.994-2.797-1.403-3.413l-19.45 8.937z"/>
        <path fill="#FFCB04" d="M81.774 147.68c1.477 3.361-1.716 8.014-7.13 10.393-5.415 2.377-11 1.581-12.477-1.78-1.477-3.361 1.715-8.015 7.13-10.393s11-1.582 12.477 1.78"/>
        <path fill="#CA952B" d="M63.552 155.533s-1.18-4.989 6.336-8.29c7.516-3.302 10.39.943 10.39.943s-1.039-3.096-6.321-2.659c-5.813.481-8.874 4.356-8.874 4.356s-2.71 2.803-1.531 5.65"/>
        <path fill="#FEF2DE" d="M80.265 148.149s1.179 4.989-6.336 8.29c-7.516 3.302-10.39-.943-10.39-.943s1.038 3.096 6.321 2.658c5.813-.48 8.874-4.355 8.874-4.355s2.71-2.803 1.53-5.65"/>
        <g transform="translate(62.323 147.86)">
            <mask id="m" fill="#fff">
                <use xlink:href="#l"/>
            </mask>
            <path fill="#EBAA20" d="M.024 8.883s.85 1.934.97 2.21c.122.275 1.578 2.947 6.68 2.667 4.958-.272 7.92-2.336 9.667-3.918 1.567-1.418 3.78-3.825 3.355-6.933 0 0-.011-.43-1.005-2.57 0 0 1.265 2.73-1.811 6.228-3.077 3.496-8.606 5.588-11.994 5.268-3.388-.32-4.981-1.268-5.862-2.952" mask="url(#m)"/>
        </g>
        <path fill="#FEF2DE" d="M72.316 152.608c-.494.217-1.003.153-1.134-.145-.13-.297.167-.715.66-.932.495-.217 1.004-.153 1.134.144.13.297-.166.716-.66.933m-1.816-4.134c-2.898 1.273-4.633 3.724-3.868 5.465.764 1.74 3.744 2.12 6.641.847a9.324 9.324 0 0 0 1.398-.76l.022-.016.037-.028a.44.44 0 0 0 .032-.029l.028-.027a.305.305 0 0 0 .027-.033l.02-.029a.302.302 0 0 0 .034-.062l.01-.031a.227.227 0 0 0 .006-.088.13.13 0 0 0-.007-.03l-.004-.016-1.415-3.223c-.257-.585-1.26-.713-2.234-.284-.515.226-.944.574-1.177.958-.11.178-.016.334.208.348.223.014.493-.119.601-.297.119-.194.337-.372.598-.486.474-.209.96-.157 1.115.11a2.935 2.935 0 0 0-.959.245c-.974.428-1.558 1.252-1.3 1.838.256.585 1.258.713 2.232.285.328-.144.61-.333.832-.542l.539 1.226c-.278.165-.57.316-.872.448-2.418 1.063-4.904.745-5.542-.707-.638-1.451.81-3.497 3.228-4.559 2.418-1.062 4.903-.745 5.54.707.28.633.168 1.411-.31 2.192-.11.178-.017.334.206.35.223.014.493-.119.602-.297.574-.936.707-1.869.374-2.627-.765-1.74-3.744-2.121-6.642-.848"/>
    </g>
</svg>
