<svg xmlns="http://www.w3.org/2000/svg" width="180" height="164" viewBox="0 0 180 164">
    <g fill="none" fill-rule="evenodd">
        <ellipse cx="90" cy="145.5" fill="#8B572A" opacity=".498" rx="90" ry="18.5"/>
        <path fill="#FEFEFE" d="M39.484 42.859l2.8 3.526s1.723 1.884 5.591 2.132c3.87.25 7.647-1.563 10.371-3.01 2.725-1.447 6.34-4.675 8.751-8.67 2.411-3.996 2.846-7.585 1.537-10.677 0 0-2.62-3.795-3.482-4.552l-25.568 21.25z"/>
        <path fill="#FFCB04" d="M65.42 22.028c3.57 4.447.66 12.714-6.502 18.466-7.163 5.752-15.863 6.81-19.434 2.365-3.57-4.447-.66-12.714 6.502-18.466 7.163-5.751 15.864-6.811 19.434-2.365"/>
        <path fill="#CA952B" d="M41.255 41.16s-3.782-7.009 6.16-14.993c9.941-7.984 15.964-2.776 15.964-2.776s-2.806-4.226-10.553-1.438C44.3 25.02 41.272 32.067 41.272 32.067s-2.933 5.298-.017 9.093"/>
        <path fill="#FEF2DE" d="M63.345 23.341s3.781 7.008-6.16 14.992c-9.94 7.984-15.964 2.777-15.964 2.777s2.806 4.225 10.554 1.437c8.525-3.066 11.553-10.113 11.553-10.113s2.934-5.299.017-9.093"/>
        <path fill="#EBAA20" d="M39.936 43.462l2.348 2.923c.293.365 3.555 3.784 11.093 1.305 7.329-2.408 10.938-6.698 12.922-9.776 1.777-2.76 4.125-7.263 2.235-11.754 0 0-.192-.64-2.545-3.45 0 0 3 3.589-.205 10.074C62.58 39.27 55.131 44.64 49.92 45.525c-5.211.886-7.983.107-9.984-2.063"/>
        <path fill="#FEF2DE" d="M53.221 33.237c-.654.524-1.442.632-1.758.24-.316-.393-.04-1.14.614-1.666.654-.524 1.443-.632 1.758-.24.315.393.04 1.14-.614 1.666m-4.391-5.468c-3.833 3.078-5.447 7.456-3.598 9.758 1.848 2.302 6.47 1.67 10.304-1.409a14.558 14.558 0 0 0 1.79-1.704c.01-.01.017-.022.026-.033a1.015 1.015 0 0 0 .112-.166l.027-.06.02-.05.015-.057c.004-.018.006-.035.008-.051a.387.387 0 0 0-.008-.145l-.013-.042a.368.368 0 0 0-.024-.042c-.005-.007-.007-.014-.013-.021l-3.422-4.262c-.622-.774-2.177-.562-3.466.474-.68.546-1.184 1.244-1.38 1.91-.09.313.112.51.453.44s.692-.378.783-.689c.1-.339.354-.693.7-.97.627-.504 1.377-.622 1.715-.284a4.563 4.563 0 0 0-1.338.753c-1.289 1.036-1.831 2.508-1.21 3.282.622.775 2.177.562 3.465-.472.433-.35.78-.746 1.029-1.15l1.302 1.622c-.35.36-.727.704-1.127 1.025-3.198 2.569-7.055 3.096-8.597 1.175-1.543-1.92-.196-5.572 3.002-8.141 3.198-2.568 7.055-3.095 8.597-1.174.672.836.82 2.048.418 3.411-.093.313.109.51.45.442.34-.068.691-.376.784-.688.483-1.635.305-3.088-.5-4.09-1.85-2.303-6.472-1.671-10.304 1.408"/>
        <path fill="#FEFEFE" d="M88.648 40.007l2.8 3.526s1.723 1.885 5.591 2.133c3.87.248 7.647-1.564 10.371-3.01 2.725-1.448 6.338-4.676 8.75-8.671 2.412-3.996 2.846-7.585 1.538-10.677 0 0-2.62-3.795-3.483-4.552L88.648 40.007z"/>
        <path fill="#FFCB04" d="M114.584 19.177c3.57 4.446.66 12.714-6.502 18.465-7.163 5.752-15.864 6.811-19.434 2.365-3.57-4.446-.66-12.713 6.502-18.465 7.163-5.752 15.863-6.812 19.434-2.365"/>
        <path fill="#CA952B" d="M90.419 38.308s-3.781-7.009 6.16-14.992c9.94-7.985 15.964-2.777 15.964-2.777s-2.806-4.225-10.554-1.438c-8.524 3.067-11.553 10.114-11.553 10.114s-2.934 5.299-.017 9.093"/>
        <path fill="#FEF2DE" d="M112.509 20.49s3.781 7.008-6.16 14.992c-9.941 7.984-15.964 2.776-15.964 2.776s2.806 4.226 10.554 1.438c8.524-3.067 11.553-10.114 11.553-10.114s2.934-5.299.017-9.093"/>
        <path fill="#EBAA20" d="M89.1 40.61l2.348 2.923c.293.366 3.555 3.785 11.092 1.306 7.329-2.41 10.939-6.698 12.922-9.777 1.778-2.76 4.126-7.263 2.236-11.754 0 0-.192-.64-2.545-3.45 0 0 3 3.589-.205 10.075-3.204 6.485-10.653 11.854-15.864 12.74-5.211.887-7.983.108-9.984-2.062"/>
        <path fill="#FEF2DE" d="M102.385 30.385c-.654.525-1.443.632-1.758.24-.316-.393-.04-1.14.613-1.665.655-.525 1.443-.632 1.759-.24.315.393.04 1.14-.614 1.665m-4.392-5.468c-3.833 3.078-5.447 7.456-3.598 9.758 1.849 2.302 6.471 1.67 10.305-1.408a14.671 14.671 0 0 0 1.79-1.704c.01-.011.017-.023.025-.033l.045-.057a.648.648 0 0 0 .067-.11l.028-.06a.527.527 0 0 0 .046-.21c.001-.015 0-.031-.002-.047s-.006-.03-.01-.046a.615.615 0 0 0-.013-.04.28.28 0 0 0-.024-.043l-.011-.022-3.424-4.262c-.622-.773-2.176-.562-3.465.474-.681.547-1.184 1.244-1.38 1.911-.09.312.111.509.452.44.342-.07.692-.378.783-.69.1-.339.355-.692.7-.97.628-.504 1.378-.622 1.716-.284a4.558 4.558 0 0 0-1.338.755c-1.29 1.034-1.832 2.507-1.21 3.28.622.775 2.176.563 3.465-.472.433-.348.78-.746 1.028-1.15l1.303 1.623c-.35.36-.727.703-1.127 1.025-3.199 2.568-7.055 3.095-8.597 1.175-1.543-1.921-.196-5.573 3.001-8.142 3.199-2.568 7.055-3.095 8.598-1.174.672.837.82 2.049.417 3.412-.092.312.11.51.45.441.342-.068.693-.376.784-.687.484-1.635.307-3.088-.5-4.091-1.849-2.302-6.471-1.67-10.304 1.408"/>
        <path fill="#FEFEFE" d="M37.275 54.378l3.53 4.267s2.165 2.275 6.928 2.486c4.764.21 9.364-2.11 12.679-3.957 3.314-1.846 7.68-5.905 10.546-10.877 2.869-4.972 3.314-9.396 1.63-13.165 0 0-3.317-4.603-4.395-5.512L37.275 54.378z"/>
        <path fill="#FFCB04" d="M68.657 28.128c4.5 5.379 1.122 15.617-7.543 22.865-8.666 7.249-19.338 8.765-23.838 3.386-4.5-5.38-1.124-15.617 7.542-22.866 8.665-7.25 19.338-8.765 23.839-3.385"/>
        <path fill="#CA952B" d="M39.411 52.246S34.59 43.72 46.618 33.66c12.028-10.063 19.562-3.807 19.562-3.807s-3.554-5.127-13.013-1.509c-10.406 3.98-13.958 12.72-13.958 12.72s-3.477 6.588.202 11.182"/>
        <path fill="#FEF2DE" d="M66.137 29.793s4.822 8.524-7.206 18.585c-12.028 10.064-19.563 3.807-19.563 3.807s3.555 5.128 13.014 1.51c10.406-3.982 13.957-12.72 13.957-12.72s3.477-6.588-.202-11.182"/>
        <path fill="#EBAA20" d="M37.846 55.11l2.959 3.536c.369.441 4.464 4.567 13.672 1.334 8.952-3.143 13.286-8.506 15.65-12.34 2.118-3.437 4.894-9.032 2.46-14.508 0 0-.252-.782-3.214-4.18 0 0 3.776 4.339-.004 12.392-3.781 8.053-12.809 14.84-19.196 16.057-6.386 1.218-9.813.329-12.327-2.291"/>
        <path fill="#FEF2DE" d="M53.93 42.209c-.79.662-1.758.814-2.155.339-.397-.476-.077-1.4.714-2.063.791-.661 1.758-.814 2.156-.338.398.475.077 1.4-.714 2.062m-5.534-6.616c-4.638 3.88-6.516 9.302-4.185 12.087 2.33 2.786 7.998 1.896 12.635-1.984a17.79 17.79 0 0 0 2.16-2.14c.013-.013.021-.027.032-.04l.052-.07a1.056 1.056 0 0 0 .113-.212.607.607 0 0 0 .04-.133.555.555 0 0 0 .009-.184.668.668 0 0 0-.031-.107.386.386 0 0 0-.03-.051l-.016-.027-4.314-5.156c-.783-.937-2.689-.637-4.249.667-.825.69-1.426 1.558-1.65 2.384-.104.385.15.622.567.53.418-.095.842-.482.947-.867.113-.419.418-.86.836-1.21.759-.635 1.679-.799 2.103-.392a5.618 5.618 0 0 0-1.627.96c-1.56 1.305-2.191 3.128-1.407 4.065.783.937 2.69.638 4.249-.667a5.64 5.64 0 0 0 1.237-1.437l1.64 1.961c-.42.452-.875.884-1.36 1.29-3.87 3.236-8.599 3.979-10.543 1.655-1.944-2.324-.378-6.848 3.491-10.085 3.87-3.237 8.6-3.98 10.543-1.655.848 1.013 1.06 2.5.597 4.186-.105.384.147.622.565.53.417-.091.841-.478.948-.864.553-2.022.299-3.804-.717-5.019-2.33-2.785-7.998-1.894-12.635 1.985"/>
        <path fill="#FEFEFE" d="M97.734 29.471l-3.528 4.267s-2.166 2.275-6.93 2.486c-4.763.21-9.364-2.11-12.678-3.957-3.315-1.845-7.68-5.905-10.547-10.877-2.867-4.972-3.313-9.396-1.628-13.165 0 0 3.315-4.603 4.394-5.512L97.734 29.47z"/>
        <path fill="#FFCB04" d="M66.353 3.22c-4.5 5.38-1.123 15.617 7.542 22.867 8.667 7.248 19.34 8.764 23.839 3.385 4.5-5.38 1.124-15.618-7.543-22.866C81.526-.644 70.853-2.16 66.353 3.22"/>
        <path fill="#CA952B" d="M95.598 27.339s4.822-8.525-7.206-18.587-19.563-3.806-19.563-3.806S72.384-.18 81.843 3.437C92.249 7.417 95.8 16.157 95.8 16.157s3.477 6.587-.202 11.182"/>
        <path fill="#FEF2DE" d="M68.872 4.886S64.05 13.41 76.08 23.472c12.028 10.062 19.563 3.806 19.563 3.806s-3.556 5.128-13.014 1.51c-10.406-3.982-13.958-12.72-13.958-12.72s-3.477-6.589.202-11.182"/>
        <path fill="#EBAA20" d="M97.163 30.203l-2.957 3.536c-.37.441-4.466 4.566-13.673 1.334-8.953-3.143-13.287-8.506-15.65-12.34-2.118-3.437-4.895-9.033-2.46-14.508 0 0 .252-.782 3.214-4.18 0 0-3.777 4.339.004 12.392 3.78 8.053 12.809 14.84 19.196 16.057 6.385 1.218 9.813.328 12.326-2.291"/>
        <path fill="#FEF2DE" d="M80.365 15.24c.397-.475 1.365-.324 2.155.339.792.661 1.112 1.587.714 2.062-.396.475-1.364.323-2.155-.34-.792-.661-1.112-1.586-.714-2.061m-6.389-6.538c-1.014 1.214-1.27 2.996-.715 5.018.106.385.53.772.948.864.417.092.67-.145.564-.53-.461-1.687-.25-3.174.598-4.187 1.943-2.323 6.673-1.58 10.542 1.656 3.869 3.237 5.436 7.76 3.492 10.084-1.944 2.325-6.673 1.582-10.544-1.655-.484-.405-.94-.837-1.36-1.289l1.642-1.962c.295.502.712 1 1.236 1.438 1.559 1.305 3.466 1.604 4.25.667.783-.937.151-2.76-1.408-4.065a5.646 5.646 0 0 0-1.627-.96c.424-.406 1.344-.242 2.102.392.418.35.724.792.837 1.21.105.385.528.773.946.866.418.093.671-.144.567-.529-.224-.825-.825-1.695-1.65-2.384-1.56-1.305-3.465-1.604-4.249-.667l-4.313 5.156c-.007.008-.01.019-.016.026a.428.428 0 0 0-.03.052c-.007.016-.012.033-.018.05a.467.467 0 0 0-.015.179l.01.062.018.07a1.637 1.637 0 0 0 .056.136 1.173 1.173 0 0 0 .08.138c.016.023.033.047.052.07l.03.042c.645.759 1.37 1.479 2.16 2.14 4.638 3.878 10.307 4.768 12.637 1.983 2.33-2.786.453-8.207-4.185-12.087-4.638-3.88-10.306-4.77-12.637-1.984"/>
        <path fill="#FEFEFE" d="M137.066 55.487l-3.53 4.267s-2.165 2.275-6.928 2.485c-4.763.21-9.364-2.11-12.679-3.956-3.314-1.846-7.68-5.905-10.547-10.878-2.868-4.971-3.313-9.395-1.628-13.165 0 0 3.316-4.603 4.394-5.512l30.918 26.759z"/>
        <path fill="#FFCB04" d="M105.684 29.236c-4.5 5.38-1.122 15.617 7.543 22.865 8.666 7.25 19.338 8.766 23.838 3.386s1.124-15.617-7.542-22.866c-8.665-7.25-19.339-8.764-23.839-3.385"/>
        <path fill="#CA952B" d="M134.93 53.354s4.822-8.525-7.207-18.587c-12.028-10.062-19.563-3.805-19.563-3.805s3.556-5.128 13.014-1.51c10.406 3.98 13.958 12.72 13.958 12.72s3.477 6.588-.202 11.182"/>
        <path fill="#FEF2DE" d="M108.204 30.9s-4.822 8.526 7.206 18.587c12.028 10.062 19.563 3.807 19.563 3.807s-3.555 5.126-13.014 1.509C111.553 50.822 108 42.083 108 42.083s-3.476-6.588.203-11.183"/>
        <path fill="#EBAA20" d="M136.495 56.218l-2.959 3.536c-.37.442-4.464 4.566-13.673 1.334-8.952-3.142-13.285-8.505-15.65-12.34-2.118-3.437-4.893-9.032-2.46-14.508 0 0 .253-.781 3.215-4.18 0 0-3.776 4.34.004 12.393 3.781 8.053 12.81 14.838 19.196 16.056 6.386 1.219 9.814.328 12.327-2.29"/>
        <path fill="#FEF2DE" d="M119.696 41.255c.398-.475 1.365-.323 2.156.34.791.66 1.112 1.586.714 2.061-.398.475-1.364.324-2.156-.339-.791-.662-1.111-1.587-.714-2.062m-6.388-6.538c-1.015 1.214-1.27 2.996-.715 5.018.105.386.53.772.947.865.417.092.67-.146.565-.531-.463-1.687-.251-3.173.596-4.186 1.945-2.324 6.674-1.582 10.544 1.655 3.869 3.237 5.435 7.76 3.491 10.085-1.944 2.324-6.674 1.581-10.543-1.655-.484-.406-.94-.838-1.361-1.29l1.642-1.961c.296.501.712.999 1.237 1.437 1.558 1.304 3.465 1.604 4.248.668.783-.937.153-2.76-1.407-4.066a5.646 5.646 0 0 0-1.627-.96c.425-.406 1.344-.242 2.102.393.419.349.724.79.838 1.21.104.385.528.772.945.865.418.094.672-.143.568-.528-.224-.826-.826-1.695-1.65-2.385-1.56-1.304-3.466-1.604-4.25-.667l-4.313 5.156c-.007.008-.01.019-.016.027a.339.339 0 0 0-.06.158.469.469 0 0 0-.002.122.645.645 0 0 0 .027.133.892.892 0 0 0 .091.202 1.343 1.343 0 0 0 .097.141c.01.014.019.028.031.042.644.76 1.37 1.48 2.16 2.14 4.638 3.879 10.307 4.768 12.637 1.983 2.33-2.785.452-8.207-4.186-12.087-4.637-3.88-10.306-4.77-12.636-1.984"/>
        <path fill="#FEFEFE" d="M93.235 39.44l1.805 5.235s.813 3.033-1.488 7.209c-2.302 4.175-6.68 6.894-9.982 8.761-3.302 1.868-9.042 3.48-14.779 3.337-5.738-.142-9.746-2.067-12.086-5.468 0 0-2.202-5.228-2.416-6.623L93.235 39.44z"/>
        <path fill="#FFCB04" d="M54.48 52.552c2.248 6.643 12.746 9.094 23.448 5.473 10.701-3.62 17.556-11.941 15.307-18.585-2.247-6.644-12.745-9.095-23.447-5.473-10.702 3.62-17.555 11.94-15.307 18.585"/>
        <path fill="#CA952B" d="M90.302 40.152s-4.764-8.557-19.619-3.53c-14.854 5.025-13.44 14.716-13.44 14.716s-2.525-5.705 5.491-11.895c8.82-6.81 18.128-5.288 18.128-5.288s7.436.463 9.44 5.997"/>
        <path fill="#FEF2DE" d="M57.214 51.27s4.764 8.555 19.62 3.53c14.854-5.027 13.439-14.717 13.439-14.717s2.525 5.706-5.49 11.894c-8.82 6.81-18.129 5.29-18.129 5.29s-7.435-.464-9.44-5.998"/>
        <path fill="#EBAA20" d="M93.563 40.308l1.477 4.367c.185.545 1.572 6.19-5.984 12.366-7.346 6.004-14.181 6.91-18.686 6.931-4.037.017-10.259-.527-13.665-5.458 0 0-.536-.623-1.893-4.921 0 0 1.735 5.484 10.58 6.452 8.844.967 19.338-3.203 23.705-8.021 4.366-4.817 5.392-8.206 4.466-11.716"/>
        <path fill="#FEF2DE" d="M72.04 46.853c-.2-.587.434-1.334 1.41-1.664.978-.33 1.935-.122 2.134.465.198.587-.435 1.333-1.412 1.663-.978.33-1.934.123-2.132-.464M63.13 48.9c.507 1.5 1.896 2.644 3.91 3.224.384.111.936-.05 1.232-.358.296-.308.225-.648-.16-.758-1.68-.484-2.837-1.44-3.261-2.69-.971-2.871 2.126-6.52 6.905-8.138 4.778-1.616 9.456-.597 10.427 2.273.971 2.87-2.126 6.52-6.905 8.138-.599.201-1.205.365-1.809.49l-.82-2.424a5.617 5.617 0 0 0 1.87-.305c1.927-.653 3.175-2.124 2.784-3.28-.391-1.158-2.276-1.569-4.202-.917-.645.219-1.21.53-1.668.89-.125-.575.493-1.275 1.43-1.592.517-.175 1.052-.206 1.469-.084.383.11.934-.049 1.232-.356.297-.308.227-.648-.156-.76-.822-.239-1.876-.178-2.895.167-1.925.652-3.174 2.122-2.783 3.28l2.155 6.367c.004.01.01.017.014.027a.433.433 0 0 0 .029.053.412.412 0 0 0 .123.115.523.523 0 0 0 .182.077 1.383 1.383 0 0 0 .146.024 1.169 1.169 0 0 0 .246-.005c.017-.002.033-.002.051-.005a17.8 17.8 0 0 0 2.952-.729c5.727-1.938 9.44-6.313 8.276-9.753-1.164-3.44-6.77-4.662-12.497-2.724-5.728 1.937-9.44 6.313-8.277 9.753"/>
        <path fill="#FEFEFE" d="M78.154 46.284l-1.804 5.235s-.814 3.033 1.488 7.21c2.302 4.175 6.68 6.893 9.982 8.76 3.303 1.868 9.041 3.48 14.778 3.337 5.738-.141 9.747-2.067 12.086-5.467 0 0 2.202-5.228 2.418-6.623L78.154 46.284z"/>
        <path fill="#FFCB04" d="M116.91 59.396c-2.25 6.644-12.747 9.094-23.448 5.473-10.702-3.62-17.555-11.941-15.308-18.585 2.248-6.644 12.746-9.094 23.448-5.473 10.702 3.621 17.555 11.942 15.307 18.585"/>
        <path fill="#CA952B" d="M81.087 46.996s4.765-8.556 19.62-3.53 13.44 14.716 13.44 14.716 2.524-5.705-5.492-11.894c-8.819-6.81-18.128-5.29-18.128-5.29s-7.435.465-9.44 5.998"/>
        <path fill="#FEF2DE" d="M114.176 58.113s-4.765 8.557-19.62 3.53c-14.855-5.025-13.44-14.716-13.44-14.716s-2.524 5.706 5.491 11.895c8.819 6.81 18.129 5.289 18.129 5.289s7.435-.464 9.44-5.998"/>
        <path fill="#EBAA20" d="M77.828 47.152L76.35 51.52c-.185.546-1.572 6.19 5.984 12.366 7.346 6.005 14.18 6.91 18.685 6.931 4.037.018 10.26-.526 13.666-5.457 0 0 .537-.623 1.893-4.922 0 0-1.736 5.484-10.58 6.452s-19.339-3.203-23.705-8.02c-4.367-4.818-5.392-8.206-4.465-11.717"/>
        <path fill="#FEF2DE" d="M97.219 54.162c-.978-.331-1.611-1.078-1.412-1.665.197-.587 1.154-.794 2.131-.464.978.33 1.61 1.077 1.412 1.664-.199.587-1.155.795-2.131.465m2.764-8.17c-5.728-1.939-11.334-.717-12.499 2.723-1.164 3.44 2.55 7.815 8.278 9.753.975.33 1.967.575 2.95.73l.052.004a.996.996 0 0 0 .246.005c.028-.002.054-.006.08-.01a.88.88 0 0 0 .193-.06.374.374 0 0 0 .055-.03.359.359 0 0 0 .048-.034c.016-.013.029-.027.042-.04l.034-.041.028-.053c.003-.01.011-.017.014-.027l2.155-6.368c.39-1.157-.858-2.629-2.784-3.28-1.018-.345-2.072-.404-2.894-.167-.384.112-.453.452-.156.76.297.308.849.467 1.232.356.417-.12.952-.09 1.47.084.936.318 1.555 1.017 1.43 1.59A5.619 5.619 0 0 0 98.287 51c-1.926-.652-3.81-.241-4.203.916-.39 1.157.857 2.628 2.784 3.28a5.661 5.661 0 0 0 1.871.306l-.82 2.423a14.999 14.999 0 0 1-1.81-.49c-4.778-1.617-7.875-5.267-6.904-8.138.97-2.87 5.648-3.89 10.427-2.272 4.778 1.616 7.876 5.267 6.905 8.137-.423 1.25-1.582 2.206-3.262 2.69-.384.111-.456.45-.16.759.297.308.848.468 1.232.358 2.015-.58 3.404-1.726 3.91-3.225 1.165-3.44-2.548-7.815-8.275-9.753"/>
        <path fill="#FEFEFE" d="M86.308 27.635l2.8 3.526s1.723 1.885 5.591 2.133c3.87.249 7.647-1.563 10.371-3.01 2.725-1.447 6.34-4.675 8.75-8.67 2.412-3.996 2.846-7.585 1.538-10.677 0 0-2.621-3.795-3.482-4.553L86.308 27.635z"/>
        <path fill="#FFCB04" d="M112.244 6.805c3.57 4.447.66 12.714-6.502 18.465-7.163 5.752-15.864 6.812-19.434 2.366-3.57-4.447-.66-12.714 6.502-18.466 7.163-5.752 15.863-6.811 19.434-2.365"/>
        <path fill="#CA952B" d="M88.08 25.936s-3.782-7.008 6.159-14.991c9.941-7.985 15.964-2.777 15.964-2.777s-2.806-4.225-10.554-1.438c-8.524 3.066-11.553 10.114-11.553 10.114s-2.934 5.298-.017 9.092"/>
        <path fill="#FEF2DE" d="M110.17 8.118s3.78 7.008-6.16 14.992c-9.942 7.984-15.965 2.777-15.965 2.777s2.806 4.225 10.554 1.437c8.524-3.066 11.553-10.113 11.553-10.113s2.934-5.299.017-9.093"/>
        <path fill="#EBAA20" d="M86.76 28.24l2.348 2.922c.293.365 3.555 3.785 11.092 1.306 7.33-2.41 10.939-6.699 12.923-9.778 1.777-2.76 4.125-7.262 2.235-11.753 0 0-.192-.64-2.545-3.45 0 0 2.999 3.588-.205 10.074-3.204 6.485-10.652 11.854-15.864 12.74-5.211.887-7.983.109-9.984-2.062"/>
        <path fill="#FEF2DE" d="M100.044 18.013c-.653.525-1.441.632-1.757.24-.315-.392-.04-1.14.614-1.664.654-.526 1.443-.633 1.758-.241.315.393.04 1.14-.615 1.665m-4.39-5.468c-3.834 3.078-5.448 7.456-3.599 9.759 1.849 2.302 6.472 1.67 10.305-1.41a14.55 14.55 0 0 0 1.79-1.703c.01-.01.017-.022.025-.033a.648.648 0 0 0 .112-.166.873.873 0 0 0 .047-.11 2.06 2.06 0 0 0 .025-.108.387.387 0 0 0-.023-.186.226.226 0 0 0-.024-.042c-.005-.007-.007-.016-.012-.023l-3.423-4.261c-.622-.774-2.176-.562-3.465.473-.681.547-1.183 1.244-1.38 1.912-.09.311.112.508.453.439.34-.07.692-.377.783-.689.1-.339.355-.693.7-.97.627-.504 1.377-.622 1.716-.284a4.552 4.552 0 0 0-1.34.754c-1.288 1.035-1.83 2.507-1.209 3.281.622.774 2.176.562 3.465-.473a4.56 4.56 0 0 0 1.028-1.149l1.303 1.622c-.349.36-.727.704-1.127 1.025-3.199 2.569-7.055 3.096-8.598 1.175-1.542-1.92-.195-5.573 3.002-8.142 3.199-2.568 7.055-3.095 8.598-1.174.672.838.82 2.05.417 3.412-.091.313.11.51.45.442.342-.069.692-.377.785-.688.483-1.635.306-3.088-.5-4.09-1.849-2.303-6.472-1.67-10.305 1.407"/>
        <path fill="#FEFEFE" d="M64.103 26.93l-.004 4.503s.177 2.547 3.05 5.149c2.873 2.603 6.958 3.536 9.991 4.099 3.033.563 7.871.285 12.246-1.34 4.374-1.627 6.947-4.166 7.847-7.4 0 0 .312-4.602.108-5.73l-33.238.72z"/>
        <path fill="#FFCB04" d="M97.368 26.77c.027 5.701-7.397 10.36-16.582 10.405-9.187.044-16.655-4.543-16.683-10.245-.027-5.703 7.397-10.361 16.583-10.406 9.185-.044 16.654 4.542 16.682 10.245"/>
        <path fill="#CA952B" d="M66.546 26.702s1.403-7.838 14.153-7.9c12.75-.061 14.223 7.764 14.223 7.764s.434-5.055-7.365-7.695c-8.58-2.906-15.337.724-15.337.724s-5.594 2.323-5.674 7.107"/>
        <path fill="#FEF2DE" d="M94.927 26.505s-1.403 7.839-14.153 7.9c-12.75.062-14.223-7.762-14.223-7.762s-.434 5.053 7.366 7.694c8.581 2.905 15.337-.725 15.337-.725s5.594-2.322 5.673-7.107"/>
        <path fill="#EBAA20" d="M64.081 27.684l.018 3.748c.002.47.428 5.175 7.87 7.928 7.236 2.675 12.731 1.565 16.2.39 3.108-1.054 7.749-3.117 9.065-7.808 0 0 .248-.62.155-4.285 0 0 .114 4.676-6.43 7.757-6.545 3.082-15.717 2.649-20.348.098-4.63-2.55-6.315-4.884-6.53-7.828"/>
        <path fill="#FEF2DE" d="M80.843 27.948c-.838.005-1.522-.402-1.525-.905-.002-.503.678-.918 1.517-.922.838-.003 1.523.403 1.525.907.003.504-.678.916-1.517.92m-.033-7.013c-4.916.025-8.904 2.446-8.89 5.399.014 2.952 4.025 5.335 8.941 5.311a14.668 14.668 0 0 0 2.463-.219c.014-.002.027-.007.04-.01.024-.005.048-.01.07-.017a.524.524 0 0 0 .065-.022l.056-.022c.021-.009.04-.02.059-.03l.047-.027.048-.035a.54.54 0 0 0 .072-.073c.01-.012.02-.024.027-.038a.33.33 0 0 0 .037-.082.208.208 0 0 0 .007-.049c.001-.009.005-.016.005-.024l-.026-5.466c-.005-.993-1.354-1.794-3.007-1.787-.874.005-1.702.237-2.27.638-.265.187-.229.467.08.625.31.159.777.135 1.042-.052.289-.203.708-.321 1.151-.323.806-.004 1.466.37 1.52.845a4.563 4.563 0 0 0-1.517-.242c-1.653.008-2.993.822-2.988 1.815.004.992 1.353 1.793 3.006 1.786a4.577 4.577 0 0 0 1.52-.259l.01 2.08c-.497.064-1.007.098-1.52.1-4.103.02-7.449-1.967-7.46-4.43-.013-2.464 3.315-4.485 7.416-4.504 4.101-.02 7.448 1.967 7.46 4.431.005 1.074-.633 2.115-1.797 2.931-.267.186-.232.466.079.625.308.16.775.137 1.04-.05 1.396-.979 2.161-2.226 2.155-3.513-.015-2.952-4.026-5.336-8.941-5.312"/>
        <path fill="#FEFEFE" d="M107.473 24.062l-1.38 4.287s-.612 2.478 1.329 5.836c1.94 3.356 5.543 5.493 8.258 6.957 2.716 1.463 7.407 2.679 12.07 2.469 4.661-.21 7.888-1.841 9.734-4.644 0 0 1.704-4.287 1.854-5.425l-31.865-9.48z"/>
        <path fill="#FFCB04" d="M139.194 34.083c-1.718 5.438-10.212 7.602-18.97 4.836-8.76-2.768-14.468-9.42-12.75-14.857 1.717-5.437 10.21-7.602 18.97-4.834 8.759 2.766 14.467 9.417 12.75 14.855"/>
        <path fill="#CA952B" d="M109.87 24.594s3.732-7.035 15.89-3.194c12.158 3.84 11.168 11.74 11.168 11.74s1.958-4.678-4.66-9.577c-7.281-5.39-14.823-4.001-14.823-4.001s-6.037.5-7.576 5.032"/>
        <path fill="#FEF2DE" d="M136.95 33.085s-3.732 7.034-15.89 3.194c-12.159-3.841-11.168-11.741-11.168-11.741s-1.958 4.679 4.66 9.578c7.281 5.39 14.824 4 14.824 4s6.035-.5 7.574-5.031"/>
        <path fill="#EBAA20" d="M107.222 24.774l-1.13 3.575c-.14.446-1.175 5.057 5.069 9.953 6.071 4.76 11.642 5.383 15.304 5.326 3.282-.051 8.331-.597 11.019-4.661 0 0 .426-.515 1.458-4.033 0 0-1.32 4.487-8.494 5.42-7.174.932-15.774-2.285-19.402-6.13-3.63-3.843-4.52-6.581-3.824-9.45"/>
        <path fill="#FEF2DE" d="M123.1 30.152c-.799-.252-1.327-.849-1.175-1.329.152-.48.927-.665 1.726-.413.8.253 1.327.85 1.175 1.33-.152.48-.926.665-1.726.412m2.114-6.687c-4.689-1.48-9.226-.395-10.116 2.42-.889 2.816 2.202 6.311 6.889 7.792.798.252 1.61.436 2.411.544.014.002.028.002.043.003a1.102 1.102 0 0 0 .138.005c.022 0 .041-.003.06-.004l.066-.01c.019-.003.036-.008.054-.013l.055-.017a.67.67 0 0 0 .09-.048.347.347 0 0 0 .072-.062c.01-.011.02-.021.027-.034a.292.292 0 0 0 .023-.043c.003-.007.008-.014.01-.022l1.647-5.212c.3-.947-.74-2.123-2.316-2.62-.833-.263-1.692-.295-2.356-.088-.31.097-.36.375-.114.62.247.246.698.367 1.007.27.337-.106.772-.09 1.195.044.767.242 1.282.8 1.19 1.268a4.6 4.6 0 0 0-1.37-.694c-1.577-.498-3.103-.133-3.402.814-.3.947.74 2.122 2.316 2.62a4.55 4.55 0 0 0 1.526.219l-.627 1.983a12.221 12.221 0 0 1-1.478-.37c-3.911-1.235-6.49-4.15-5.747-6.5.742-2.348 4.528-3.255 8.44-2.02 3.91 1.237 6.488 4.152 5.746 6.502-.323 1.024-1.25 1.82-2.607 2.24-.31.097-.363.374-.117.62s.696.366 1.007.27c1.627-.504 2.738-1.459 3.125-2.686.89-2.815-2.2-6.31-6.887-7.791"/>
        <path fill="#BC5827" d="M50.327 131.606s-2.819 12.656 0 14.6c2.818 1.944 9.038 1.75 12.342-.972 3.305-2.721 4.737-5.682 4.737-5.682s-8.041-1.359-17.08-7.946"/>
        <path stroke="#5E221F" d="M50.327 131.606s-2.819 12.656 0 14.6c2.818 1.944 9.038 1.75 12.342-.972 3.305-2.721 4.737-5.682 4.737-5.682s-8.041-1.359-17.08-7.946z"/>
        <path fill="#84371C" d="M97.85 142.793s-1.405 6.802-7.505 6.856c-6.1.056-7.267-7.33-7.267-7.33s9.15.902 14.772.474"/>
        <path stroke="#5E221F" d="M97.85 142.793s-1.405 6.802-7.505 6.856c-6.1.056-7.267-7.33-7.267-7.33s9.15.902 14.772.474z"/>
        <path fill="#BC5827" d="M35.262 44.744s-7.774 3.11-6.608 11.662c1.166 8.553 17.105 20.215 59.089 22.159 41.984 1.943 61.033-10.108 63.754-18.66 2.721-8.552-3.499-14.772-9.33-17.105h-4.665s12.829 21.77-45.094 19.826C34.485 60.683 37.595 49.02 37.595 49.02s-3.888 1.166-2.333-4.276"/>
        <path stroke="#5E221F" d="M35.262 44.744s-7.774 3.11-6.608 11.662c1.166 8.553 17.105 20.215 59.089 22.159 41.984 1.943 61.033-10.108 63.754-18.66 2.721-8.552-3.499-14.772-9.33-17.105h-4.665s12.829 21.77-45.094 19.826C34.485 60.683 37.595 49.02 37.595 49.02s-3.888 1.166-2.333-4.276z"/>
        <path fill="#BC5827" d="M35.517 65.783s-1.222 12.99-3.754 22.889c-2.491 9.745.39 49.37 51.315 53.646 50.925 4.277 65.309-21.334 65.697-38.267.39-16.934-4.884-30.31-5.357-35.284 0 0-16.801 12.519-55.675 9.797-38.875-2.72-48.782-9.788-52.226-12.781"/>
        <path stroke="#5E221F" d="M35.517 65.783s-1.222 12.99-3.754 22.889c-2.491 9.745.39 49.37 51.315 53.646 50.925 4.277 65.309-21.334 65.697-38.267.39-16.934-4.884-30.31-5.357-35.284 0 0-16.801 12.519-55.675 9.797-38.875-2.72-48.782-9.788-52.226-12.781z"/>
        <path fill="#A24A23" d="M35.517 65.783C59.59 83.108 118.55 77.387 118.55 77.387l1.85 5.721s-11.827 5.045-45.52 4.009c-33.69-1.037-38.052-15.85-38.052-15.85s-5.427 18.182-1.31 26.735c4.117 8.552 18.698 24.49 54.947 20.603 36.249-3.887 37.125-25.074 37.125-25.074s1.83 3.046 9.904.357c8.074-2.69 3.39-15.979 3.39-15.979l-1.871-6.643 4.406-2.5s8 27.375 4.2 43.207-19.502 23.581-19.502 23.581-16.128 10.59-50.879 6.086c-34.752-4.505-42.59-29.877-42.59-29.877s-5.34-10.476-2.884-23.091c2.457-12.615 3.754-22.89 3.754-22.89"/>
        <path fill="#8C3D1E" d="M36.827 116.547s15.436 22.784 56.065 19.163c40.63-3.62 33.432-11.274 33.432-11.274s-5.984-.946-5.925-9.218c0 0 13.645.376 15.81-5.31 2.166-5.686 0-10.74 0-10.74s-6.264-1.11-8.62-5.637c0 0 1.135 2.008 6.609 1.166 5.473-.842 7.218-1.533 7.774-7.58.558-6.047-2.96-15.85-2.96-15.85l4.406-2.5s10.377 34.614 2.019 49.288c-8.358 14.675-20.143 21.801-41.463 24.263-21.32 2.463-41.605-2.963-50.834-8.803-9.23-5.839-15.114-14.461-16.313-16.968"/>
        <path fill="#BC5827" d="M112.234 137.46s3.495 10.301 6.315 11.467c2.82 1.167 9.818 2.139 10.012-7.386.194-9.524-2.721-10.69-5.248-11.273-2.527-.583-7.775.388-9.524 2.72-1.75 2.333-1.555 4.471-1.555 4.471"/>
        <path stroke="#5E221F" d="M112.234 137.46s3.495 10.301 6.315 11.467c2.82 1.167 9.818 2.139 10.012-7.386.194-9.524-2.721-10.69-5.248-11.273-2.527-.583-7.775.388-9.524 2.72-1.75 2.333-1.555 4.471-1.555 4.471z"/>
        <path fill="#7F6857" d="M120.98 85.562s-6.997 14.967-4.859 23.714c2.138 8.746 12.44 13.022 23.52 12.828 11.078-.194 19.632-8.164 19.63-16.133 0-9.33-10.07-21.16-17.96-25.644 0 0 1.436 7.327.353 9.48 0 0 3.419 3.53 5.751 7.806 2.333 4.276 1.36 11.274-5.442 12.44-6.803 1.166-22.353-3.304-14.384-16.522 0 0-1.944-6.22-6.608-7.969"/>
        <path stroke="#594A41" d="M120.98 85.562s-6.997 14.967-4.859 23.714c2.138 8.746 12.44 13.022 23.52 12.828 11.078-.194 19.632-8.164 19.63-16.133 0-9.33-10.07-21.16-17.96-25.644 0 0 1.436 7.327.353 9.48 0 0 3.419 3.53 5.751 7.806 2.333 4.276 1.36 11.274-5.442 12.44-6.803 1.166-22.353-3.304-14.384-16.522 0 0-1.944-6.22-6.608-7.969z"/>
        <path fill="#7F6857" d="M34.22 76.057s-9.846 7.069-12.208 15.557c-1.424 5.11-.415 13.29 3.11 17.792 3.347 4.276 6.443 5.811 11.705 7.14 0 0-5.243-10.042-5.678-18.058-.455-8.358 1.266-12.566 1.266-12.566s1.444-7.387 1.805-9.865"/>
        <path stroke="#594A41" d="M34.22 76.057s-9.846 7.069-12.208 15.557c-1.424 5.11-.415 13.29 3.11 17.792 3.347 4.276 6.443 5.811 11.705 7.14 0 0-5.243-10.042-5.678-18.058-.455-8.358 1.266-12.566 1.266-12.566s1.444-7.387 1.805-9.865z"/>
        <path fill="#BC5827" d="M118.55 77.387s1.459 6.426 2.43 8.175c0 0 5.054 1.75 6.61 7.97 0 0 .971 2.138 6.608 1.166s7.775-2.721 7.775-7.58c0-4.86-1.84-14.015-2.962-15.852 0 0-8.704 3.971-20.462 6.121"/>
        <path stroke="#5E221F" d="M118.55 77.387s1.459 6.426 2.43 8.175c0 0 5.054 1.75 6.61 7.97 0 0 .971 2.138 6.608 1.166s7.775-2.721 7.775-7.58c0-4.86-1.84-14.015-2.962-15.852 0 0-8.704 3.971-20.462 6.121z"/>
        <path fill="#CE6A3D" d="M101.167 103.614c0 9.549-12.236 11.604-26.586 11.604-20.746 0-28.3-13.152-27.95-20.267.351-7.115 13.474-5.041 27.806-4.335 14.333.706 26.73 2.72 26.73 12.998M111.64 96.587c-.996 2.057-4.49 2.423-7.804.818-3.314-1.607-5.192-4.577-4.194-6.635.998-2.058 4.492-2.424 7.805-.818 3.314 1.607 5.191 4.577 4.194 6.635M38.744 78.4c1.956-.08 3.645 2.412 3.771 5.561.127 3.152-1.357 5.769-3.313 5.848-1.957.078-3.645-2.413-3.772-5.562-.127-3.15 1.357-5.768 3.314-5.847"/>
        <path fill="#A24A23" d="M142.167 42.8s6.316 4.277 1.65 13.218c-4.664 8.94-16.422 17.017-60.739 13.994C40.223 67.09 32.506 58.694 29.073 51.33c0 0-8.504 17.132 38.333 25.293 46.837 8.162 71.836-4.65 76.011-7.857 4.176-3.205 17.703-15.47-1.25-25.966"/>
        <path fill="#8C3D1E" d="M60.542 75.279s54.509 6.396 74.723-6.044c20.215-12.44 6.902-26.434 6.902-26.434s12.344 5.442 9.33 17.104c-3.014 11.663-30.209 18.345-42.655 18.869-12.448.523-39.833-1.728-48.3-3.495"/>
        <path fill="#9D897A" d="M125.222 89.784s-7.126 10.231-6.154 17.548c.972 7.316 6.577 10.801 11.193 13.347 0 0-16.052-3.11-14.174-17.016 1.557-11.52 5.119-17.453 5.119-17.453s1.743 0 4.016 3.574M133.516 113.746s14.772 1.36 17.3-4.86c2.526-6.22 4.47-1.943 3.887 0-.584 1.945-2.333 6.415-8.942 7.581-6.608 1.167-12.05.778-13.8 0-1.75-.777-1.36-2.845 1.555-2.72"/>
        <path fill="#6D5A4D" d="M148.346 100.177s.859 3.395-.471 5.46c0 0 2.163-3.266 5.143-2.73 2.98.537 3.24 3.758 4.276 2.73 1.037-1.026.63-8.84-3.881-14.084-4.513-5.243-5.15-6.095-12.103-11.226 0 0 1.31 5.301.353 9.48 0 0 5.783 5.862 6.683 10.37"/>
        <path fill="#6D5A4D" d="M126.796 91.614S120.752 98.26 124.51 105c3.757 6.738 11.21 7.399 17.462 6.42 6.251-.978 7.447-4.995 8.273-7.975 0 0 .507-2.98-2.83-5.832 0 0 2.26 3.651.458 8.025-1.801 4.373-5.662 4.42-8.478 4.589-2.959.178-9.037-.69-12.934-5.939 0 0-3.05-4.083 1.128-10.756l-.794-1.918zM22.3 103.444s5.029 7.192 6.808 4.47c1.78-2.72-3.664-5.004-1.72-16.3 1.946-11.297 6.832-15.557 6.832-15.557s-2.616 11.452-2.868 14.763c-.252 3.31-1.802 12.2 5.475 25.727 0 0-11.454-1.635-14.528-13.103"/>
        <path fill="#9D897A" d="M27.583 85.368s-3.778 8.642-1.943 15.851c1.834 7.208-1.944 2.031-2.333-.399-.389-2.43-.875-5.83 0-9.038.875-3.207 3.887-7.775 4.276-6.414"/>
        <path fill="#8C3D1E" d="M58.24 136.342s-.724 3.644-3.574 4.94c-2.851 1.296-5.592-1.406-5.592-1.406s-.754 3.22 1.253 6.33c2.007 3.11 9.847 1.475 12.342-.971 2.495-2.447 4.737-5.683 4.737-5.683l-9.166-3.21zM118.55 130.467s-3.888 3.947-1.944 8.483c1.943 4.535 3.784 6.09 6.492 5.96 2.708-.129 4.781-3.031 3.745-7.217-1.037-4.186-1.617-5.87-3.53-7.425 0 0 5.136.168 5.24 9.284.104 9.116-3.136 9.525-6.246 10.098-3.11.573-5.002-1.737-5.002-1.737s-3.612-4.817-5.071-10.454c0 0-.293-6.403 6.315-6.992"/>
        <path fill="#CE6A3D" d="M34.192 53.555s9.977 13.089 41.466 13.736c31.488.648 44.576-.13 51.055-3.24 6.479-3.11-.13-1.166-5.701 0-5.573 1.167-28.669 2.463-47.12 1.167C55.443 63.922 40.153 59.386 34.84 52c0 0-1.426-2.461-1.685-2.202-.26.259-.597 2.072 1.037 3.757"/>
        <path fill="#A24A23" d="M130.913 74.278s5.13 7.033 4.094 10.843c-1.037 3.81-4.094 3.551-4.094 3.551s-2.596-4.384-7.816-4.567c0 0-2.604-2.194-4.547-6.718 0 0 1.363 5.843 2.43 8.175 0 0 4.894 2.074 6.61 7.97 0 0 2.302 2.972 8.876.676s5.932-5.179 5.388-9.53c-.543-4.351-1.103-10.063-2.842-13.412l-8.099 3.012z"/>
    </g>
</svg>
