<svg xmlns="http://www.w3.org/2000/svg" xmlns:xlink="http://www.w3.org/1999/xlink" width="212" height="106" viewBox="0 0 212 106">
    <defs>
        <path id="a" d="M.182.432h120.87v25.51H.182z"/>
        <path id="c" d="M0 .592h87.65v81.062H0z"/>
    </defs>
    <g fill="none" fill-rule="evenodd">
        <ellipse cx="117" cy="93.5" fill="#8B572A" opacity=".495" rx="95" ry="12.5"/>
        <g transform="translate(47.699 71.967)">
            <mask id="b" fill="#fff">
                <use xlink:href="#a"/>
            </mask>
            <path fill="#EBAA20" d="M.182.432v15.025s9.215 10.485 60.69 10.485c51.477 0 60.153-10.485 60.153-10.485l.027-15.025H.182z" mask="url(#b)"/>
        </g>
        <path fill="#FFCB04" d="M169.038 72.385c0 5.776-26.976 10.46-60.252 10.46-33.275 0-60.25-4.684-60.25-10.46 0-5.777 26.975-10.46 60.25-10.46 33.276 0 60.252 4.683 60.252 10.46"/>
        <path fill="#FEF2DE" d="M48.536 71.967s-.173 11.715 60.155 11.715 60.347-11.715 60.347-11.715-4.497 10.227-60.251 10.227c-55.463 0-60.251-10.227-60.251-10.227"/>
        <path fill="#CA8B2A" d="M68.247 81.106v8.642s.497 6.486 7.904 6.486c0 0-20.495-2.04-27.615-8.82V71.967s.256 5.609 19.711 9.139"/>
        <path fill="#FEDC70" d="M157.322 70.711c0 3.93-21.73 7.113-48.535 7.113-26.806 0-48.536-3.184-48.536-7.113 0-3.928 21.73-7.113 48.536-7.113s48.535 3.185 48.535 7.113"/>
        <path fill="#CA952B" d="M60.251 70.293s-.359-6.695 48.536-6.695c47.35 0 48.535 6.695 48.535 6.695s-5.648-4.812-48.535-4.812c-42.888 0-48.536 4.812-48.536 4.812"/>
        <path fill="#FEFBF7" d="M108.8 72.421c-3.307.033-6-.26-6.004-.653-.004-.392 2.684-.737 5.99-.77 3.306-.032 5.998.26 6.002.653.004.393-2.683.738-5.989.77m-.053-5.461c-19.38.188-35.128 2.212-35.106 4.512.023 2.299 15.808 4.016 35.188 3.828 3.299-.032 6.565-.119 9.708-.257l.162-.008.273-.016.256-.019.223-.019a20.79 20.79 0 0 0 .417-.05 4.943 4.943 0 0 0 .473-.086c.041-.01.079-.021.11-.032a.782.782 0 0 0 .086-.033c.023-.011.044-.021.058-.032a.089.089 0 0 0 .032-.038c.003-.006.016-.012.016-.019l-.042-4.256c-.008-.773-5.316-1.35-11.833-1.288-3.445.034-6.708.244-8.954.575-1.048.155-.908.372.31.484 1.221.113 3.059.079 4.107-.076 1.14-.168 2.796-.275 4.544-.292 3.171-.03 5.77.238 5.982.606a87.063 87.063 0 0 0-5.977-.137c-6.518.064-11.813.744-11.805 1.518.007.773 5.315 1.35 11.832 1.287a86.85 86.85 0 0 0 5.994-.254l.016 1.62c-1.962.067-3.97.11-5.995.13-16.17.157-29.34-1.274-29.358-3.193-.019-1.919 13.12-3.608 29.29-3.765 16.169-.157 29.338 1.277 29.357 3.195.008.836-2.52 1.668-7.118 2.345-1.051.153-.917.37.3.483 1.218.113 3.056.08 4.107-.075 5.513-.81 8.543-1.808 8.534-2.81-.022-2.299-15.808-4.017-35.187-3.828"/>
        <path fill="#EBAA20" d="M61.925 56.067v15.279s9.187 10.662 60.506 10.662S182.4 71.346 182.4 71.346l.027-15.28H61.925z"/>
        <path fill="#FFCB04" d="M182.427 56.485c0 5.777-26.976 10.46-60.251 10.46-33.276 0-60.251-4.683-60.251-10.46 0-5.777 26.975-10.46 60.25-10.46 33.276 0 60.252 4.683 60.252 10.46"/>
        <path fill="#FEF2DE" d="M61.925 56.067s-.173 11.715 60.155 11.715 60.347-11.715 60.347-11.715-4.497 10.228-60.251 10.228c-55.463 0-60.251-10.228-60.251-10.228"/>
        <path fill="#CA8B2A" d="M81.637 65.206v8.642s.497 6.487 7.903 6.487c0 0-20.495-2.041-27.615-8.82V56.066s.256 5.609 19.712 9.139"/>
        <path fill="#FEDC70" d="M170.711 54.811c0 3.93-21.73 7.114-48.535 7.114-26.806 0-48.536-3.185-48.536-7.114 0-3.928 21.73-7.112 48.536-7.112s48.535 3.184 48.535 7.112"/>
        <path fill="#CA952B" d="M73.64 54.393s-.359-6.694 48.536-6.694c47.35 0 48.535 6.694 48.535 6.694s-5.648-4.811-48.535-4.811c-42.888 0-48.536 4.811-48.536 4.811"/>
        <path fill="#FEFBF7" d="M122.189 56.522c-3.307.032-6-.261-6.004-.653-.004-.393 2.684-.738 5.99-.77 3.306-.032 5.998.26 6.002.653.004.392-2.682.737-5.988.77m-.054-5.462c-19.38.189-35.128 2.213-35.106 4.512.023 2.299 15.808 4.016 35.188 3.828 3.299-.032 6.565-.118 9.708-.256.058-.003.106-.007.162-.009l.273-.015.256-.02.223-.019a20.787 20.787 0 0 0 .417-.049 4.943 4.943 0 0 0 .473-.087c.041-.01.079-.02.11-.031a.782.782 0 0 0 .086-.034c.023-.01.044-.02.058-.032a.089.089 0 0 0 .032-.037c.003-.006.016-.013.016-.02l-.042-4.256c-.008-.773-5.316-1.35-11.833-1.287-3.444.033-6.707.243-8.953.575-1.048.154-.91.371.31.484 1.22.113 3.058.078 4.106-.077 1.14-.168 2.796-.274 4.545-.291 3.17-.031 5.77.237 5.981.605a87.063 87.063 0 0 0-5.977-.136c-6.517.063-11.813.744-11.805 1.517.008.774 5.315 1.35 11.832 1.287a86.888 86.888 0 0 0 5.995-.254l.015 1.62c-1.962.067-3.97.111-5.995.13-16.17.158-29.34-1.274-29.358-3.193-.019-1.918 13.12-3.607 29.29-3.764 16.169-.157 29.339 1.276 29.357 3.194.009.836-2.52 1.669-7.118 2.345-1.051.154-.916.37.3.484 1.218.113 3.056.08 4.107-.075 5.513-.81 8.543-1.809 8.534-2.81-.022-2.3-15.808-4.017-35.187-3.829"/>
        <path fill="#EBAA20" d="M79.498 36.556l.073 15.108s9.234 10.5 60.534 10.257C191.404 61.677 200 51.092 200 51.092l-.045-15.109-120.457.573z"/>
        <path fill="#FFCB04" d="M200 36.109c.027 5.774-26.926 10.587-60.202 10.749-33.276.162-60.273-4.389-60.3-10.163-.027-5.774 26.926-10.587 60.202-10.75 33.276-.16 60.272 4.39 60.3 10.164"/>
        <path fill="#FEF2DE" d="M79.498 36.546s-.116 11.429 60.212 11.148c60.327-.282 60.29-11.71 60.29-11.71s-4.448 9.998-60.202 10.258c-55.463.258-60.3-9.696-60.3-9.696"/>
        <path fill="#CA8B2A" d="M99.171 45.6l.041 8.39s.525 6.295 7.901 6.261c0 0-20.419-1.886-27.542-8.434l-.073-14.997s.281 5.444 19.673 8.78"/>
        <path fill="#FEDC70" d="M188.285 34.493c.017 3.926-21.697 7.214-48.502 7.344-26.806.13-48.551-2.948-48.57-6.875-.017-3.926 21.697-7.214 48.502-7.343 26.806-.13 48.551 2.947 48.57 6.874"/>
        <path fill="#CA952B" d="M91.213 35.146s-.392-7.283 48.502-7.525c47.35-.235 48.57 7.045 48.57 7.045s-5.673-5.209-48.56-4.996c-42.888.212-48.512 5.476-48.512 5.476"/>
        <path fill="#FEFBF7" d="M140.605 36.432c-3.306.048-6-.231-6.007-.621-.005-.391 2.68-.748 5.987-.795 3.306-.048 6 .23 6.005.622.006.39-2.679.747-5.985.794m-.08-5.439c-19.38.28-35.119 2.371-35.086 4.66.034 2.29 15.829 3.926 35.208 3.646 3.3-.047 6.565-.149 9.708-.3l.162-.01c.093-.006.184-.01.273-.017l.255-.02a9.006 9.006 0 0 0 .456-.047 8.598 8.598 0 0 0 .37-.053 3.045 3.045 0 0 0 .398-.091 1.09 1.09 0 0 0 .085-.035.374.374 0 0 0 .058-.031.095.095 0 0 0 .032-.038c.002-.006.015-.013.015-.02l-.062-4.238c-.011-.77-5.323-1.321-11.84-1.226-3.444.049-6.707.273-8.951.615-1.047.158-.907.373.313.48 1.22.106 3.059.063 4.106-.096 1.139-.173 2.795-.287 4.542-.312 3.171-.046 5.773.21 5.986.575a87.939 87.939 0 0 0-5.979-.108c-6.517.095-11.81.798-11.798 1.568.011.77 5.323 1.32 11.84 1.226a87.588 87.588 0 0 0 5.993-.282l.024 1.613c-1.963.076-3.971.13-5.995.16-16.17.233-29.347-1.132-29.375-3.042-.029-1.91 13.103-3.655 29.273-3.888 16.168-.233 29.346 1.13 29.374 3.041.012.833-2.513 1.674-7.107 2.37-1.05.158-.915.374.303.48 1.218.107 3.056.065 4.106-.093 5.508-.834 8.535-1.843 8.52-2.84-.034-2.29-15.827-3.926-35.207-3.647"/>
        <path fill="#FEFEFE" d="M5.02 74.325l8.788 10.652s5.392 5.677 17.254 6.203c11.862.525 23.319-5.268 31.572-9.876 8.254-4.608 19.123-14.74 26.264-27.15 7.14-12.41 8.25-23.454 4.054-32.863 0 0-8.256-11.489-10.943-13.76L5.021 74.325z"/>
        <mask id="d" fill="#fff">
            <use xlink:href="#c"/>
        </mask>
        <path fill="#FFCB04" d="M82.71 8.578C93.863 21.917 85.494 47.3 64.018 65.276 42.542 83.25 16.092 87.008 4.94 73.669-6.212 60.329 2.156 34.945 23.632 16.97 45.107-1.003 71.558-4.761 82.71 8.578" mask="url(#d)"/>
        <path fill="#CA952B" d="M10.08 68.62S-1.971 47.382 28.093 22.316c30.064-25.065 48.895-9.48 48.895-9.48S68.103.064 44.462 9.077C18.45 18.993 9.575 40.763 9.575 40.763s-8.691 16.412.506 27.856"/>
        <path fill="#FEF2DE" d="M76.949 12.552S89 33.788 58.937 58.854c-30.064 25.065-48.895 9.48-48.895 9.48s8.884 12.773 32.525 3.76C68.578 62.18 77.454 40.41 77.454 40.41s8.692-16.412-.505-27.857"/>
        <path fill="#EBAA20" d="M6.695 76.028l7.351 8.806c.919 1.101 11.097 11.373 33.983 3.323 22.25-7.828 33.022-21.184 38.897-30.734 5.265-8.56 12.165-22.494 6.114-36.134 0 0-.625-1.948-7.99-10.41 0 0 9.388 10.805-.01 30.864-9.397 20.058-31.834 36.958-47.707 39.991-15.874 3.034-24.392.818-30.638-5.706"/>
        <path fill="#FEF2DE" d="M46.771 43.605c-1.97 1.63-4.377 2.005-5.367.834-.989-1.171-.192-3.452 1.777-5.082 1.97-1.631 4.377-2.006 5.367-.835.99 1.172.193 3.451-1.777 5.083M32.993 27.299C21.45 36.86 16.775 50.224 22.576 57.089c5.8 6.865 19.911 4.67 31.456-4.89a44.27 44.27 0 0 0 5.378-5.272c.029-.034.05-.069.077-.103a3.141 3.141 0 0 0 .242-.35 2.622 2.622 0 0 0 .17-.344 1.95 1.95 0 0 0 .124-.482 1.364 1.364 0 0 0-.005-.299.96.96 0 0 0-.076-.263.77.77 0 0 0-.075-.127c-.015-.02-.022-.045-.038-.064L49.09 32.186c-1.95-2.309-6.696-1.57-10.578 1.645-2.052 1.699-3.549 3.84-4.107 5.875-.26.95.372 1.533 1.412 1.304 1.04-.23 2.094-1.185 2.354-2.135.283-1.033 1.043-2.12 2.083-2.982 1.89-1.565 4.178-1.97 5.235-.967-1.355.5-2.75 1.292-4.05 2.368-3.883 3.215-5.454 7.71-3.504 10.018 1.951 2.309 6.696 1.571 10.579-1.645 1.304-1.08 2.34-2.305 3.077-3.543l4.086 4.837a37.506 37.506 0 0 1-3.387 3.175c-9.633 7.977-21.407 9.808-26.246 4.08-4.84-5.728-.94-16.877 8.693-24.855 9.632-7.976 21.405-9.807 26.244-4.08 2.11 2.497 2.638 6.161 1.487 10.317-.263.95.367 1.536 1.406 1.31 1.039-.228 2.095-1.182 2.358-2.132 1.379-4.983.747-9.375-1.781-12.367-5.801-6.864-19.913-4.671-31.458 4.89"/>
    </g>
</svg>
