<svg width="32" height="32" viewBox="0 0 32 32" fill="none" xmlns="http://www.w3.org/2000/svg">
<circle cx="16" cy="16" r="16" fill="#FF8787"/>
<path fill-rule="evenodd" clip-rule="evenodd" d="M24.1482 15.4482H7.85185C7.13465 15.4482 6.55324 15.8967 6.55324 16.45C6.55324 17.0033 7.13465 17.4518 7.85185 17.4518H24.1481C24.8654 17.4518 25.4468 17.0033 25.4468 16.45C25.4468 15.8967 24.8654 15.4482 24.1482 15.4482ZM7.85185 14.25C6.27682 14.25 5 15.235 5 16.45C5 17.665 6.27682 18.65 7.85185 18.65H24.1481C25.7232 18.65 27 17.665 27 16.45C27 15.235 25.7232 14.25 24.1482 14.25H7.85185Z" fill="white"/>
<path fill-rule="evenodd" clip-rule="evenodd" d="M22.8871 12.1484H9.11314C8.3554 12.1484 7.74113 12.5969 7.74113 13.1502C7.74113 13.7035 8.3554 14.152 9.11314 14.152H22.8871C23.6448 14.152 24.2591 13.7035 24.2591 13.1502C24.2591 12.5969 23.6448 12.1484 22.8871 12.1484ZM9.11314 10.9502C7.44908 10.9502 6.1001 11.9352 6.1001 13.1502C6.1001 14.3652 7.44908 15.3502 9.11314 15.3502H22.8871C24.5511 15.3502 25.9001 14.3652 25.9001 13.1502C25.9001 11.9352 24.5511 10.9502 22.8871 10.9502H9.11314Z" fill="white"/>
<path fill-rule="evenodd" clip-rule="evenodd" d="M7.41211 17.5H24.1957L22.4696 25.1989H9.13818L7.41211 17.5ZM9.10083 18.3702L10.25 23.8286H21.3578L22.507 18.3702H9.10083Z" fill="white"/>
<path fill-rule="evenodd" clip-rule="evenodd" d="M12.5244 20.4375L13.2432 24.3909L11.8951 24.636L11.1763 20.6826L12.5244 20.4375Z" fill="white"/>
<path fill-rule="evenodd" clip-rule="evenodd" d="M19.083 20.4375L18.3642 24.3909L19.7123 24.636L20.4312 20.6826L19.083 20.4375Z" fill="white"/>
<path fill-rule="evenodd" clip-rule="evenodd" d="M16.1295 20.2012V24.514H14.7593V20.2012H16.1295Z" fill="white"/>
<path fill-rule="evenodd" clip-rule="evenodd" d="M11.1538 10.4H20.4727C20.4497 9.82822 20.2713 9.13343 19.809 8.53691C19.2244 7.78255 18.1186 7.1 16.05 7.1C13.9831 7.1 12.7652 7.7831 12.0588 8.56793C11.5268 9.159 11.2583 9.83732 11.1538 10.4ZM11.2412 7.83207C12.1848 6.78356 13.7169 6 16.05 6C18.3814 6 19.8423 6.78411 20.6785 7.86309C21.4963 8.9183 21.6514 10.1729 21.5458 11.0182L21.4855 11.5H10V10.95C10 10.0997 10.3134 8.86296 11.2412 7.83207Z" fill="white"/>
</svg>
