<svg xmlns="http://www.w3.org/2000/svg" xmlns:xlink="http://www.w3.org/1999/xlink" width="135" height="94" viewBox="0 0 135 94">
    <defs>
        <path id="a" d="M.774.284h4.85V5H.774z"/>
    </defs>
    <g fill="none" fill-rule="evenodd">
        <path fill="#FFF" d="M79.444 89L45.482 31.415a3.478 3.478 0 0 1 1.173-4.728L85.905 2.53a3.57 3.57 0 0 1 4.954 1.241l41.723 71.483a3.065 3.065 0 0 1-1.027 4.147L116.136 89H79.444z"/>
        <path stroke="#464B54" stroke-linecap="round" stroke-linejoin="round" stroke-width="4" d="M79.444 89L45.482 31.415a3.478 3.478 0 0 1 1.173-4.728L85.905 2.53a3.57 3.57 0 0 1 4.954 1.241l41.723 71.483a3.065 3.065 0 0 1-1.027 4.147L116.136 89H79.444zM116 89H55"/>
        <path fill="#E2606F" d="M52 38.752L95.018 13 122 58.784 78.96 84z"/>
        <path fill="#C64659" d="M52 39.272L78.951 85 88 79.64 60.712 34z"/>
        <path fill="#CECECE" d="M61 33.715L54.644 24l-6.76 4.094s-1.622.94-.472 2.752L52.19 39 61 33.715zM87.73 79L93 88H80.877L79 84.65z"/>
        <path fill="#F48C9B" d="M94.093 19.813l21.677 36.573a1.648 1.648 0 0 1-.636 2.29l-.226.122c-.79.429-1.78.153-2.232-.62l-21.45-36.695a1.647 1.647 0 0 1 .561-2.236 1.667 1.667 0 0 1 2.306.566"/>
        <path stroke="#464B54" stroke-linecap="round" stroke-linejoin="round" stroke-width="3" d="M35.196 48.38c-.654-1.182-2.236-2.921-6.04-3.976-3.99-1.108-6.494.262-7.743 1.696-1.506-.816-4.41-1.614-8.454.768-3.865 2.276-4.671 5.582-4.51 7.812-2.16.492-5.057 2.23-6.091 6.629-1.081 4.6.519 7.172 1.73 8.389-.994 1.624-1.565 4.44.644 7.971 2.107 3.369 4.216 4.391 5.526 4.678.274 1.572 1.329 4.28 5.257 5.688 3.444 1.235 5.673.587 6.87-.086 1.61 1.499 4.704 2.984 8.744 1.313 4.153-1.716 5.33-4.62 5.646-6.434l10.76 2.481c.014.004.028.001.042.004.09.017.181.024.273.02l.062-.001c.1-.009.2-.032.297-.067.02-.006.038-.017.058-.026.044-.018.09-.035.132-.059.03-.018.056-.042.085-.061.023-.017.045-.032.067-.05.081-.066.155-.137.215-.218h.001v-.002a1.237 1.237 0 0 0 .171-.35c.011-.034.027-.065.034-.1.011-.049.013-.097.018-.145.003-.021.007-.042.008-.063a1.185 1.185 0 0 0-.023-.307c-.004-.02-.011-.039-.017-.06a1.181 1.181 0 0 0-.099-.257c-.006-.013-.008-.026-.015-.04l-5.48-9.673c1.627-.834 4.036-2.814 4.454-7.324.409-4.388-1.899-6.945-3.787-8.065.29-1.351.256-3.692-1.917-6.661-2.477-3.384-5.35-3.615-6.918-3.424z"/>
        <path stroke="#464B54" stroke-linecap="round" stroke-linejoin="round" stroke-width="3" d="M18 58s.542-4.1 4.885-4.897C27.227 52.304 30 56.428 30 56.428M15.297 66s-3.772 1.168-3.247 5.287C12.573 75.407 16 76 16 76M27.422 71s-1.936-4.54 2.485-6.487c4.42-1.946 7.093 2.27 7.093 2.27"/>
        <path fill="#464B54" d="M65 79a3 3 0 1 1-6 0 3 3 0 0 1 6 0"/>
        <g transform="translate(40 89)">
            <mask id="b" fill="#fff">
                <use xlink:href="#a"/>
            </mask>
            <path fill="#464B54" d="M5.624 2.642C5.624 3.944 4.537 5 3.2 5 1.859 5 .774 3.944.774 2.642S1.859.285 3.199.285c1.338 0 2.425 1.055 2.425 2.357" mask="url(#b)"/>
        </g>
    </g>
</svg>
