<svg xmlns="http://www.w3.org/2000/svg" width="206" height="245" viewBox="0 0 206 245">
    <g fill="none" fill-rule="evenodd">
        <path fill="#C6C4B0" d="M0 13.361v123.085l172 65.082v-25.556l-34.5-12.611v-25l-35.5-13v-23.5l-33.5-13v-24.49L34 51.36v-23z"/>
        <path fill="#F6F6EA" d="M0 13.361l35.5-13 33 13-34.25 15z"/>
        <path fill="#DBDAC1" d="M68 13.361v24l-34 14v-23z"/>
        <path fill="#F6F6EA" d="M34 51.361l34-14 35 13.5-34.75 13.51z"/>
        <path fill="#DBDAC1" d="M68.5 64.37L103 50.861v24.5l-34.5 13.5z"/>
        <path fill="#F6F6EA" d="M68.5 88.861l33.5 13 35-13.25-34.25-13.25z"/>
        <path fill="#DBDAC1" d="M137 88.861v23.496l-35 13.004v-23.5z"/>
        <path fill="#F6F6EA" d="M102 125.361l35.5 13 34.5-12.883-35.25-13.117z"/>
        <path fill="#DBDAC1" d="M172 125.478v23.883l-34.5 14v-25z"/>
        <path fill="#F6F6EA" d="M137.5 163.361l34.5 12.61 34-12.61-34-14z"/>
        <path fill="#DBDAC1" d="M171.5 175.972v25.556l34.5-13.566v-24.601z"/>
        <g>
            <path fill="#939B9F" d="M151.99 173.833l14.873 54.194 1.69-1.355-14.886-54.43z"/>
            <path fill="#545C60" d="M166.863 228.027l-3.908-1.767-14.217-52.858 3.251.43z"/>
            <path fill="#939B9F" d="M93.393 144.86l14.873 54.194 1.69-1.355-14.886-54.43z"/>
            <path fill="#545C60" d="M108.266 199.054l-3.908-1.767-14.217-52.858 3.252.43z"/>
            <path fill="#C4CCCF" d="M145.68 172.361l-8.336 70.24 3.986 1.536 8.67-69.599z"/>
            <path fill="#939B9F" d="M149.7 174.554l1.766-.694-8.656 69.85-1.782.393z"/>
            <path fill="#C4CCCF" d="M88.081 143.336l-8.335 70.24 3.986 1.536 8.67-69.6z"/>
            <path fill="#939B9F" d="M92.102 145.528l1.766-.693-8.656 69.849-1.782.394z"/>
            <path fill="#D8D8D8" d="M145.664 172.076l3.106-1.88 4.898 1.746-1.842 1.528-1.888.67zM88.066 143.05l3.106-1.879 4.898 1.746-1.842 1.527-1.888.671z"/>
            <g>
                <path fill="#D8E1E3" d="M73.641 192.625l73.64 37.306 2.554-20.221-73.645-37.411z"/>
                <path fill="#EAF0F2" d="M76.19 172.299l1.486-.38 73.94 37.301-2.558 20.138-1.778.573 2.555-20.221z"/>
                <path fill="#E65629" d="M76.19 172.299l4.572 24.014-7.12-3.688zM90.12 179.465l4.576 24.112 11.129 5.444-4.255-23.71zM116.12 192.81l3.622 23.154 12.075 6.27-3.012-22.996zM141.788 205.589l5.49 24.308 2.557-20.187z"/>
            </g>
            <g>
                <path fill="#D8E1E3" d="M76.223 165.453l73.639 37.305 2.555-20.22-73.645-37.412z"/>
                <path fill="#EAF0F2" d="M78.772 145.126l1.486-.379 73.94 37.3-2.559 20.138-1.777.573 2.555-20.22z"/>
                <path fill="#E65629" d="M78.772 145.126l4.571 24.015-7.12-3.688zM92.701 152.292l4.577 24.113 11.128 5.444-4.254-23.71zM118.7 165.638l3.624 23.154 12.075 6.27-3.012-22.996zM144.37 178.416l5.49 24.309 2.557-20.187z"/>
            </g>
        </g>
    </g>
</svg>
