<?xml version="1.0" encoding="UTF-8"?>
<svg width="225px" height="130px" viewBox="0 0 225 130" version="1.1" xmlns="http://www.w3.org/2000/svg" xmlns:xlink="http://www.w3.org/1999/xlink">
    <!-- Generator: Sketch 52.3 (67297) - http://www.bohemiancoding.com/sketch -->
    <title>Group Copy@3x</title>
    <desc>Created with Sketch.</desc>
    <defs>
        <linearGradient x1="0%" y1="0%" x2="100%" y2="100%" id="linearGradient-1">
            <stop stop-color="#FCE38A" offset="0%"></stop>
            <stop stop-color="#F38181" offset="100%"></stop>
        </linearGradient>
    </defs>
    <g id="Page-1" stroke="none" stroke-width="1" fill="none" fill-rule="evenodd">
        <g id="Artycoin-Transaction-Copy" transform="translate(-380.000000, -589.000000)">
            <g id="Group-Copy" transform="translate(380.000000, 589.000000)">
                <g id="Group-5">
                    <rect id="Rectangle" fill="url(#linearGradient-1)" x="0" y="0.984848485" width="224.545455" height="128.030303" rx="5"></rect>
                    <text id="1234" font-family="Roboto-Bold, Roboto" font-size="6" font-weight="bold" fill="#FFFFFF">
                        <tspan x="150.3125" y="78.671875">1234</tspan>
                    </text>
                    <g id="Group-2-Copy" transform="translate(137.878788, 10.833333)" fill="#FFFFFF">
                        <g id="Page-1-Copy-2">
                            <path d="M4.64023624,13.9730593 C5.69302217,13.9700866 6.46078916,13.3963504 6.45828253,12.4984384 C6.4557759,11.5598001 5.68476502,11.0107375 4.61177858,11.0137103 C3.53879213,11.016683 2.7913731,11.6312942 2.79387973,12.5086943 C2.79623892,13.3862431 3.58745031,13.976032 4.64023624,13.9730593 M4.10027796,9.05572411 C5.17311696,9.05275138 6.00428703,9.37707582 6.38957129,9.64135118 L6.3878019,8.94751687 C6.38514782,8.00858128 5.69493901,7.3779174 4.4599061,7.38133603 C3.40726762,7.38430876 2.43631589,7.73405 1.64790603,8.14428623 L0.589664484,6.22895869 C1.53967846,5.57302664 3.13728848,4.95648321 4.75701585,4.95187548 C8.15836962,4.94236276 9.17562033,6.73536261 9.18225554,9.12320499 L9.20083412,15.8785768 L6.73091575,15.8855627 L6.54675194,15.192323 C6.00163295,15.7855305 5.19287513,16.155189 3.97819018,16.1586076 C1.83192239,16.1647017 0.006208752,14.8431763 1.58935859e-05,12.5981734 C-0.00588206681,10.49601 1.63021215,9.06271001 4.10027796,9.05572411" id="Fill-1"></path>
                            <path d="M16.6126172,7.80663662 C14.5394565,7.81242879 13.7782372,9.11982625 13.7839541,11.2408013 L13.7968536,15.8901342 L11.0192023,15.8980056 L10.9898852,5.23253543 L13.7071432,5.22496105 L13.7113942,6.7748872 C14.1713799,5.71313729 15.2159492,4.95584777 16.6047015,4.95183781 L16.6126172,7.80663662 Z" id="Fill-4"></path>
                            <path d="M19.3022889,2.87472011 L22.1257317,2.86685347 L22.1320819,5.15165887 L24.1665816,5.14606145 L24.173083,7.47277185 L22.1385834,7.47836926 L22.1502255,11.6743146 C22.1547614,13.2943888 22.6538609,13.6253929 23.7541176,13.6223673 C23.9411476,13.6219134 24.0448684,13.6216109 24.2731751,13.6001289 L24.2799789,16.0511927 C24.2799789,16.0511927 23.8442307,16.1563334 23.0552875,16.1586026 C20.4603026,16.1657129 19.3145358,14.7149227 19.30622,11.7652348 L19.2942755,7.4862359 L18.152591,7.48941282 L18.1460895,5.1628537 L19.3086391,5.15952551 L19.3022889,2.87472011 Z" id="Fill-6"></path>
                            <polygon id="Fill-8" points="27.8863892 19.5467282 29.327227 15.5570681 25.3022938 4.98237516 28.2450782 4.97375818 30.5903855 12.0454235 32.9177367 4.96015243 35.7810216 4.95183781 30.5110308 19.5390183"></polygon>
                            <path d="M44.73866,12.4411045 L45.4930131,14.7456368 C44.8879115,15.2374369 43.7376149,15.8936659 42.2016783,15.8979773 C38.9075468,15.9073435 36.5566143,13.5869035 36.5477829,10.3409932 C36.5388042,7.09523164 38.9371321,4.70015931 42.1504558,4.69123911 C43.7067048,4.68677901 44.7997442,5.29587966 45.4885974,5.82484722 L44.7067195,8.19494301 C44.2408605,7.767517 43.4305748,7.17804079 42.2383288,7.18131152 C40.4396564,7.1863663 39.3317508,8.59813582 39.3364609,10.312746 C39.3414654,12.129641 40.5980338,13.4120677 42.3563759,13.4071616 C43.4276309,13.4041882 44.2751559,12.830025 44.73866,12.4411045" id="Fill-11"></path>
                            <path d="M52.0020832,7.35632228 C50.5654094,7.36034152 49.4094617,8.69800433 49.413848,10.3147811 C49.4183806,11.9315578 50.5814927,13.2629685 52.0183126,13.2588004 C53.4551326,13.2547811 54.6110803,11.9168206 54.6065478,10.3000439 C54.6021615,8.68341598 53.4389031,7.35230304 52.0020832,7.35632228 M52.0262081,16.158608 C49.0015317,16.1670931 46.5241249,13.5568196 46.5153522,10.3229684 C46.5064333,7.0895638 48.9693652,4.43909793 51.9940415,4.43061287 C55.0190103,4.42197894 57.496271,7.0584519 57.5051899,10.2918565 C57.5139625,13.5255588 55.0511768,16.1499741 52.0262081,16.158608" id="Fill-13"></path>
                            <polygon id="Fill-15" points="59.4936917 7.96560486 59.5150224 15.6373825 62.361209 15.6294253 62.335057 6.17935956 58.5275281 4.69121476"></polygon>
                            <path d="M60.9601143,3.12747005 C61.8830509,3.12502267 62.6193811,2.42823905 62.6167809,1.55927502 C62.6141806,0.690598911 61.8738735,-0.00229769059 60.950784,5.72632389e-06 C60.0280004,0.0024531068 59.2918231,0.699380688 59.2942704,1.56791283 C59.2968706,2.43687686 60.0373307,3.12991743 60.9601143,3.12747005" id="Fill-20"></path>
                            <path d="M64.4058388,5.60530776 L67.0032916,4.57169464 L67.0159855,9.08744543 C67.0159855,9.08744543 67.3991893,8.06023193 67.9630932,7.16041553 C69.1164382,5.30988342 70.2209492,4.4346237 71.6628171,4.43060534 C72.8213888,4.42733111 73.7496799,5.01475674 74.2416025,5.96279354 C74.4747207,6.42386386 74.6047949,6.98822109 74.6071843,7.83475693 L74.6289878,15.6089563 L71.7198646,15.6171419 L71.7000025,8.51014013 C71.6983597,7.94563408 71.5427485,7.6122585 71.0024401,7.61389561 C70.4875193,7.61523507 69.7942878,8.30996596 69.0253414,9.56935173 C68.0512032,11.1371099 67.5150763,12.6526293 66.9299662,15.2199189 L66.8538033,15.6305364 L64.4337652,15.6373825 L64.4058388,5.60530776 Z" id="Fill-17"></path>
                        </g>
                    </g>
                    <circle id="Oval" fill="#FFFFFF" cx="18.7121212" cy="76.8181818" r="2.95454545"></circle>
                    <circle id="Oval-Copy-6" fill="#FFFFFF" cx="64.0151515" cy="76.8181818" r="2.95454545"></circle>
                    <circle id="Oval-Copy-10" fill="#FFFFFF" cx="111.287879" cy="76.8181818" r="2.95454545"></circle>
                    <circle id="Oval-Copy-2" fill="#FFFFFF" cx="28.5606061" cy="76.8181818" r="2.95454545"></circle>
                    <circle id="Oval-Copy-7" fill="#FFFFFF" cx="73.8636364" cy="76.8181818" r="2.95454545"></circle>
                    <circle id="Oval-Copy-11" fill="#FFFFFF" cx="121.136364" cy="76.8181818" r="2.95454545"></circle>
                    <circle id="Oval-Copy-4" fill="#FFFFFF" cx="38.4090909" cy="76.8181818" r="2.95454545"></circle>
                    <circle id="Oval-Copy-8" fill="#FFFFFF" cx="83.7121212" cy="76.8181818" r="2.95454545"></circle>
                    <circle id="Oval-Copy-12" fill="#FFFFFF" cx="129.015152" cy="76.8181818" r="2.95454545"></circle>
                    <circle id="Oval-Copy-5" fill="#FFFFFF" cx="48.2575758" cy="76.8181818" r="2.95454545"></circle>
                    <circle id="Oval-Copy-9" fill="#FFFFFF" cx="93.5606061" cy="76.8181818" r="2.95454545"></circle>
                    <circle id="Oval-Copy-13" fill="#FFFFFF" cx="138.863636" cy="76.8181818" r="2.95454545"></circle>
                </g>
            </g>
        </g>
    </g>
</svg>