<svg xmlns="http://www.w3.org/2000/svg" xmlns:xlink="http://www.w3.org/1999/xlink" width="84" height="84" viewBox="0 0 84 84">
    <defs>
        <circle id="a" cx="35" cy="35" r="35"/>
    </defs>
    <g fill="none" fill-rule="evenodd" transform="translate(1 1)">
        <g transform="translate(6 6)">
            <mask id="b" fill="#fff">
                <use xlink:href="#a"/>
            </mask>
            <use fill="#F6F7F8" stroke="#E4E4E4" xlink:href="#a"/>
            <g fill-rule="nonzero" mask="url(#b)">
                <path fill="#FFB74D" d="M56.997 42.013L37.361 22.295l4.344-3.315-3.475-3.49H14.77L0 12v27.92l10.253 1.744 20.852 21.289c1.39 1.396 3.476 1.396 4.866 0 1.39-1.396 1.39-3.49 0-4.886l-.174-.174a.846.846 0 0 1 0-1.222.837.837 0 0 1 1.216 0l1.39 1.396c1.39 1.396 3.476 1.396 4.866 0 1.39-1.396 1.39-3.49 0-4.886l-.521-.523a.846.846 0 0 1 0-1.222.837.837 0 0 1 1.216 0l1.738 1.745c1.39 1.396 3.475 1.396 4.866 0 1.39-1.396 1.39-3.49 0-4.886l-.522-.523a.846.846 0 0 1 0-1.222.837.837 0 0 1 1.217 0l.521.524c1.39 1.396 3.475 1.396 4.866 0 1.737-1.396 1.737-3.665.347-5.06z"/>
                <g fill="#C77600">
                    <path d="M40.345 26.723l-8.397 3.18c-5.002 1.944-10.54.707-14.113-3.18-.714-.706-.536-1.943.536-2.473l23.76-11.483c2.859-1.414 6.253-1.06 8.754.706l.714.53c1.966 1.414 4.645 1.767 6.968 1.237L70 12.767v28.266L59.46 42.8l-1.43 1.413-17.685-17.49zM23.552 62.233c1.43 1.414 3.573 1.414 5.002 0l1.25-1.236c1.43-1.414 1.43-3.534 0-4.947-1.428-1.413-3.572-1.413-5.001 0l-1.25 1.237c-1.43 1.413-1.43 3.533 0 4.946zM18.371 57.287c1.43 1.413 3.573 1.413 5.002 0l1.251-1.237c1.43-1.413 1.43-3.533 0-4.947-1.43-1.413-3.573-1.413-5.002 0l-1.25 1.237c-1.251 1.237-1.251 3.533 0 4.947zM13.37 52.34c1.428 1.413 3.572 1.413 5.001 0l1.25-1.237c1.43-1.413 1.43-3.533 0-4.946-1.428-1.414-3.572-1.414-5.001 0l-1.25 1.236c-1.43 1.237-1.43 3.534 0 4.947zM8.367 47.217c1.43 1.413 3.573 1.413 5.002 0l1.25-1.237c1.43-1.413 1.43-3.533 0-4.947-1.428-1.413-3.572-1.413-5.001 0l-1.25 1.237c-1.43 1.413-1.43 3.533 0 4.947z"/>
                </g>
                <g fill="#EBAE55">
                    <path d="M28.733 59.827L26.2 57.41l.676-.69c.675-.692 1.52-.692 2.195 0l.169.172c.676.69.676 1.554 0 2.245l-.507.691zM23.836 54.99l-2.365-2.417.676-.691c.675-.691 1.52-.691 2.195 0l.17.173c.675.69.675 1.554 0 2.245l-.676.69zM19.107 50.155l-2.365-2.419.676-.69c.675-.691 1.52-.691 2.195 0l.17.172c.675.691.675 1.555 0 2.246l-.676.69zM14.378 45.318l-2.365-2.59.676-.692c.675-.69 1.52-.69 2.195 0l.17.173c.675.691.675 1.555 0 2.246l-.676.863z"/>
                </g>
            </g>
        </g>
        <circle cx="41" cy="41" r="41" stroke="#979797"/>
    </g>
</svg>
