<svg xmlns="http://www.w3.org/2000/svg" width="24" height="24" viewBox="0 0 24 24">
    <path fill="#FFF" fill-rule="evenodd" d="M12 0C5.373 0 0 5.373 0 12s5.373 12 12 12 12-5.373 12-12S18.627 0 12 0zm9.552 8.17l-3.295 1.012a6.839 6.839 0 0 0-1.409-2.036 6.839 6.839 0 0 0-2.035-1.409l1.012-3.294A10.3 10.3 0 0 1 19.27 4.72a10.31 10.31 0 0 1 2.282 3.45zM12 17.143A5.144 5.144 0 0 1 6.857 12 5.144 5.144 0 0 1 12 6.857 5.144 5.144 0 0 1 17.143 12 5.144 5.144 0 0 1 12 17.143zM4.725 4.725A10.22 10.22 0 0 1 8.17 2.448l1.012 3.295a6.839 6.839 0 0 0-2.036 1.409c-.6.6-1.071 1.285-1.409 2.035L2.443 8.175a10.365 10.365 0 0 1 2.282-3.45zM2.448 15.83l3.295-1.012c.337.75.809 1.436 1.409 2.036.6.6 1.285 1.071 2.035 1.409l-1.012 3.294A10.3 10.3 0 0 1 4.73 19.28a10.31 10.31 0 0 1-2.282-3.45zm16.827 3.445a10.22 10.22 0 0 1-3.445 2.277l-1.012-3.295a6.839 6.839 0 0 0 2.036-1.409c.6-.6 1.071-1.285 1.409-2.035l3.294 1.012a10.365 10.365 0 0 1-2.282 3.45z"/>
</svg>
