<svg width="36" height="32" viewBox="0 0 36 32" fill="none" xmlns="http://www.w3.org/2000/svg">
<path d="M17.0874 15.5202L10.3146 8.43668C9.36181 7.4425 8.9165 6.19979 8.97864 4.70852C9.04078 3.21725 9.61035 2.01597 10.6874 1.10464C11.6401 0.276155 12.7482 -0.0863004 14.0117 0.0172604C15.2751 0.12082 16.3417 0.628259 17.2117 1.53959L17.8951 2.28522L18.5786 1.53959C19.49 0.628259 20.567 0.12082 21.8097 0.0172604C23.0524 -0.0863004 24.1502 0.276155 25.1029 1.10464C26.2214 2.01597 26.8117 3.21725 26.8738 4.70852C26.9359 6.19979 26.4699 7.4425 25.4757 8.43668L18.7029 15.5202C18.4544 15.7687 18.1851 15.893 17.8951 15.893C17.6052 15.893 17.3359 15.7687 17.0874 15.5202ZM35.1068 20.3668C35.6039 20.781 35.8421 21.2988 35.8214 21.9202C35.8006 22.5415 35.5418 23.0386 35.0447 23.4114L25.6621 30.9299C24.9165 31.5098 24.088 31.7998 23.1767 31.7998H0.994175C0.704206 31.7998 0.466021 31.7066 0.279611 31.5202C0.0932029 31.3338 0 31.0956 0 30.8056V24.8406C0 24.5506 0.0932029 24.3124 0.279611 24.126C0.466021 23.9396 0.704206 23.8464 0.994175 23.8464H4.41165L7.33204 21.4852C8.65761 20.4082 10.1903 19.8697 11.9301 19.8697H21.8718C22.4932 19.8697 23.0006 20.1079 23.3942 20.5843C23.7877 21.0606 23.943 21.5888 23.8602 22.1687C23.7773 22.6658 23.5288 23.0697 23.1146 23.3804C22.7003 23.691 22.2447 23.8464 21.7476 23.8464H16.901C16.611 23.8464 16.3728 23.9396 16.1864 24.126C16 24.3124 15.9068 24.5506 15.9068 24.8406C15.9068 25.1305 16 25.3687 16.1864 25.5551C16.3728 25.7415 16.611 25.8347 16.901 25.8347H24.233C25.1858 25.8347 26.0142 25.5448 26.7184 24.9648L32.4971 20.3668C32.8699 20.0354 33.3049 19.8697 33.8019 19.8697C34.299 19.8697 34.734 20.0354 35.1068 20.3668Z" fill="#444444"/>
</svg>