<svg xmlns="http://www.w3.org/2000/svg" xmlns:xlink="http://www.w3.org/1999/xlink" width="84" height="84" viewBox="0 0 84 84">
    <defs>
        <circle id="a" cx="35" cy="35" r="35"/>
    </defs>
    <g fill="none" fill-rule="evenodd" transform="translate(1 1)">
        <g transform="translate(6 6)">
            <mask id="b" fill="#fff">
                <use xlink:href="#a"/>
            </mask>
            <use fill="#F6F7F8" stroke="#E5E5E5" xlink:href="#a"/>
            <g fill-rule="nonzero" mask="url(#b)">
                <g fill="#3F51B5">
                    <path d="M22 37.364c-5.95 0-10.625-4.7-10.625-10.682S16.05 16 22 16s10.625 4.7 10.625 10.682S27.95 37.364 22 37.364zM5 58.727v17.091l6.375 4.273L13.5 110h17l2.125-29.91L39 75.819v-17.09c0-9.4-7.65-17.092-17-17.092S5 49.327 5 58.727z"/>
                </g>
                <path fill="#1E88E5" d="M48 83.723V58.727c0-9.613-2.958-15.809-8.45-21.79 1.478-3.205 2.112-6.837 2.112-10.255 0-3.846-.845-7.477-2.324-10.682h-5.704c2.324 2.99 3.803 6.623 3.803 10.682C37.437 33.09 33 38.645 33 38.645s10.775 4.7 10.775 20.082v20.51l-6.55 4.486L35.324 110h4.225l1.48-21.577 6.971-4.7z"/>
                <path fill="#64B5F6" d="M46.203 26.682c0 4.913-1.542 9.186-1.542 9.186s8.153 9.187 8.153 22.86v27.986l-7.492 4.7L44 110h4.407l1.101-16.236L57 88.85V58.727c0-8.545-2.644-16.663-7.712-23.713.881-2.778 1.322-5.555 1.322-8.332 0-3.632-.66-7.264-1.763-10.682H44.22c1.322 3.418 1.983 6.836 1.983 10.682z"/>
                <path fill="#BBDEFB" d="M54.167 26.682c0 2.563-.217 5.127-.65 7.477 4.55 7.477 7.15 15.81 7.15 24.568V91.2l-7.584 4.914L52 110h4.333l.867-11.323L65 93.55V58.727c0-8.972-2.383-17.732-6.933-25.422.216-2.137.433-4.487.433-6.623 0-3.632-.433-7.264-1.3-10.682h-4.55c1.083 3.418 1.517 7.05 1.517 10.682z"/>
            </g>
        </g>
        <circle cx="41" cy="41" r="41" stroke="#979797"/>
    </g>
</svg>
