<svg width="32" height="32" viewBox="0 0 32 32" fill="none" xmlns="http://www.w3.org/2000/svg">
<circle cx="16" cy="16" r="16" fill="#52B963"/>
<path fill-rule="evenodd" clip-rule="evenodd" d="M5 13.5381H24.615V14.0334C24.615 16.9738 24.0248 19.5483 23.0092 21.4045C21.9919 23.2637 20.5231 24.4353 18.7945 24.4353H10.1763C8.22599 24.4353 6.92373 22.8621 6.13142 20.8588C5.33789 18.8525 5 16.2994 5 14.0334V13.5381ZM5.85843 14.5287C5.90441 16.5669 6.23468 18.747 6.90637 20.4452C7.63403 22.285 8.70673 23.4446 10.1763 23.4446H18.7945C20.1532 23.4446 21.3815 22.5324 22.2894 20.8731C23.1448 19.3098 23.6939 17.1127 23.7562 14.5287H5.85843Z" fill="white"/>
<path fill-rule="evenodd" clip-rule="evenodd" d="M8.78185 15.7178C9.06507 15.7178 9.29466 15.9474 9.29466 16.2306C9.29466 17.3071 9.38451 18.4764 9.85494 19.3671C10.084 19.8009 10.4004 20.162 10.8421 20.4184C11.2856 20.6758 11.8871 20.8459 12.7134 20.8459C12.9966 20.8459 13.2262 21.0755 13.2262 21.3587C13.2262 21.6419 12.9966 21.8715 12.7134 21.8715C11.7448 21.8715 10.9574 21.6712 10.3273 21.3054C9.69525 20.9386 9.2531 20.4237 8.94804 19.8461C8.35012 18.714 8.26904 17.3192 8.26904 16.2306C8.26904 15.9474 8.49864 15.7178 8.78185 15.7178Z" fill="white"/>
<path fill-rule="evenodd" clip-rule="evenodd" d="M7.53562 11.3131C7.07101 12.0874 6.91034 13.0346 6.91034 13.6661H6.08984C6.08984 12.93 6.27104 11.8259 6.83205 10.8909C7.40592 9.93448 8.38349 9.15332 9.91883 9.15332C11.4542 9.15332 12.4317 9.93448 13.0056 10.8909C13.5666 11.8259 13.7478 12.93 13.7478 13.6661H12.9273C12.9273 13.0346 12.7666 12.0874 12.302 11.3131C11.8503 10.5601 11.1185 9.97382 9.91883 9.97382C8.71917 9.97382 7.98738 10.5601 7.53562 11.3131Z" fill="white"/>
<path fill-rule="evenodd" clip-rule="evenodd" d="M10.2705 11.3131C9.80588 12.0874 9.6452 13.0346 9.6452 13.6661H8.82471C8.82471 12.93 9.00591 11.8259 9.56692 10.8909C10.1408 9.93448 11.1184 9.15332 12.6537 9.15332C14.189 9.15332 15.1666 9.93448 15.7405 10.8909C16.3015 11.8259 16.4827 12.93 16.4827 13.6661H15.6622C15.6622 13.0346 15.5015 12.0874 15.0369 11.3131C14.5851 10.5601 13.8533 9.97382 12.6537 9.97382C11.454 9.97382 10.7222 10.5601 10.2705 11.3131Z" fill="white"/>
<path fill-rule="evenodd" clip-rule="evenodd" d="M8.9033 11.3131C8.43869 12.0874 8.27802 13.0346 8.27802 13.6661H7.45752C7.45752 12.93 7.63872 11.8259 8.19973 10.8909C8.7736 9.93448 9.75117 9.15332 11.2865 9.15332C12.8218 9.15332 13.7994 9.93448 14.3733 10.8909C14.9343 11.8259 15.1155 12.93 15.1155 13.6661H14.295C14.295 13.0346 14.1343 12.0874 13.6697 11.3131C13.218 10.5601 12.4862 9.97382 11.2865 9.97382C10.0868 9.97382 9.35505 10.5601 8.9033 11.3131Z" fill="white"/>
<path fill-rule="evenodd" clip-rule="evenodd" d="M16.6928 9.15332H18.9164L18.8794 9.59764C18.82 10.3104 18.6249 11.3844 18.2217 12.2939C17.8319 13.173 17.1622 14.0763 16.0774 14.0763H13.3424L13.269 13.2624C13.8389 13.1588 14.71 12.8422 15.4296 12.2403C16.1382 11.6477 16.6928 10.7876 16.6928 9.56357V9.15332ZM17.4956 9.97382C17.3819 11.2717 16.7346 12.2185 15.956 12.8697C15.786 13.0119 15.6094 13.1403 15.4303 13.2558H16.0774C16.6336 13.2558 17.1035 12.7916 17.4716 11.9614C17.7527 11.3273 17.9247 10.5818 18.0111 9.97382H17.4956Z" fill="white"/>
<path fill-rule="evenodd" clip-rule="evenodd" d="M18.0605 9.15332H20.2841L20.247 9.59764C20.1876 10.3104 19.9925 11.3844 19.5893 12.2939C19.1996 13.173 18.5299 14.0763 17.4451 14.0763H14.7101L14.6367 13.2624C15.2066 13.1588 16.0776 12.8422 16.7973 12.2403C17.5058 11.6477 18.0605 10.7876 18.0605 9.56357V9.15332ZM18.8633 9.97382C18.7496 11.2717 18.1022 12.2185 17.3237 12.8697C17.1537 13.0119 16.9771 13.1403 16.798 13.2558H17.4451C18.0013 13.2558 18.4712 12.7916 18.8392 11.9614C19.1203 11.3273 19.2923 10.5818 19.3787 9.97382H18.8633Z" fill="white"/>
<path fill-rule="evenodd" clip-rule="evenodd" d="M19.4281 9.15332H21.6517L21.6147 9.59764C21.5553 10.3104 21.3602 11.3844 20.957 12.2939C20.5673 13.173 19.8976 14.0763 18.8128 14.0763H16.0778L16.0044 13.2624C16.5742 13.1588 17.4453 12.8422 18.165 12.2403C18.8735 11.6477 19.4281 10.7876 19.4281 9.56357V9.15332ZM20.2309 9.97382C20.1173 11.2717 19.4699 12.2185 18.6914 12.8697C18.5213 13.0119 18.3448 13.1403 18.1657 13.2558H18.8128C19.369 13.2558 19.8388 12.7916 20.2069 11.9614C20.488 11.3273 20.66 10.5818 20.7464 9.97382H20.2309Z" fill="white"/>
<path fill-rule="evenodd" clip-rule="evenodd" d="M24.9444 7V7.51281L24.516 7.23089L24.668 7H24.9444ZM27.0003 7L22.2883 14.1793H20.4487L22.2883 11.6153C22.7931 10.5607 22.2397 10.8298 23.0363 9.54954C23.437 8.90566 23.8066 8.32639 24.0761 7.90812C24.2109 7.69894 24.3207 7.5299 24.3969 7.41304L24.4849 7.27835L24.516 7.23089L24.9444 7.51281V7H27.0003Z" fill="white"/>
</svg>