<svg xmlns="http://www.w3.org/2000/svg" width="20" height="20" viewBox="0 0 20 20">
    <path fill="#FFF" fill-rule="evenodd" d="M17.595 11c.05-.3.05-.65.05-1s-.05-.65-.05-1l2.147-1.65c.205-.15.256-.4.103-.65l-2.046-3.45c-.102-.2-.409-.3-.614-.2l-2.557 1a7.443 7.443 0 0 0-1.738-1L12.532.4a.548.548 0 0 0-.512-.4H7.93c-.256 0-.46.2-.511.4l-.41 2.65c-.613.25-1.176.6-1.739 1l-2.557-1c-.255-.1-.511 0-.613.2L.053 6.7c-.102.2-.051.5.102.65L2.355 9c0 .35-.052.65-.052 1s.051.65.051 1L.207 12.65c-.205.15-.256.4-.102.65l2.045 3.45c.103.2.41.3.614.2l2.557-1c.511.4 1.125.75 1.739 1l.409 2.65c.051.25.255.4.511.4h4.091c.256 0 .46-.2.512-.4l.41-2.65c.613-.25 1.175-.6 1.738-1l2.557 1c.255.1.511 0 .614-.2l2.045-3.45c.103-.2.051-.5-.102-.65L17.595 11zm-7.62 2.5c-1.995 0-3.58-1.55-3.58-3.5s1.585-3.5 3.58-3.5c1.994 0 3.58 1.55 3.58 3.5s-1.586 3.5-3.58 3.5z"/>
</svg>
