<?xml version="1.0" encoding="UTF-8"?>
<svg width="32px" height="32px" viewBox="0 0 32 32" version="1.1" xmlns="http://www.w3.org/2000/svg" xmlns:xlink="http://www.w3.org/1999/xlink">
    <!-- Generator: Sketch 52.3 (67297) - http://www.bohemiancoding.com/sketch -->
    <title>Settings-icon2@2x</title>
    <desc>Created with Sketch.</desc>
    <g id="Page-1" stroke="none" stroke-width="1" fill="none" fill-rule="evenodd">
        <g id="Settings-icon2">
            <rect id="Rectangle-Copy-18" fill="#F0F0F0" x="0" y="0" width="32" height="32" rx="4"></rect>
            <path d="M23.5947649,17.0000048 C23.6457266,16.7002438 23.6457266,16.3500978 23.6457266,16 C23.6457266,15.6499022 23.5947649,15.350093 23.5947649,14.9999952 L25.7422271,13.3500834 C25.9470358,13.2001788 25.9979495,12.9502257 25.8446314,12.7001764 L23.7989966,9.24996755 C23.6966403,9.04977428 23.3900043,8.95020649 23.1851956,9.04977428 L20.6281641,10.0498272 C20.1167193,9.64992139 19.5034471,9.29977548 18.8896942,9.04977428 L18.5316155,6.39990577 C18.4806537,6.20019327 18.2758931,6 18.0201707,6 L13.9289011,6 C13.6732268,6 13.4684662,6.20019327 13.4175044,6.39990577 L13.008464,9.04977428 C12.3946629,9.29977548 11.8323045,9.64987332 11.2694652,10.0498272 L8.71243369,9.04977428 C8.4567113,8.95020649 8.20098892,9.04977428 8.09863266,9.24996755 L6.05299783,12.7002245 C5.95112234,12.8998889 6.00198796,13.2001788 6.15535409,13.3501315 L8.3544512,14.9999952 C8.3544512,15.350093 8.30348941,15.6499022 8.30348941,16 C8.30348941,16.3500978 8.3544512,16.649907 8.3544512,17.0000048 L6.20694087,18.6499166 C6.0021322,18.7998212 5.95126657,19.0497743 6.10453653,19.2998236 L8.15017137,22.7500325 C8.25257571,22.9502257 8.5592118,23.0497935 8.7639724,22.9502257 L11.321052,21.9501728 C11.8324487,22.3500786 12.4457689,22.7002245 13.0595219,22.9502257 L13.4685623,25.6000942 C13.5199568,25.8500954 13.7242366,26 13.979959,26 L18.0712287,26 C18.3269511,26 18.5317117,25.7998067 18.5826734,25.6000942 L18.9921946,22.9502257 C19.6055149,22.7002245 20.1683541,22.3501267 20.7306645,21.9501728 L23.2877441,22.9502257 C23.5434185,23.0497935 23.7991408,22.9502257 23.9015452,22.7500325 L25.94718,19.2997755 C26.0495363,19.1001111 25.9981418,18.7998212 25.8447757,18.6498685 L23.5947649,17.0000048 L23.5947649,17.0000048 Z M15.974584,19.5000168 C13.9799109,19.5000168 12.3947591,17.9502498 12.3947591,16 C12.3947591,14.0497502 13.9799109,12.4999832 15.974584,12.4999832 C17.969257,12.4999832 19.554457,14.0497502 19.554457,16 C19.554457,17.9502498 17.969257,19.5000168 15.974584,19.5000168 L15.974584,19.5000168 Z" id="Shape-Copy-2" fill="#607D8B"></path>
        </g>
    </g>
</svg>