<svg xmlns="http://www.w3.org/2000/svg" width="14" height="19" viewBox="0 0 14 19">
    <g fill="#FFF" fill-rule="evenodd">
        <path d="M4.037.346L.332 4.224A1.125 1.125 0 0 0 0 5.051c0 .322.11.61.332.828L4.037 9.77c.44.462 1.156.462 1.595 0 .44-.461.44-1.207 0-1.67l-1.776-1.86h8.014c.624 0 1.13-.529 1.13-1.182 0-.654-.506-1.182-1.13-1.182H3.856l1.78-1.861c.44-.462.44-1.208 0-1.67a1.096 1.096 0 0 0-1.6 0z"/>
        <path d="M9.963 8.346l3.705 3.878c.221.214.332.506.332.827 0 .322-.11.61-.332.828L9.963 17.77a1.092 1.092 0 0 1-1.595 0 1.222 1.222 0 0 1 0-1.67l1.776-1.86H2.13c-.624 0-1.13-.529-1.13-1.182 0-.654.506-1.182 1.13-1.182h8.014l-1.78-1.861a1.222 1.222 0 0 1 0-1.67 1.096 1.096 0 0 1 1.6 0z"/>
    </g>
</svg>
