<?xml version="1.0" encoding="UTF-8"?>
<svg width="32px" height="32px" viewBox="0 0 32 32" version="1.1" xmlns="http://www.w3.org/2000/svg" xmlns:xlink="http://www.w3.org/1999/xlink">
    <!-- Generator: Sketch 52.3 (67297) - http://www.bohemiancoding.com/sketch -->
    <title>Transaction-icon2@2x</title>
    <desc>Created with Sketch.</desc>
    <g id="Page-1" stroke="none" stroke-width="1" fill="none" fill-rule="evenodd">
        <g id="Transaction-icon2">
            <rect id="Rectangle" fill="#F0F0F0" x="0" y="0" width="32" height="32" rx="4"></rect>
            <g id="Group-7-Copy" transform="translate(9.000000, 7.000000)" fill="#607D8B">
                <path d="M4.03664773,0.346235795 L0.332386364,4.2240767 C0.110795455,4.43828125 0,4.73004261 0,5.05134943 C0,5.37265625 0.110795455,5.66072443 0.332386364,5.87862216 L4.03664773,9.7712358 C4.47613636,10.2328835 5.19261364,10.2328835 5.63210227,9.7712358 C6.07159091,9.30958807 6.07159091,8.56356534 5.63210227,8.10191761 L3.85568182,6.24055398 L11.8698864,6.24055398 C12.4940341,6.24055398 13,5.71242898 13,5.0587358 C13,4.40504261 12.4940341,3.87691761 11.8698864,3.87691761 L3.85568182,3.87691761 L5.63579545,2.01555398 C6.07528409,1.55390625 6.07528409,0.807883523 5.63579545,0.346235795 C5.19261364,-0.115411932 4.47982955,-0.115411932 4.03664773,0.346235795 L4.03664773,0.346235795 Z" id="Shape"></path>
                <path d="M5.03664773,8.3462358 L1.33238636,12.2240767 C1.11079545,12.4382813 1,12.7300426 1,13.0513494 C1,13.3726563 1.11079545,13.6607244 1.33238636,13.8786222 L5.03664773,17.7712358 C5.47613636,18.2328835 6.19261364,18.2328835 6.63210227,17.7712358 C7.07159091,17.3095881 7.07159091,16.5635653 6.63210227,16.1019176 L4.85568182,14.240554 L12.8698864,14.240554 C13.4940341,14.240554 14,13.712429 14,13.0587358 C14,12.4050426 13.4940341,11.8769176 12.8698864,11.8769176 L4.85568182,11.8769176 L6.63579545,10.015554 C7.07528409,9.55390625 7.07528409,8.80788352 6.63579545,8.3462358 C6.19261364,7.88458807 5.47982955,7.88458807 5.03664773,8.3462358 L5.03664773,8.3462358 Z" id="Shape-Copy" transform="translate(7.500000, 13.058736) scale(-1, 1) translate(-7.500000, -13.058736) "></path>
            </g>
        </g>
    </g>
</svg>